STARTFONT 2.1
COMMENT
COMMENT Converted from OpenType font "UbuntuMono-Bold.ttf" by "otf2bdf 3.0".
COMMENT
FONT -FreeType-Ubuntu Mono-Bold-R-Normal--44-320-100-100-P-198-ISO10646-1
SIZE 32 100 100
FONTBOUNDINGBOX 47 45 -17 -8
STARTPROPERTIES 19
FOUNDRY "FreeType"
FAMILY_NAME "Ubuntu Mono"
WEIGHT_NAME "Bold"
SLANT "R"
SETWIDTH_NAME "Normal"
ADD_STYLE_NAME ""
PIXEL_SIZE 44
POINT_SIZE 320
RESOLUTION_X 100
RESOLUTION_Y 100
SPACING "P"
AVERAGE_WIDTH 198
CHARSET_REGISTRY "ISO10646"
CHARSET_ENCODING "1"
FONT_ASCENT 36
FONT_DESCENT 7
COPYRIGHT "Copyright 2011 Canonical Ltd.  Licensed under the Ubuntu Font Licence 1.0"
_OTF_FONTFILE "UbuntuMono-Bold.ttf"
_OTF_PSNAME "UbuntuMono-Bold"
ENDPROPERTIES
CHARS 1224
STARTCHAR 0000
ENCODING 0
SWIDTH 495 0
DWIDTH 22 0
BBX 0 0 0 0
BITMAP
ENDCHAR
STARTCHAR 0008
ENCODING 8
SWIDTH 495 0
DWIDTH 22 0
BBX 0 0 0 0
BITMAP
ENDCHAR
STARTCHAR 0009
ENCODING 9
SWIDTH 495 0
DWIDTH 22 0
BBX 0 0 0 0
BITMAP
ENDCHAR
STARTCHAR 000D
ENCODING 13
SWIDTH 495 0
DWIDTH 22 0
BBX 0 0 0 0
BITMAP
ENDCHAR
STARTCHAR 001D
ENCODING 29
SWIDTH 495 0
DWIDTH 22 0
BBX 0 0 0 0
BITMAP
ENDCHAR
STARTCHAR 0020
ENCODING 32
SWIDTH 495 0
DWIDTH 22 0
BBX 0 0 0 0
BITMAP
ENDCHAR
STARTCHAR 0021
ENCODING 33
SWIDTH 495 0
DWIDTH 22 0
BBX 8 29 7 -1
BITMAP
7E
7E
7E
7E
7E
7E
7E
7E
7E
7E
7E
7E
7E
7E
7E
3E
3E
3C
00
00
00
1C
7E
7F
FF
FF
7E
7E
10
ENDCHAR
STARTCHAR 0022
ENCODING 34
SWIDTH 495 0
DWIDTH 22 0
BBX 14 12 4 18
BITMAP
FC7C
FC7C
FC7C
FC7C
FC7C
F87C
F87C
F87C
787C
787C
7838
7838
ENDCHAR
STARTCHAR 0023
ENCODING 35
SWIDTH 495 0
DWIDTH 22 0
BBX 20 28 1 0
BITMAP
03E3E0
03E3E0
03E3E0
03C3C0
03C3C0
07C7C0
07C7C0
FFFFF0
FFFFF0
FFFFF0
FFFFF0
FFFFF0
0F8F80
0F0F00
0F0F00
0F0F00
1F1F00
FFFFF0
FFFFF0
FFFFF0
FFFFF0
3E3E00
3E3E00
3E3E00
3C3C00
3C3C00
7C7C00
7C7C00
ENDCHAR
STARTCHAR 0024
ENCODING 36
SWIDTH 495 0
DWIDTH 22 0
BBX 19 35 2 -4
BITMAP
01F000
01F000
01F000
01F000
01F800
0FFF80
1FFFC0
3FFF80
7FFF80
7E0380
FC0000
FC0000
FC0000
7E0000
7FC000
7FF000
3FFC00
1FFF00
07FF80
00FFC0
001FC0
000FE0
0007E0
0007E0
4007E0
780FC0
FFFFC0
FFFF80
FFFF00
7FFE00
07F000
01F000
01F000
01F000
01F000
ENDCHAR
STARTCHAR 0025
ENCODING 37
SWIDTH 495 0
DWIDTH 22 0
BBX 22 29 0 -1
BITMAP
1F003C
3F8078
7FC078
7BC0F0
71C0F0
F1C1E0
F1C3C0
F1C3C0
71C780
73CF00
7FCF00
7F9E00
3FBC00
0C3C00
007800
00F3E0
00F7F0
01E7F8
03CF78
03CF3C
078E3C
0F0E3C
0F0E3C
1E0E3C
3C0F38
3C0FF8
7807F8
F003F0
000080
ENDCHAR
STARTCHAR 0026
ENCODING 38
SWIDTH 495 0
DWIDTH 22 0
BBX 20 28 1 0
BITMAP
03F000
0FFC00
1FFE00
1FFE00
3E3E00
3E1F00
3E1F00
3E1F00
3E3E00
3E3E00
1F7C00
1FF800
0FF000
0FE1E0
1FE1E0
3FF1E0
7FF9E0
7CFFE0
F87FE0
F87FC0
F83FC0
F81F80
F80FC0
FC1FC0
7FFFE0
7FFFE0
3FF9F0
0FE1F0
ENDCHAR
STARTCHAR 0027
ENCODING 39
SWIDTH 495 0
DWIDTH 22 0
BBX 6 13 8 17
BITMAP
FC
FC
FC
FC
FC
FC
7C
7C
7C
78
78
78
78
ENDCHAR
STARTCHAR 0028
ENCODING 40
SWIDTH 495 0
DWIDTH 22 0
BBX 14 38 4 -7
BITMAP
0038
007C
00FC
03F8
07F0
07E0
0FC0
1F80
1F00
3F00
3E00
7E00
7C00
7C00
7C00
FC00
F800
F800
F800
F800
F800
F800
F800
7C00
7C00
7C00
7E00
3E00
3F00
1F00
1F80
0FC0
0FE0
07F0
03F8
01FC
0078
0038
ENDCHAR
STARTCHAR 0029
ENCODING 41
SWIDTH 495 0
DWIDTH 22 0
BBX 14 39 4 -7
BITMAP
3000
7C00
FE00
7F00
3F80
1FC0
0FC0
07E0
03F0
01F0
01F0
00F8
00F8
00F8
007C
007C
007C
007C
007C
007C
007C
007C
007C
007C
00FC
00F8
00F8
01F8
01F0
03F0
07E0
07E0
0FC0
3F80
7F00
FE00
7C00
3000
2000
ENDCHAR
STARTCHAR 002A
ENCODING 42
SWIDTH 495 0
DWIDTH 22 0
BBX 18 18 2 10
BITMAP
01F000
01F000
01F000
01F000
21E080
79E380
7EEFC0
FFFFC0
FFFFC0
3FFF80
03F000
07F800
0FBC00
1FBE00
3F3F00
1F1F00
0E1C00
000800
ENDCHAR
STARTCHAR 002B
ENCODING 43
SWIDTH 495 0
DWIDTH 22 0
BBX 18 20 2 2
BITMAP
01E000
01E000
01E000
01E000
01E000
01E000
01E000
01E000
FFFFC0
FFFFC0
FFFFC0
FFFFC0
FFFFC0
01E000
01E000
01E000
01E000
01E000
01E000
01E000
ENDCHAR
STARTCHAR 002C
ENCODING 44
SWIDTH 495 0
DWIDTH 22 0
BBX 9 14 6 -7
BITMAP
1F00
3F80
3F80
7F80
3F80
3F80
1F80
0780
0F00
1F00
FE00
FC00
F800
C000
ENDCHAR
STARTCHAR 002D
ENCODING 45
SWIDTH 495 0
DWIDTH 22 0
BBX 12 5 5 9
BITMAP
FFF0
FFF0
FFF0
FFF0
FFF0
ENDCHAR
STARTCHAR 002E
ENCODING 46
SWIDTH 495 0
DWIDTH 22 0
BBX 8 7 7 0
BITMAP
3E
7F
FF
FF
FF
7F
7E
ENDCHAR
STARTCHAR 002F
ENCODING 47
SWIDTH 495 0
DWIDTH 22 0
BBX 18 38 2 -7
BITMAP
000FC0
000FC0
000F80
001F80
001F80
001F00
003F00
003F00
003E00
007E00
007E00
007C00
00FC00
00FC00
00F800
01F800
01F800
01F000
03F000
03F000
03F000
03E000
07E000
07E000
07C000
0FC000
0FC000
0F8000
1F8000
1F8000
1F0000
3F0000
3F0000
3E0000
7E0000
7E0000
7C0000
FC0000
ENDCHAR
STARTCHAR 0030
ENCODING 48
SWIDTH 495 0
DWIDTH 22 0
BBX 19 29 2 -1
BITMAP
03F800
0FFC00
1FFF00
3FFF00
7FFF80
7E1F80
7C0FC0
F807C0
F807C0
F807C0
F807C0
F9E3E0
F9E3E0
F1F3E0
F1F3E0
F9E3E0
F8C3E0
F807E0
F807C0
F807C0
F807C0
FC0FC0
7C0F80
7F1F80
3FFF80
3FFF00
1FFE00
07FC00
00E000
ENDCHAR
STARTCHAR 0031
ENCODING 49
SWIDTH 495 0
DWIDTH 22 0
BBX 18 28 2 0
BITMAP
007800
00F800
01F800
07F800
0FF800
3FF800
FFF800
7FF800
7FF800
79F800
21F800
01F800
01F800
01F800
01F800
01F800
01F800
01F800
01F800
01F800
01F800
01F800
01F800
3FFFC0
3FFFC0
3FFFC0
3FFFC0
3FFFC0
ENDCHAR
STARTCHAR 0032
ENCODING 50
SWIDTH 495 0
DWIDTH 22 0
BBX 19 28 2 0
BITMAP
07F000
3FFC00
7FFE00
FFFF00
7FFF80
781F80
201F80
000F80
000F80
001F80
001F80
003F00
007F00
00FE00
01FC00
03F800
07F000
0FE000
1FC000
1F8000
3F0000
7E0000
7E0000
7FFFE0
7FFFE0
FFFFE0
FFFFE0
FFFFE0
ENDCHAR
STARTCHAR 0033
ENCODING 51
SWIDTH 495 0
DWIDTH 22 0
BBX 18 29 2 -1
BITMAP
0FF000
3FFC00
FFFE00
7FFF00
7FFF00
301F80
001F80
001F80
001F80
001F80
003F00
07FF00
07FC00
07FC00
07FF00
07FF80
003F80
000FC0
000FC0
000FC0
000FC0
000FC0
000FC0
703F80
FFFF80
FFFF00
FFFE00
7FF800
038000
ENDCHAR
STARTCHAR 0034
ENCODING 52
SWIDTH 495 0
DWIDTH 22 0
BBX 20 28 1 0
BITMAP
000F80
001F80
003F80
007F80
007F80
00FF80
01FF80
03FF80
03EF80
07CF80
0F8F80
0F8F80
1F0F80
3E0F80
3E0F80
7C0F80
7C0F80
FFFFF0
FFFFF0
FFFFF0
FFFFF0
FFFFF0
000F80
000F80
000F80
000F80
000F80
000F80
ENDCHAR
STARTCHAR 0035
ENCODING 53
SWIDTH 495 0
DWIDTH 22 0
BBX 18 29 2 -1
BITMAP
1FFF80
1FFF80
1FFF80
1FFF80
1FFF80
1E0000
3E0000
3E0000
3E0000
3E0000
3E0000
3FF000
3FFC00
3FFE00
3FFF00
007F80
001F80
000FC0
000FC0
000FC0
000FC0
000FC0
001F80
E03F80
FFFF80
FFFF00
FFFE00
FFF800
030000
ENDCHAR
STARTCHAR 0036
ENCODING 54
SWIDTH 495 0
DWIDTH 22 0
BBX 18 29 2 -1
BITMAP
000380
003F80
01FF80
03FF80
07FF80
0FF800
1FC000
3F8000
3F0000
7E0000
7E6000
7FFC00
FFFF00
FFFF80
FFFF80
FC1FC0
F80FC0
F807C0
F807C0
FC07C0
FC07C0
FC0FC0
7E0FC0
7F1F80
3FFF80
3FFF00
1FFE00
07FC00
004000
ENDCHAR
STARTCHAR 0037
ENCODING 55
SWIDTH 495 0
DWIDTH 22 0
BBX 18 28 2 0
BITMAP
FFFFC0
FFFFC0
FFFFC0
FFFFC0
FFFFC0
001F80
001F80
003F00
003F00
007E00
007C00
00FC00
00FC00
00F800
01F800
01F000
03F000
03F000
03E000
07E000
07E000
07C000
07C000
0FC000
0FC000
0FC000
0FC000
0F8000
ENDCHAR
STARTCHAR 0038
ENCODING 56
SWIDTH 495 0
DWIDTH 22 0
BBX 19 29 2 -1
BITMAP
07F800
1FFE00
3FFF00
3FFF80
7F3F80
7C0FC0
FC07C0
FC07C0
FC07C0
7C0F80
7E0F80
7F9F00
3FFF00
1FFE00
1FFE00
3FFF00
7E7F80
FC1FC0
F807C0
F807C0
F807E0
F807E0
F807C0
FE0FC0
FFFFC0
7FFF80
3FFF00
0FFC00
00C000
ENDCHAR
STARTCHAR 0039
ENCODING 57
SWIDTH 495 0
DWIDTH 22 0
BBX 18 28 2 0
BITMAP
07F800
0FFC00
3FFF00
3FFF00
7FFF80
7C1F80
FC0FC0
FC0FC0
F807C0
F807C0
F807C0
FC07C0
FE07C0
7FFFC0
7FFFC0
3FFFC0
1FFFC0
03EFC0
001F80
001F80
003F00
007F00
01FE00
3FFC00
3FF800
3FF000
3FC000
3E0000
ENDCHAR
STARTCHAR 003A
ENCODING 58
SWIDTH 495 0
DWIDTH 22 0
BBX 8 21 7 0
BITMAP
3C
7E
FF
FF
FF
FF
7E
3C
00
00
00
00
00
00
3E
7F
FF
FF
FF
7F
7E
ENDCHAR
STARTCHAR 003B
ENCODING 59
SWIDTH 495 0
DWIDTH 22 0
BBX 10 28 5 -7
BITMAP
0F00
1F80
3FC0
3FC0
3FC0
3FC0
1F80
0F00
0000
0000
0000
0000
0000
0000
1F80
1F80
3FC0
3FC0
3FC0
1FC0
1FC0
03C0
0780
1F80
FF00
FE00
7800
4000
ENDCHAR
STARTCHAR 003C
ENCODING 60
SWIDTH 495 0
DWIDTH 22 0
BBX 19 19 2 2
BITMAP
000080
0007C0
001FC0
007FC0
03FFC0
0FFF80
7FFC00
FFE000
FF8000
FC0000
FF8000
FFE000
7FFC00
1FFF00
03FFE0
00FFC0
001FC0
0007C0
000180
ENDCHAR
STARTCHAR 003D
ENCODING 61
SWIDTH 495 0
DWIDTH 22 0
BBX 18 13 2 5
BITMAP
FFFFC0
FFFFC0
FFFFC0
FFFFC0
000000
000000
000000
000000
FFFFC0
FFFFC0
FFFFC0
FFFFC0
FFFFC0
ENDCHAR
STARTCHAR 003E
ENCODING 62
SWIDTH 495 0
DWIDTH 22 0
BBX 18 19 2 2
BITMAP
600000
780000
7E0000
FFC000
FFF000
3FFE00
0FFF80
01FFC0
007FC0
000FC0
003FC0
01FFC0
07FF80
3FFE00
FFF800
FFC000
FF0000
7C0000
600000
ENDCHAR
STARTCHAR 003F
ENCODING 63
SWIDTH 495 0
DWIDTH 22 0
BBX 16 28 3 -1
BITMAP
1FF0
7FFC
FFFE
7FFE
7FFF
603F
003F
003F
003F
007F
00FE
01FC
03F8
03F0
07E0
07C0
0FC0
0F80
0000
0000
0000
0380
0FC0
0FE0
1FE0
0FE0
0FE0
07C0
ENDCHAR
STARTCHAR 0040
ENCODING 64
SWIDTH 495 0
DWIDTH 22 0
BBX 20 34 1 -6
BITMAP
01FE00
07FF00
0FFF80
1FFFC0
1F03E0
3E03E0
3C01E0
7801F0
781FF0
787FF0
F0FFF0
F1FFF0
F1FFF0
F1F1F0
F1E1F0
F3E1F0
F3E1F0
F3E1F0
F3E1F0
F3E1F0
F1F1F0
F1F1F0
F1FFF0
F0FFF0
787FF0
783FF0
7C0200
3C0000
3F0000
1FC000
0FFFE0
07FFE0
03FFE0
007FC0
ENDCHAR
STARTCHAR 0041
ENCODING 65
SWIDTH 495 0
DWIDTH 22 0
BBX 21 28 1 0
BITMAP
01F800
01F800
01FC00
03FC00
03FC00
03FE00
07FE00
07DE00
079F00
0F9F00
0F9F00
0F8F80
0F0F80
1F0F80
1F0F80
1F0FC0
3E07C0
3FFFC0
3FFFC0
3FFFE0
7FFFE0
7FFFE0
7C03E0
FC03F0
FC03F0
FC03F0
F801F0
F801F8
ENDCHAR
STARTCHAR 0042
ENCODING 66
SWIDTH 495 0
DWIDTH 22 0
BBX 19 28 2 0
BITMAP
1FE000
FFFC00
FFFF00
FFFF00
FFFF80
FC1F80
FC0F80
FC0FC0
FC0F80
FC0F80
FC1F80
FFFF00
FFFE00
FFFE00
FFFF00
FFFF80
FC0FC0
FC07C0
FC07E0
FC07E0
FC07E0
FC07E0
FC0FE0
FE3FC0
FFFFC0
FFFF80
FFFF00
FFFC00
ENDCHAR
STARTCHAR 0043
ENCODING 67
SWIDTH 495 0
DWIDTH 22 0
BBX 20 29 1 -1
BITMAP
007F80
03FFE0
07FFF0
0FFFE0
1FFFE0
3F8060
3F0000
7E0000
7E0000
7C0000
FC0000
FC0000
FC0000
FC0000
FC0000
FC0000
FC0000
FC0000
7C0000
7E0000
7E0000
7F0000
3F0020
3FC1E0
1FFFE0
0FFFE0
07FFF0
01FFC0
001800
ENDCHAR
STARTCHAR 0044
ENCODING 68
SWIDTH 495 0
DWIDTH 22 0
BBX 19 28 2 0
BITMAP
3FC000
FFF800
FFFE00
FFFF00
FFFF80
FC3F80
FC1FC0
FC0FC0
FC07C0
FC07E0
FC07E0
FC07E0
FC07E0
FC07E0
FC07E0
FC07E0
FC07E0
FC07E0
FC07E0
FC07C0
FC0FC0
FC0FC0
FC1F80
FCFF80
FFFF00
FFFE00
FFFC00
FFF000
ENDCHAR
STARTCHAR 0045
ENCODING 69
SWIDTH 495 0
DWIDTH 22 0
BBX 17 28 3 0
BITMAP
FFFF00
FFFF00
FFFF00
FFFF00
FFFF00
F80000
F80000
F80000
F80000
F80000
F80000
FFFE00
FFFE00
FFFE00
FFFE00
FFFE00
F80000
F80000
F80000
F80000
F80000
F80000
F80000
FFFF80
FFFF80
FFFF80
FFFF80
FFFF80
ENDCHAR
STARTCHAR 0046
ENCODING 70
SWIDTH 495 0
DWIDTH 22 0
BBX 17 28 3 0
BITMAP
FFFF80
FFFF80
FFFF80
FFFF80
FFFF80
F80000
F80000
F80000
F80000
F80000
F80000
F80000
FFFE00
FFFE00
FFFE00
FFFE00
F80000
F80000
F80000
F80000
F80000
F80000
F80000
F80000
F80000
F80000
F80000
F80000
ENDCHAR
STARTCHAR 0047
ENCODING 71
SWIDTH 495 0
DWIDTH 22 0
BBX 19 29 1 -1
BITMAP
00FF80
03FFE0
07FFE0
0FFFE0
1FFFE0
3F8040
3F0000
7E0000
7E0000
7C0000
FC0000
FC0000
FC0000
FC0000
FC03E0
FC03E0
FC03E0
FC03E0
7C03E0
7C03E0
7E03E0
7E03E0
3F03E0
3FC3E0
1FFFE0
0FFFE0
07FFE0
03FFE0
001000
ENDCHAR
STARTCHAR 0048
ENCODING 72
SWIDTH 495 0
DWIDTH 22 0
BBX 18 28 2 0
BITMAP
F807C0
F807C0
F807C0
F807C0
F807C0
F807C0
F807C0
F807C0
F807C0
F807C0
F807C0
FFFFC0
FFFFC0
FFFFC0
FFFFC0
FFFFC0
F807C0
F807C0
F807C0
F807C0
F807C0
F807C0
F807C0
F807C0
F807C0
F807C0
F807C0
F807C0
ENDCHAR
STARTCHAR 0049
ENCODING 73
SWIDTH 495 0
DWIDTH 22 0
BBX 18 28 2 0
BITMAP
FFFFC0
FFFFC0
FFFFC0
FFFFC0
FFFFC0
03F000
03F000
03F000
03F000
03F000
03F000
03F000
03F000
03F000
03F000
03F000
03F000
03F000
03F000
03F000
03F000
03F000
03F000
FFFFC0
FFFFC0
FFFFC0
FFFFC0
FFFFC0
ENDCHAR
STARTCHAR 004A
ENCODING 74
SWIDTH 495 0
DWIDTH 22 0
BBX 17 29 2 -1
BITMAP
1FFF80
1FFF80
1FFF80
1FFF80
1FFF80
000F80
000F80
000F80
000F80
000F80
000F80
000F80
000F80
000F80
000F80
000F80
000F80
000F80
000F80
000F80
000F80
001F80
201F80
787F80
7FFF00
FFFE00
FFFC00
3FF800
018000
ENDCHAR
STARTCHAR 004B
ENCODING 75
SWIDTH 495 0
DWIDTH 22 0
BBX 20 28 2 0
BITMAP
F807E0
F80FC0
F80FC0
F81F80
F81F80
F83F00
F87E00
F87E00
F8FC00
F9F800
F9F000
FBF000
FFE000
FFE000
FFF000
FBF800
F9F800
F9FC00
F8FE00
F87F00
F83F00
F83F80
F81F80
F80FC0
F80FC0
F807E0
F807E0
F807F0
ENDCHAR
STARTCHAR 004C
ENCODING 76
SWIDTH 495 0
DWIDTH 22 0
BBX 17 28 3 0
BITMAP
FC0000
FC0000
FC0000
FC0000
FC0000
FC0000
FC0000
FC0000
FC0000
FC0000
FC0000
FC0000
FC0000
FC0000
FC0000
FC0000
FC0000
FC0000
FC0000
FC0000
FC0000
FC0000
FC0000
FFFF80
FFFF80
FFFF80
FFFF80
FFFF80
ENDCHAR
STARTCHAR 004D
ENCODING 77
SWIDTH 495 0
DWIDTH 22 0
BBX 20 28 1 0
BITMAP
3C03E0
7C03E0
7E07E0
7E07E0
7E07E0
7F0FE0
7F0FE0
7F0FE0
7F9FE0
7B9FE0
7B9DE0
7BFDE0
7BFDF0
79F9F0
79F9F0
79F9F0
F8F9F0
F8F1F0
F801F0
F801F0
F801F0
F801F0
F801F0
F801F0
F801F0
F801F0
F801F0
F801F0
ENDCHAR
STARTCHAR 004E
ENCODING 78
SWIDTH 495 0
DWIDTH 22 0
BBX 18 28 2 0
BITMAP
F007C0
F807C0
FC07C0
FC07C0
FE07C0
FE07C0
FF07C0
FF07C0
FF87C0
FF87C0
FFC7C0
FBC7C0
FBE7C0
F9E7C0
F8F7C0
F8F7C0
F87FC0
F87FC0
F83FC0
F83FC0
F83FC0
F81FC0
F81FC0
F80FC0
F80FC0
F807C0
F807C0
F803C0
ENDCHAR
STARTCHAR 004F
ENCODING 79
SWIDTH 495 0
DWIDTH 22 0
BBX 20 29 1 -1
BITMAP
01FC00
07FF00
0FFF80
1FFF80
3FFFC0
3F0FE0
7E07E0
7E03E0
7C03E0
7C03F0
FC03F0
FC03F0
FC03F0
FC03F0
FC03F0
FC03F0
FC03F0
FC03F0
FC03F0
7C03F0
7C03E0
7E07E0
7E07E0
3F8FC0
3FFFC0
1FFF80
0FFF00
03FE00
007000
ENDCHAR
STARTCHAR 0050
ENCODING 80
SWIDTH 495 0
DWIDTH 22 0
BBX 19 28 2 0
BITMAP
1FE000
FFFE00
FFFF00
FFFF80
FFFFC0
FC1FC0
FC07E0
FC07E0
FC07E0
FC07E0
FC07E0
FC07E0
FC0FE0
FC1FC0
FFFFC0
FFFF80
FFFF00
FFFC00
FFE000
FC0000
FC0000
FC0000
FC0000
FC0000
FC0000
FC0000
FC0000
FC0000
ENDCHAR
STARTCHAR 0051
ENCODING 81
SWIDTH 495 0
DWIDTH 22 0
BBX 20 36 1 -8
BITMAP
01F800
07FE00
0FFF80
1FFF80
3FFFC0
3F0FE0
7E07E0
7E03E0
7C03E0
7C03F0
FC03F0
FC03F0
FC03F0
FC03F0
FC03F0
FC03F0
FC03F0
FC03F0
FC03F0
7C03F0
7C03E0
7E03E0
7E07E0
3F0FC0
3FFFC0
1FFF80
0FFF00
07FE00
00F000
00F800
00FE00
007FE0
003FF0
001FE0
0003E0
000020
ENDCHAR
STARTCHAR 0052
ENCODING 82
SWIDTH 495 0
DWIDTH 22 0
BBX 20 28 2 0
BITMAP
1FE000
FFFC00
FFFE00
FFFF00
FFFF80
FC3F80
FC0FC0
FC0FC0
FC0FC0
FC0FC0
FC0FC0
FC0FC0
FC1F80
FFFF80
FFFF00
FFFE00
FFFC00
FFFC00
FC7E00
FC3F00
FC3F00
FC1F80
FC1F80
FC0FC0
FC0FC0
FC07E0
FC07E0
FC03F0
ENDCHAR
STARTCHAR 0053
ENCODING 83
SWIDTH 495 0
DWIDTH 22 0
BBX 18 29 2 -1
BITMAP
07FC00
1FFF80
3FFF80
7FFF80
7FFF00
FC0100
FC0000
FC0000
FC0000
FE0000
7F0000
7FC000
3FF800
1FFE00
0FFF00
03FF80
007FC0
001FC0
000FC0
0007C0
0007C0
0007C0
400FC0
781FC0
FFFFC0
FFFF80
FFFF00
3FFC00
01C000
ENDCHAR
STARTCHAR 0054
ENCODING 84
SWIDTH 495 0
DWIDTH 22 0
BBX 20 28 1 0
BITMAP
FFFFF0
FFFFF0
FFFFF0
FFFFF0
FFFFF0
01F800
01F800
01F800
01F800
01F800
01F800
01F800
01F800
01F800
01F800
01F800
01F800
01F800
01F800
01F800
01F800
01F800
01F800
01F800
01F800
01F800
01F800
01F800
ENDCHAR
STARTCHAR 0055
ENCODING 85
SWIDTH 495 0
DWIDTH 22 0
BBX 18 29 2 -1
BITMAP
F807C0
F807C0
F807C0
F807C0
F807C0
F807C0
F807C0
F807C0
F807C0
F807C0
F807C0
F807C0
F807C0
F807C0
F807C0
F807C0
F807C0
F807C0
F807C0
F807C0
F807C0
FC07C0
FC0FC0
FE1FC0
7FFF80
3FFF80
3FFF00
0FFC00
00C000
ENDCHAR
STARTCHAR 0056
ENCODING 86
SWIDTH 495 0
DWIDTH 22 0
BBX 21 28 1 0
BITMAP
F801F8
F801F0
FC01F0
FC03F0
FC03F0
7C03F0
7C03E0
7E03E0
7E07E0
3E07E0
3E07C0
3E07C0
3F07C0
1F0FC0
1F0F80
1F0F80
0F8F80
0F9F00
0F9F00
0F9F00
07DE00
07FE00
07FE00
03FC00
03FC00
03FC00
01F800
01F800
ENDCHAR
STARTCHAR 0057
ENCODING 87
SWIDTH 495 0
DWIDTH 22 0
BBX 20 28 1 0
BITMAP
F801F0
F801F0
F801F0
F801F0
F801F0
F801F0
F801F0
F801F0
F801F0
F801F0
F8F1F0
F8F1F0
F9F9F0
79F9F0
79F9F0
79FDF0
7BFDF0
7BDDE0
7B9DE0
7F9FE0
7F8FE0
7F0FE0
7F0FE0
7F07E0
7E07E0
7E07E0
7E03E0
3C03E0
ENDCHAR
STARTCHAR 0058
ENCODING 88
SWIDTH 495 0
DWIDTH 22 0
BBX 21 28 1 0
BITMAP
FC01F0
FC03F0
7E03E0
3E07E0
3F07C0
1F0FC0
1F8F80
0F9F00
0FDF00
07FE00
07FE00
03FC00
01FC00
01F800
01FC00
03FE00
07FE00
07FF00
0FDF00
0F9F80
1F8F80
1F0FC0
3F07C0
3E07E0
7E07E0
7C03F0
FC03F0
FC01F8
ENDCHAR
STARTCHAR 0059
ENCODING 89
SWIDTH 495 0
DWIDTH 22 0
BBX 21 28 1 0
BITMAP
F801F8
FC01F0
FC03F0
7C03F0
7E03E0
3E07E0
3F07C0
3F07C0
1F0F80
1F8F80
0F9F80
0FDF00
07DF00
07FE00
03FE00
03FC00
01F800
01F800
01F800
01F800
01F800
01F800
01F800
01F800
01F800
01F800
01F800
01F800
ENDCHAR
STARTCHAR 005A
ENCODING 90
SWIDTH 495 0
DWIDTH 22 0
BBX 18 28 2 0
BITMAP
7FFFC0
7FFFC0
7FFFC0
7FFFC0
7FFFC0
001F80
003F00
003F00
007E00
007C00
00FC00
01F800
01F800
03F000
03E000
07E000
07C000
0FC000
1F8000
1F8000
3F0000
3E0000
7E0000
7FFFC0
FFFFC0
FFFFC0
FFFFC0
FFFFC0
ENDCHAR
STARTCHAR 005B
ENCODING 91
SWIDTH 495 0
DWIDTH 22 0
BBX 12 38 5 -7
BITMAP
FFF0
FFF0
FFF0
FFF0
F800
F800
F800
F800
F800
F800
F800
F800
F800
F800
F800
F800
F800
F800
F800
F800
F800
F800
F800
F800
F800
F800
F800
F800
F800
F800
F800
F800
F800
F800
FFF0
FFF0
FFF0
FFF0
ENDCHAR
STARTCHAR 005C
ENCODING 92
SWIDTH 495 0
DWIDTH 22 0
BBX 18 38 2 -7
BITMAP
FC0000
7C0000
7E0000
7E0000
3E0000
3F0000
3F0000
1F0000
1F8000
1F8000
0F8000
0FC000
0FC000
07C000
07E000
07E000
03E000
03E000
03F000
03F000
01F000
01F800
01F800
00F800
00FC00
00FC00
007C00
007E00
007E00
003E00
003F00
003F00
001F00
001F80
001F80
000F80
000FC0
000FC0
ENDCHAR
STARTCHAR 005D
ENCODING 93
SWIDTH 495 0
DWIDTH 22 0
BBX 12 38 5 -7
BITMAP
FFF0
FFF0
FFF0
FFF0
01F0
01F0
01F0
01F0
01F0
01F0
01F0
01F0
01F0
01F0
01F0
01F0
01F0
01F0
01F0
01F0
01F0
01F0
01F0
01F0
01F0
01F0
01F0
01F0
01F0
01F0
01F0
01F0
01F0
01F0
FFF0
FFF0
FFF0
FFF0
ENDCHAR
STARTCHAR 005E
ENCODING 94
SWIDTH 495 0
DWIDTH 22 0
BBX 20 17 1 11
BITMAP
00F800
01F800
01FC00
03FC00
03FE00
07FF00
0FFF00
0FDF80
1F9F80
1F8FC0
3F0FE0
7F07E0
7E07F0
FE03F0
FC01F0
3801C0
080000
ENDCHAR
STARTCHAR 005F
ENCODING 95
SWIDTH 495 0
DWIDTH 22 0
BBX 22 4 0 -7
BITMAP
FFFFFC
FFFFFC
FFFFFC
FFFFFC
ENDCHAR
STARTCHAR 0060
ENCODING 96
SWIDTH 495 0
DWIDTH 22 0
BBX 9 8 7 23
BITMAP
2000
3000
7C00
FE00
FF00
3F80
0F80
0300
ENDCHAR
STARTCHAR 0061
ENCODING 97
SWIDTH 495 0
DWIDTH 22 0
BBX 18 21 2 0
BITMAP
3FFC00
3FFE00
3FFF00
3FFF80
103F80
000F80
000FC0
000FC0
07FFC0
1FFFC0
7FFFC0
7FFFC0
FE0FC0
FC0FC0
F80FC0
FC0FC0
FC0FC0
FFFFC0
7FFFC0
3FFFC0
1FFFC0
ENDCHAR
STARTCHAR 0062
ENCODING 98
SWIDTH 495 0
DWIDTH 22 0
BBX 18 31 3 0
BITMAP
180000
F80000
F80000
F80000
F80000
F80000
F80000
F80000
F80000
F80000
FFF800
FFFE00
FFFF00
FFFF00
FF7F80
F81F80
F80F80
F80FC0
F80FC0
F80FC0
F80FC0
F80FC0
F80FC0
F80FC0
F80F80
F81F80
F87F80
FFFF00
FFFE00
FFFC00
FFF800
ENDCHAR
STARTCHAR 0063
ENCODING 99
SWIDTH 495 0
DWIDTH 22 0
BBX 19 21 2 0
BITMAP
03FFC0
0FFFC0
1FFFC0
3FFFC0
3FE380
7F0000
7E0000
FC0000
FC0000
FC0000
FC0000
FC0000
FC0000
FC0000
7E0000
7F0000
7FE0C0
3FFFC0
1FFFC0
0FFFE0
03FFE0
ENDCHAR
STARTCHAR 0064
ENCODING 100
SWIDTH 495 0
DWIDTH 22 0
BBX 18 31 1 0
BITMAP
0000C0
0007C0
0007C0
0007C0
0007C0
0007C0
0007C0
0007C0
0007C0
0007C0
07F7C0
1FFFC0
3FFFC0
3FFFC0
7FBFC0
7E07C0
7C07C0
FC07C0
FC07C0
FC07C0
FC07C0
FC07C0
FC07C0
FC07C0
7E07C0
7E07C0
7F87C0
3FFFC0
1FFFC0
0FFFC0
07FFC0
ENDCHAR
STARTCHAR 0065
ENCODING 101
SWIDTH 495 0
DWIDTH 22 0
BBX 20 21 1 0
BITMAP
03FE00
0FFF00
1FFF80
1FFFC0
3F8FE0
7E07E0
7E03E0
7C03E0
FC03F0
FFFFF0
FFFFF0
FFFFF0
FC0000
7C0000
7E0000
7F0000
3FC3C0
3FFFC0
1FFFC0
0FFFC0
03FFC0
ENDCHAR
STARTCHAR 0066
ENCODING 102
SWIDTH 495 0
DWIDTH 22 0
BBX 20 31 2 0
BITMAP
001F80
00FFF0
03FFF0
03FFE0
07FFE0
07E060
0FC000
0FC000
0FC000
0FC000
FFFFC0
FFFFC0
FFFFC0
FFFFC0
FFFFC0
0FC000
0FC000
0FC000
0FC000
0FC000
0FC000
0FC000
0FC000
0FC000
0FC000
0FC000
0FC000
0FC000
0FC000
0FC000
0FC000
ENDCHAR
STARTCHAR 0067
ENCODING 103
SWIDTH 495 0
DWIDTH 22 0
BBX 18 28 1 -7
BITMAP
03FF80
0FFFC0
1FFFC0
3FFFC0
3F87C0
7E07C0
7E07C0
7C07C0
FC07C0
FC07C0
FC07C0
7C07C0
7C07C0
7E07C0
7F07C0
3FFFC0
3FFFC0
1FFFC0
0FFFC0
01C7C0
0007C0
0007C0
000FC0
381FC0
7FFF80
7FFF80
7FFE00
3FFC00
ENDCHAR
STARTCHAR 0068
ENCODING 104
SWIDTH 495 0
DWIDTH 22 0
BBX 17 31 3 0
BITMAP
180000
F80000
F80000
F80000
F80000
F80000
F80000
F80000
F80000
F80000
FFF800
FFFC00
FFFE00
FFFF00
FEFF00
F83F00
F81F00
F81F80
F81F80
F81F80
F81F80
F81F80
F81F80
F81F80
F81F80
F81F80
F81F80
F81F80
F81F80
F81F80
F81F80
ENDCHAR
STARTCHAR 0069
ENCODING 105
SWIDTH 495 0
DWIDTH 22 0
BBX 19 30 2 0
BITMAP
07C000
0FC000
0FE000
0FE000
0FC000
07C000
010000
000000
000000
FFE000
FFE000
FFE000
FFE000
FFE000
07E000
07E000
07E000
07E000
07E000
07E000
07E000
07E000
07E000
07E000
03E000
03F0C0
03FFC0
01FFC0
01FFE0
007FC0
ENDCHAR
STARTCHAR 006A
ENCODING 106
SWIDTH 495 0
DWIDTH 22 0
BBX 16 38 2 -8
BITMAP
007C
007E
00FE
00FE
00FE
007C
0018
0000
0000
3FFF
3FFF
3FFF
3FFF
3FFF
003F
003F
003F
003F
003F
003F
003F
003F
003F
003F
003F
003F
003F
003F
003F
003F
003F
203F
7C7E
7FFE
7FFC
FFFC
3FF0
0100
ENDCHAR
STARTCHAR 006B
ENCODING 107
SWIDTH 495 0
DWIDTH 22 0
BBX 18 31 3 0
BITMAP
180000
F80000
F80000
F80000
F80000
F80000
F80000
F80000
F80000
F80000
F81FC0
F83F80
F83F00
F87E00
F8FC00
F8F800
F9F000
FBE000
FFE000
FFC000
FFE000
FBF000
F9F800
F9FC00
F8FC00
F87E00
F83F00
F83F80
F81F80
F80FC0
F80FC0
ENDCHAR
STARTCHAR 006C
ENCODING 108
SWIDTH 495 0
DWIDTH 22 0
BBX 19 31 2 0
BITMAP
FFE000
FFE000
FFE000
FFE000
FFE000
07E000
07E000
07E000
07E000
07E000
07E000
07E000
07E000
07E000
07E000
07E000
07E000
07E000
07E000
07E000
07E000
07E000
07E000
07E000
07E000
03E000
03F9C0
03FFC0
01FFC0
01FFE0
00FFC0
ENDCHAR
STARTCHAR 006D
ENCODING 109
SWIDTH 495 0
DWIDTH 22 0
BBX 20 21 1 0
BITMAP
3F8F80
FFFFC0
FFFFE0
FFFFE0
FBFBF0
F9F1F0
F8F1F0
F8F1F0
F8F1F0
F8F1F0
F8F1F0
F8F1F0
F8F1F0
F801F0
F801F0
F801F0
F801F0
F801F0
F801F0
F801F0
F801F0
ENDCHAR
STARTCHAR 006E
ENCODING 110
SWIDTH 495 0
DWIDTH 22 0
BBX 17 21 3 0
BITMAP
7FF800
FFFC00
FFFE00
FFFF00
FCFF00
F83F00
F81F00
F81F80
F81F80
F81F80
F81F80
F81F80
F81F80
F81F80
F81F80
F81F80
F81F80
F81F80
F81F80
F81F80
F81F80
ENDCHAR
STARTCHAR 006F
ENCODING 111
SWIDTH 495 0
DWIDTH 22 0
BBX 20 22 1 -1
BITMAP
03FC00
0FFF00
1FFF80
3FFFC0
3F9FE0
7E07E0
7E03E0
7C03F0
FC03F0
FC03F0
FC03F0
FC03F0
FC03F0
7C03F0
7E03E0
7E07E0
3F8FE0
3FFFC0
1FFF80
0FFF00
07FE00
006000
ENDCHAR
STARTCHAR 0070
ENCODING 112
SWIDTH 495 0
DWIDTH 22 0
BBX 18 28 3 -7
BITMAP
7FF000
FFFC00
FFFE00
FFFF00
FCFF80
F81F80
F81F80
F80FC0
F80FC0
F80FC0
F80FC0
F80FC0
F80FC0
F80FC0
F80F80
F81F80
FC3F80
FFFF00
FFFF00
FFFE00
FFF800
F80000
F80000
F80000
F80000
F80000
F80000
F80000
ENDCHAR
STARTCHAR 0071
ENCODING 113
SWIDTH 495 0
DWIDTH 22 0
BBX 18 28 1 -7
BITMAP
03FF80
0FFFC0
1FFFC0
3FFFC0
3FC7C0
7F07C0
7E07C0
7C07C0
FC07C0
FC07C0
FC07C0
FC07C0
FC07C0
7C07C0
7E07C0
7E07C0
7F8FC0
3FFFC0
3FFFC0
1FFFC0
07FFC0
0007C0
0007C0
0007C0
0007C0
0007C0
0007C0
0007C0
ENDCHAR
STARTCHAR 0072
ENCODING 114
SWIDTH 495 0
DWIDTH 22 0
BBX 16 21 4 0
BITMAP
1FFF
FFFF
FFFF
FFFF
FFFF
F800
F800
F800
F800
F800
F800
F800
F800
F800
F800
F800
F800
F800
F800
F800
F800
ENDCHAR
STARTCHAR 0073
ENCODING 115
SWIDTH 495 0
DWIDTH 22 0
BBX 18 21 2 0
BITMAP
07FF00
1FFF80
3FFF00
7FFF00
7F0700
7C0000
7E0000
7F0000
7FE000
3FF800
1FFE00
07FF00
01FF80
003F80
000FC0
400FC0
781FC0
7FFF80
7FFF80
FFFF00
3FFC00
ENDCHAR
STARTCHAR 0074
ENCODING 116
SWIDTH 495 0
DWIDTH 22 0
BBX 19 27 2 0
BITMAP
01C000
0FC000
0FC000
0FC000
0FC000
0FC000
FFFFE0
FFFFE0
FFFFE0
FFFFE0
FFFFE0
0FC000
0FC000
0FC000
0FC000
0FC000
0FC000
0FC000
0FC000
0FC000
0FC000
0FC000
07E0C0
07FFE0
07FFE0
03FFE0
01FFE0
ENDCHAR
STARTCHAR 0075
ENCODING 117
SWIDTH 495 0
DWIDTH 22 0
BBX 16 21 3 0
BITMAP
F81F
F81F
F81F
F81F
F81F
F81F
F81F
F81F
F81F
F81F
F81F
F81F
F81F
F81F
F81F
FC1F
FE1F
7FFF
7FFF
3FFF
1FFF
ENDCHAR
STARTCHAR 0076
ENCODING 118
SWIDTH 495 0
DWIDTH 22 0
BBX 20 21 1 0
BITMAP
F801F0
FC01F0
FC03F0
7C03F0
7E03E0
7E07E0
3E07E0
3E07C0
3F0FC0
1F0F80
1F0F80
1F9F80
0F9F00
0FFF00
07FE00
07FE00
07FC00
03FC00
03F800
01F800
01F000
ENDCHAR
STARTCHAR 0077
ENCODING 119
SWIDTH 495 0
DWIDTH 22 0
BBX 21 21 1 0
BITMAP
F000F8
F000F8
F000F8
F000F0
F0F0F0
F0F0F0
F0F8F0
F9F8F0
F9F8F0
F9F8F0
79FDF0
7BFDE0
7BFDE0
7B9DE0
7F9FE0
7F9FE0
3F0FC0
3F0FC0
3F0FC0
3E07C0
3E07C0
ENDCHAR
STARTCHAR 0078
ENCODING 120
SWIDTH 495 0
DWIDTH 22 0
BBX 20 21 1 0
BITMAP
FC03F0
7E03E0
3E07E0
3F0FC0
1F8F80
0F9F80
07FF00
07FE00
03FC00
01FC00
01FC00
03FC00
03FE00
07FF00
0F9F80
1F9F80
1F0FC0
3E07C0
7E07E0
7C03F0
FC03F0
ENDCHAR
STARTCHAR 0079
ENCODING 121
SWIDTH 495 0
DWIDTH 22 0
BBX 20 28 1 -7
BITMAP
7C03F0
7E03F0
7E03E0
3E03E0
3E07E0
3F07C0
3F07C0
1F07C0
1F8FC0
0F8F80
0F8F80
0FCF80
07DF00
07FF00
07FF00
03FE00
03FE00
01FE00
01FC00
00FC00
00F800
01F800
01F000
47F000
7FE000
FFE000
FFC000
FF0000
ENDCHAR
STARTCHAR 007A
ENCODING 122
SWIDTH 495 0
DWIDTH 22 0
BBX 16 21 3 0
BITMAP
FFFF
FFFF
FFFF
FFFF
FFFF
00FE
00FC
01F8
03F0
07F0
07E0
0FC0
1F80
1F80
3F00
7E00
7FFF
FFFF
FFFF
FFFF
FFFF
ENDCHAR
STARTCHAR 007B
ENCODING 123
SWIDTH 495 0
DWIDTH 22 0
BBX 16 38 3 -7
BITMAP
00FF
03FF
03FF
07FF
07E0
07C0
07C0
07C0
07C0
07C0
07C0
07C0
07C0
07C0
07C0
0F80
0F80
FF00
FE00
FE00
FF00
1F80
0F80
07C0
07C0
07C0
07C0
07C0
07C0
07C0
07C0
07C0
07C0
07E0
07FF
03FF
03FF
01FF
ENDCHAR
STARTCHAR 007C
ENCODING 124
SWIDTH 495 0
DWIDTH 22 0
BBX 6 38 8 -7
BITMAP
FC
FC
FC
FC
FC
FC
FC
FC
FC
FC
FC
FC
FC
FC
FC
FC
FC
FC
FC
FC
FC
FC
FC
FC
FC
FC
FC
FC
FC
FC
FC
FC
FC
FC
FC
FC
FC
FC
ENDCHAR
STARTCHAR 007D
ENCODING 125
SWIDTH 495 0
DWIDTH 22 0
BBX 16 38 3 -7
BITMAP
FF00
FFC0
FFE0
FFE0
07E0
03E0
03E0
03E0
03E0
03E0
03E0
03E0
03E0
03E0
03F0
01F0
01F0
00FF
007F
003F
00FF
01F8
01F0
01F0
03E0
03E0
03E0
03E0
03E0
03E0
03E0
03E0
03E0
03E0
FFE0
FFE0
FFC0
FF80
ENDCHAR
STARTCHAR 007E
ENCODING 126
SWIDTH 495 0
DWIDTH 22 0
BBX 21 8 1 8
BITMAP
0F0000
1FC0F8
3FF0F0
7FFFF0
7FFFF0
FDFFE0
F87FC0
701F80
ENDCHAR
STARTCHAR 00A0
ENCODING 160
SWIDTH 495 0
DWIDTH 22 0
BBX 0 0 0 0
BITMAP
ENDCHAR
STARTCHAR 00A1
ENCODING 161
SWIDTH 495 0
DWIDTH 22 0
BBX 8 28 7 -7
BITMAP
18
7E
7F
FF
FF
7F
7E
18
00
00
00
3C
3E
7E
7E
7E
7E
7E
7E
7E
7E
7E
7E
7E
7E
7E
7E
7E
ENDCHAR
STARTCHAR 00A2
ENCODING 162
SWIDTH 495 0
DWIDTH 22 0
BBX 18 31 2 -4
BITMAP
00FC00
00FC00
00FC00
00FC00
00FC00
01FF00
07FFC0
1FFF80
3FFF80
3FFF80
7F0080
7E0000
FC0000
FC0000
FC0000
FC0000
FC0000
FC0000
FC0000
7E0000
7F80C0
3FFFC0
3FFFC0
0FFFC0
07FFC0
00FF00
00FC00
00FC00
00FC00
00FC00
00FC00
ENDCHAR
STARTCHAR 00A3
ENCODING 163
SWIDTH 495 0
DWIDTH 22 0
BBX 18 28 2 0
BITMAP
00FF00
03FFC0
07FF80
07FF80
0FFF80
0FC000
1F8000
1F8000
1F0000
1F0000
1F0000
1F0000
1F0000
FFFE00
FFFE00
FFFE00
FFFE00
1F0000
1F0000
1F0000
1F0000
1F0000
1F0000
1FFFC0
3FFFC0
3FFFC0
3FFFC0
3FFFC0
ENDCHAR
STARTCHAR 00A4
ENCODING 164
SWIDTH 495 0
DWIDTH 22 0
BBX 20 20 1 4
BITMAP
100000
3801C0
7C73E0
FFFFF0
FFFFF0
3FFFE0
1FFFC0
3F0FC0
3E07C0
3E07C0
3E07C0
3E07C0
3F07C0
1F9FC0
3FFFC0
7FFFE0
FFFFF0
7DFBE0
3801C0
100080
ENDCHAR
STARTCHAR 00A5
ENCODING 165
SWIDTH 495 0
DWIDTH 22 0
BBX 21 28 1 0
BITMAP
F801F8
FC01F0
FC03F0
7C03E0
7E03E0
3E07E0
3F07C0
1F0FC0
1F0F80
0F8F80
0F9F00
07DF00
07FE00
7FFFE0
7FFFE0
7FFFE0
7FFFE0
01F800
01F800
01F800
7FFFE0
7FFFE0
7FFFE0
01F800
01F800
01F800
01F800
01F800
ENDCHAR
STARTCHAR 00A6
ENCODING 166
SWIDTH 495 0
DWIDTH 22 0
BBX 6 38 8 -7
BITMAP
FC
FC
FC
FC
FC
FC
FC
FC
FC
FC
FC
FC
FC
FC
FC
FC
00
00
00
00
00
00
00
FC
FC
FC
FC
FC
FC
FC
FC
FC
FC
FC
FC
FC
FC
FC
ENDCHAR
STARTCHAR 00A7
ENCODING 167
SWIDTH 495 0
DWIDTH 22 0
BBX 18 32 2 -4
BITMAP
03FE00
0FFF80
1FFF80
3FFF80
3FFF00
3F0000
3E0000
3F0000
3FC000
1FF800
1FFE00
3FFF00
3EFF80
7C3FC0
780FC0
F807C0
F807C0
7C07C0
7F0F80
7FCF80
3FFF00
0FFE00
03FF00
00FF80
001F80
000F80
001F80
7C3F80
7FFF80
7FFF00
FFFF00
3FFC00
ENDCHAR
STARTCHAR 00A8
ENCODING 168
SWIDTH 495 0
DWIDTH 22 0
BBX 15 6 4 24
BITMAP
7038
F87C
FC7E
FC7E
FC7C
7838
ENDCHAR
STARTCHAR 00A9
ENCODING 169
SWIDTH 495 0
DWIDTH 22 0
BBX 20 22 1 -1
BITMAP
01FC00
07FF00
1FFF80
3E07C0
3C01E0
7878E0
71F8F0
F3F870
E38070
E70070
E70070
E70070
E38070
E3C870
73F8F0
71F8E0
7801E0
3C03C0
1F0F80
0FFF00
07FE00
007000
ENDCHAR
STARTCHAR 00AA
ENCODING 170
SWIDTH 495 0
DWIDTH 22 0
BBX 13 16 5 12
BITMAP
3FC0
7FF0
7FF0
3FF8
00F8
0078
1FF8
7FF8
FFF8
F878
F078
F078
FFF8
FFF8
7FF8
1FC0
ENDCHAR
STARTCHAR 00AB
ENCODING 171
SWIDTH 495 0
DWIDTH 22 0
BBX 18 18 2 3
BITMAP
030380
0783C0
0F0780
0F0F80
1E0F00
3E1F00
3C1E00
7C3E00
F87C00
783C00
7C3E00
3E1E00
1E0F00
1F0F80
0F0780
0783C0
078380
020100
ENDCHAR
STARTCHAR 00AC
ENCODING 172
SWIDTH 495 0
DWIDTH 22 0
BBX 18 14 2 2
BITMAP
FFFFC0
FFFFC0
FFFFC0
FFFFC0
0007C0
0007C0
0007C0
0007C0
0007C0
0007C0
0007C0
0007C0
0007C0
0007C0
ENDCHAR
STARTCHAR 00AD
ENCODING 173
SWIDTH 495 0
DWIDTH 22 0
BBX 12 5 5 9
BITMAP
FFF0
FFF0
FFF0
FFF0
FFF0
ENDCHAR
STARTCHAR 00AE
ENCODING 174
SWIDTH 495 0
DWIDTH 22 0
BBX 20 22 1 -1
BITMAP
01FC00
07FF00
1FFF80
3E07C0
3C01E0
7BF0E0
73FCF0
F3BC70
E38C70
E38C70
E3FC70
E3F870
E3F870
E39870
739CF0
738EE0
7801E0
3C03C0
1F0F80
0FFF00
07FE00
007000
ENDCHAR
STARTCHAR 00AF
ENCODING 175
SWIDTH 495 0
DWIDTH 22 0
BBX 13 4 5 25
BITMAP
FFF8
FFF8
FFF8
FFF8
ENDCHAR
STARTCHAR 00B0
ENCODING 176
SWIDTH 495 0
DWIDTH 22 0
BBX 13 12 5 19
BITMAP
1F80
3FE0
7FF0
FFF0
F0F0
F078
F078
F0F0
FDF0
7FF0
7FE0
1FC0
ENDCHAR
STARTCHAR 00B1
ENCODING 177
SWIDTH 495 0
DWIDTH 22 0
BBX 18 25 2 0
BITMAP
01E000
01E000
01E000
01E000
01E000
01E000
01E000
FFFFC0
FFFFC0
FFFFC0
FFFFC0
FFFFC0
01E000
01E000
01E000
01E000
01E000
01E000
01E000
000000
FFFFC0
FFFFC0
FFFFC0
FFFFC0
FFFFC0
ENDCHAR
STARTCHAR 00B2
ENCODING 178
SWIDTH 495 0
DWIDTH 22 0
BBX 12 16 5 12
BITMAP
1F80
7FE0
FFE0
7FF0
21F0
01F0
01E0
03E0
0FC0
1F80
3F00
3E00
7FF0
7FF0
7FF0
7FF0
ENDCHAR
STARTCHAR 00B3
ENCODING 179
SWIDTH 495 0
DWIDTH 22 0
BBX 12 16 5 12
BITMAP
3F80
FFC0
7FE0
7FE0
01E0
01E0
1FE0
1FC0
1FE0
1FF0
00F0
00F0
73F0
FFF0
FFE0
7F80
ENDCHAR
STARTCHAR 00B4
ENCODING 180
SWIDTH 495 0
DWIDTH 22 0
BBX 9 8 7 23
BITMAP
0200
0700
0F00
3F80
7F80
FE00
7800
6000
ENDCHAR
STARTCHAR 00B5
ENCODING 181
SWIDTH 495 0
DWIDTH 22 0
BBX 16 28 3 -7
BITMAP
F81F
F81F
F81F
F81F
F81F
F81F
F81F
F81F
F81F
F81F
F81F
F81F
F81F
F81F
F81F
FC1F
FE1F
FFFF
FFFF
FFFF
FFFF
F800
F800
F800
F800
F800
F800
F800
ENDCHAR
STARTCHAR 00B6
ENCODING 182
SWIDTH 495 0
DWIDTH 22 0
BBX 19 35 1 -7
BITMAP
00FF00
0FFFE0
1FFFE0
3FFFE0
7FFFE0
7FE1E0
FFE1E0
FFE1E0
FFE1E0
FFE1E0
FFE1E0
FFE1E0
FFE1E0
7FE1E0
7FE1E0
3FE1E0
1FE1E0
03E1E0
01E1E0
01E1E0
01E1E0
01E1E0
01E1E0
01E1E0
01E1E0
01E1E0
01E1E0
01E1E0
01E1E0
01E1E0
01E1E0
01E1E0
01E1E0
01E1E0
01E1E0
ENDCHAR
STARTCHAR 00B7
ENCODING 183
SWIDTH 495 0
DWIDTH 22 0
BBX 8 8 7 8
BITMAP
18
7E
7F
FF
FF
FF
7F
3C
ENDCHAR
STARTCHAR 00B8
ENCODING 184
SWIDTH 495 0
DWIDTH 22 0
BBX 9 9 7 -8
BITMAP
1E00
1E00
1E00
0F00
0780
4F80
FF80
FF00
1000
ENDCHAR
STARTCHAR 00B9
ENCODING 185
SWIDTH 495 0
DWIDTH 22 0
BBX 13 16 6 12
BITMAP
0780
0F80
3F80
FF80
FF80
F780
4780
0780
0780
0780
0780
0780
FFF8
FFF8
FFF8
FFF8
ENDCHAR
STARTCHAR 00BA
ENCODING 186
SWIDTH 495 0
DWIDTH 22 0
BBX 16 16 3 12
BITMAP
07E0
1FF8
3FFC
7FFE
7C3E
781F
F81F
F81F
F81F
F81F
781E
7E3E
7FFE
3FFC
1FF8
03E0
ENDCHAR
STARTCHAR 00BB
ENCODING 187
SWIDTH 495 0
DWIDTH 22 0
BBX 18 18 2 3
BITMAP
703800
F07800
783C00
7C3E00
3C1E00
1E1F00
1F0F80
0F0780
0F87C0
0F87C0
1F0F80
1E0F00
3E1F00
3C1E00
783C00
787C00
703800
201000
ENDCHAR
STARTCHAR 00BC
ENCODING 188
SWIDTH 495 0
DWIDTH 22 0
BBX 22 28 0 0
BITMAP
0701F0
1F01E0
3F03E0
FF03C0
FF07C0
4F0780
0F0F80
0F0F00
0F1F00
0F1E00
0F3E00
003C00
007C00
007800
00F800
00F000
01F000
01E1F0
03E1F0
03C3F0
07C770
078770
0F8E70
0F0FFC
1F1FFC
1E1FFC
3E0070
3C0070
ENDCHAR
STARTCHAR 00BD
ENCODING 189
SWIDTH 495 0
DWIDTH 22 0
BBX 22 28 0 0
BITMAP
0701F0
1F01E0
3F03E0
FF03C0
FF07C0
4F0780
0F0F80
0F0F00
0F1F00
0F1E00
0F3E00
003C00
007C00
007800
00F800
00F000
01F000
01E7F0
03EFF8
03C7FC
07C23C
078078
0F80F8
0F01F0
1F07C0
1E07FC
3E0FFC
3C0FFC
ENDCHAR
STARTCHAR 00BE
ENCODING 190
SWIDTH 495 0
DWIDTH 22 0
BBX 21 28 1 0
BITMAP
7E01F0
FF01E0
FF83E0
0783C0
3F07C0
3F0780
3F8F80
078F00
879F00
FF9E00
FF3E00
7C3C00
007C00
007800
00F800
00F000
01F000
01E3E0
03E3E0
03C7E0
078EE0
0F8EE0
0F1CE0
1F1FF8
1E3FF8
3E3FF8
3C00E0
7C00E0
ENDCHAR
STARTCHAR 00BF
ENCODING 191
SWIDTH 495 0
DWIDTH 22 0
BBX 16 29 3 -8
BITMAP
00C0
03F0
03F8
07F8
07F8
03F8
03F0
00C0
0000
0000
0000
01F0
01F0
03F0
07E0
0FE0
1FC0
3F80
7F00
FE00
FC00
FC00
FC02
FE0E
7FFF
7FFF
3FFF
1FFC
0080
ENDCHAR
STARTCHAR 00C0
ENCODING 192
SWIDTH 495 0
DWIDTH 22 0
BBX 21 37 1 0
BITMAP
010000
01C000
03E000
03F800
07FC00
01FC00
003C00
000800
000000
01F800
01F800
01FC00
03FC00
03FC00
03FE00
07FE00
07DE00
079F00
0F9F00
0F9F00
0F8F80
0F0F80
1F0F80
1F0F80
1F0FC0
3E07C0
3FFFC0
3FFFC0
3FFFE0
7FFFE0
7FFFE0
7C03E0
FC03F0
FC03F0
FC03F0
F801F0
F801F8
ENDCHAR
STARTCHAR 00C1
ENCODING 193
SWIDTH 495 0
DWIDTH 22 0
BBX 21 37 1 0
BITMAP
000800
003800
007C00
01FC00
03FE00
03F000
03C000
010000
000000
01F800
01F800
01FC00
03FC00
03FC00
03FE00
07FE00
07DE00
079F00
0F9F00
0F9F00
0F8F80
0F0F80
1F0F80
1F0F80
1F0FC0
3E07C0
3FFFC0
3FFFC0
3FFFE0
7FFFE0
7FFFE0
7C03E0
FC03F0
FC03F0
FC03F0
F801F0
F801F8
ENDCHAR
STARTCHAR 00C2
ENCODING 194
SWIDTH 495 0
DWIDTH 22 0
BBX 21 37 1 0
BITMAP
002000
007000
01F800
03FC00
07FE00
0FDF00
070F00
020600
000000
01F800
01F800
01FC00
03FC00
03FC00
03FE00
07FE00
07DE00
079F00
0F9F00
0F9F00
0F8F80
0F0F80
1F0F80
1F0F80
1F0FC0
3E07C0
3FFFC0
3FFFC0
3FFFE0
7FFFE0
7FFFE0
7C03E0
FC03F0
FC03F0
FC03F0
F801F0
F801F8
ENDCHAR
STARTCHAR 00C3
ENCODING 195
SWIDTH 495 0
DWIDTH 22 0
BBX 21 36 1 0
BITMAP
018300
07F780
0FFF80
1FFF00
1EFF00
041C00
000000
000000
01F800
01F800
01FC00
03FC00
03FC00
03FE00
07FE00
07DE00
079F00
0F9F00
0F9F00
0F8F80
0F0F80
1F0F80
1F0F80
1F0FC0
3E07C0
3FFFC0
3FFFC0
3FFFE0
7FFFE0
7FFFE0
7C03E0
FC03F0
FC03F0
FC03F0
F801F0
F801F8
ENDCHAR
STARTCHAR 00C4
ENCODING 196
SWIDTH 495 0
DWIDTH 22 0
BBX 21 36 1 0
BITMAP
0F0700
1F8F80
1F8FC0
1F8FC0
1F0F80
0E0700
000000
000000
01F800
01F800
01FC00
03FC00
03FC00
03FE00
07FE00
07DE00
079F00
0F9F00
0F9F00
0F8F80
0F0F80
1F0F80
1F0F80
1F0FC0
3E07C0
3FFFC0
3FFFC0
3FFFE0
7FFFE0
7FFFE0
7C03E0
FC03F0
FC03F0
FC03F0
F801F0
F801F8
ENDCHAR
STARTCHAR 00C5
ENCODING 197
SWIDTH 495 0
DWIDTH 22 0
BBX 21 35 1 0
BITMAP
00F000
03FC00
03FC00
038E00
070E00
070E00
03FC00
03FC00
01F800
01FC00
03FC00
03FC00
03FE00
07FE00
07DE00
079F00
0F9F00
0F9F00
0F8F80
0F0F80
1F0F80
1F0F80
1F0FC0
3E07C0
3FFFC0
3FFFC0
3FFFE0
7FFFE0
7FFFE0
7C03E0
7C03F0
FC03F0
FC03F0
F801F0
F801F8
ENDCHAR
STARTCHAR 00C6
ENCODING 198
SWIDTH 495 0
DWIDTH 22 0
BBX 21 28 1 0
BITMAP
00FFF0
01FFF0
01FFF0
01FFF0
03FFF0
03FE00
03FE00
07FE00
07BE00
07BE00
0FBE00
0FBFE0
0F3FE0
1F3FE0
1F3FE0
1F3FE0
3E3E00
3FFE00
3FFE00
3FFE00
7FFE00
7FFE00
7C3E00
7C3FF8
FC3FF8
FC3FF8
F83FF8
F83FF8
ENDCHAR
STARTCHAR 00C7
ENCODING 199
SWIDTH 495 0
DWIDTH 22 0
BBX 20 36 1 -8
BITMAP
007F80
03FFE0
07FFF0
0FFFE0
1FFFE0
3F8060
3F0000
7E0000
7E0000
7C0000
FC0000
FC0000
FC0000
FC0000
FC0000
FC0000
FC0000
FC0000
7C0000
7E0000
7E0000
7F0000
3F0020
3FC1E0
1FFFE0
0FFFE0
07FFF0
01FFC0
007800
007800
003C00
001E00
013E00
03FE00
03FC00
004000
ENDCHAR
STARTCHAR 00C8
ENCODING 200
SWIDTH 495 0
DWIDTH 22 0
BBX 17 37 3 0
BITMAP
040000
070000
0F8000
0FE000
1FF000
07F000
00F000
002000
000000
FFFF00
FFFF00
FFFF00
FFFF00
FFFF00
F80000
F80000
F80000
F80000
F80000
F80000
FFFE00
FFFE00
FFFE00
FFFE00
FFFE00
F80000
F80000
F80000
F80000
F80000
F80000
F80000
FFFF80
FFFF80
FFFF80
FFFF80
FFFF80
ENDCHAR
STARTCHAR 00C9
ENCODING 201
SWIDTH 495 0
DWIDTH 22 0
BBX 17 37 3 0
BITMAP
002000
00E000
01F000
07F000
0FF800
0FC000
0F0000
040000
000000
FFFF00
FFFF00
FFFF00
FFFF00
FFFF00
F80000
F80000
F80000
F80000
F80000
F80000
FFFE00
FFFE00
FFFE00
FFFE00
FFFE00
F80000
F80000
F80000
F80000
F80000
F80000
F80000
FFFF80
FFFF80
FFFF80
FFFF80
FFFF80
ENDCHAR
STARTCHAR 00CA
ENCODING 202
SWIDTH 495 0
DWIDTH 22 0
BBX 17 37 3 0
BITMAP
008000
01C000
07E000
0FF000
1FF800
3F7C00
1C3C00
081800
000000
FFFF00
FFFF00
FFFF00
FFFF00
FFFF00
F80000
F80000
F80000
F80000
F80000
F80000
FFFE00
FFFE00
FFFE00
FFFE00
FFFE00
F80000
F80000
F80000
F80000
F80000
F80000
F80000
FFFF80
FFFF80
FFFF80
FFFF80
FFFF80
ENDCHAR
STARTCHAR 00CB
ENCODING 203
SWIDTH 495 0
DWIDTH 22 0
BBX 17 36 3 0
BITMAP
3C1C00
7E3E00
7E3F00
7E3F00
7C3E00
381C00
000000
000000
FFFF00
FFFF00
FFFF00
FFFF00
FFFF00
F80000
F80000
F80000
F80000
F80000
F80000
FFFE00
FFFE00
FFFE00
FFFE00
FFFE00
F80000
F80000
F80000
F80000
F80000
F80000
F80000
FFFF80
FFFF80
FFFF80
FFFF80
FFFF80
ENDCHAR
STARTCHAR 00CC
ENCODING 204
SWIDTH 495 0
DWIDTH 22 0
BBX 18 37 2 0
BITMAP
020000
038000
07C000
07F000
0FF800
03F800
007800
001000
000000
FFFFC0
FFFFC0
FFFFC0
FFFFC0
FFFFC0
03F000
03F000
03F000
03F000
03F000
03F000
03F000
03F000
03F000
03F000
03F000
03F000
03F000
03F000
03F000
03F000
03F000
03F000
FFFFC0
FFFFC0
FFFFC0
FFFFC0
FFFFC0
ENDCHAR
STARTCHAR 00CD
ENCODING 205
SWIDTH 495 0
DWIDTH 22 0
BBX 18 37 2 0
BITMAP
001000
007000
00F800
03F800
07FC00
07E000
078000
020000
000000
FFFFC0
FFFFC0
FFFFC0
FFFFC0
FFFFC0
03F000
03F000
03F000
03F000
03F000
03F000
03F000
03F000
03F000
03F000
03F000
03F000
03F000
03F000
03F000
03F000
03F000
03F000
FFFFC0
FFFFC0
FFFFC0
FFFFC0
FFFFC0
ENDCHAR
STARTCHAR 00CE
ENCODING 206
SWIDTH 495 0
DWIDTH 22 0
BBX 18 37 2 0
BITMAP
004000
00E000
03F000
07F800
0FFC00
1FBE00
0E1E00
040C00
000000
FFFFC0
FFFFC0
FFFFC0
FFFFC0
FFFFC0
03F000
03F000
03F000
03F000
03F000
03F000
03F000
03F000
03F000
03F000
03F000
03F000
03F000
03F000
03F000
03F000
03F000
03F000
FFFFC0
FFFFC0
FFFFC0
FFFFC0
FFFFC0
ENDCHAR
STARTCHAR 00CF
ENCODING 207
SWIDTH 495 0
DWIDTH 22 0
BBX 18 36 2 0
BITMAP
1E0E00
3F1F00
3F1F80
3F1F80
3E1F00
1C0E00
000000
000000
FFFFC0
FFFFC0
FFFFC0
FFFFC0
FFFFC0
03F000
03F000
03F000
03F000
03F000
03F000
03F000
03F000
03F000
03F000
03F000
03F000
03F000
03F000
03F000
03F000
03F000
03F000
FFFFC0
FFFFC0
FFFFC0
FFFFC0
FFFFC0
ENDCHAR
STARTCHAR 00D0
ENCODING 208
SWIDTH 495 0
DWIDTH 22 0
BBX 20 28 1 0
BITMAP
0FF000
3FFC00
3FFF00
3FFF80
3FFFC0
3F1FC0
3F07E0
3F07E0
3F03E0
3F03F0
3F03F0
FFE3F0
FFE3F0
FFE3F0
FFE3F0
FFE3F0
3F03F0
3F03F0
3F03F0
3F03E0
3F07E0
3F07E0
3F0FC0
3F7FC0
3FFF80
3FFF00
3FFE00
3FF800
ENDCHAR
STARTCHAR 00D1
ENCODING 209
SWIDTH 495 0
DWIDTH 22 0
BBX 18 36 2 0
BITMAP
030600
0FEF00
1FFF00
3FFE00
3DFE00
083800
000000
000000
F007C0
F807C0
FC07C0
FC07C0
FE07C0
FE07C0
FF07C0
FF07C0
FF87C0
FF87C0
FFC7C0
FBC7C0
FBE7C0
F9E7C0
F8F7C0
F8F7C0
F87FC0
F87FC0
F83FC0
F83FC0
F83FC0
F81FC0
F81FC0
F80FC0
F80FC0
F807C0
F807C0
F803C0
ENDCHAR
STARTCHAR 00D2
ENCODING 210
SWIDTH 495 0
DWIDTH 22 0
BBX 20 38 1 -1
BITMAP
010000
01C000
03E000
03F800
07FC00
01FC00
003C00
000800
000000
01FC00
07FF00
0FFF80
1FFF80
3FFFC0
3F0FE0
7E07E0
7E03E0
7C03E0
7C03F0
FC03F0
FC03F0
FC03F0
FC03F0
FC03F0
FC03F0
FC03F0
FC03F0
FC03F0
7C03F0
7C03E0
7E07E0
7E07E0
3F8FC0
3FFFC0
1FFF80
0FFF00
03FE00
007000
ENDCHAR
STARTCHAR 00D3
ENCODING 211
SWIDTH 495 0
DWIDTH 22 0
BBX 20 38 1 -1
BITMAP
000800
003800
007C00
01FC00
03FE00
03F000
03C000
010000
000000
01FC00
07FF00
0FFF80
1FFF80
3FFFC0
3F0FE0
7E07E0
7E03E0
7C03E0
7C03F0
FC03F0
FC03F0
FC03F0
FC03F0
FC03F0
FC03F0
FC03F0
FC03F0
FC03F0
7C03F0
7C03E0
7E07E0
7E07E0
3F8FC0
3FFFC0
1FFF80
0FFF00
03FE00
007000
ENDCHAR
STARTCHAR 00D4
ENCODING 212
SWIDTH 495 0
DWIDTH 22 0
BBX 20 38 1 -1
BITMAP
002000
007000
01F800
03FC00
07FE00
0FDF00
070F00
020600
000000
01FC00
07FF00
0FFF80
1FFF80
3FFFC0
3F0FE0
7E07E0
7E03E0
7C03E0
7C03F0
FC03F0
FC03F0
FC03F0
FC03F0
FC03F0
FC03F0
FC03F0
FC03F0
FC03F0
7C03F0
7C03E0
7E07E0
7E07E0
3F8FC0
3FFFC0
1FFF80
0FFF00
03FE00
007000
ENDCHAR
STARTCHAR 00D5
ENCODING 213
SWIDTH 495 0
DWIDTH 22 0
BBX 20 37 1 -1
BITMAP
018300
07F780
0FFF80
1FFF00
1EFF00
041C00
000000
000000
01FC00
07FF00
0FFF80
1FFF80
3FFFC0
3F0FE0
7E07E0
7E03E0
7C03E0
7C03F0
FC03F0
FC03F0
FC03F0
FC03F0
FC03F0
FC03F0
FC03F0
FC03F0
FC03F0
7C03F0
7C03E0
7E07E0
7E07E0
3F8FC0
3FFFC0
1FFF80
0FFF00
03FE00
007000
ENDCHAR
STARTCHAR 00D6
ENCODING 214
SWIDTH 495 0
DWIDTH 22 0
BBX 20 37 1 -1
BITMAP
0F0700
1F8F80
1F8FC0
1F8FC0
1F0F80
0E0700
000000
000000
01FC00
07FF00
0FFF80
1FFF80
3FFFC0
3F0FE0
7E07E0
7E03E0
7C03E0
7C03F0
FC03F0
FC03F0
FC03F0
FC03F0
FC03F0
FC03F0
FC03F0
FC03F0
FC03F0
7C03F0
7C03E0
7E07E0
7E07E0
3F8FC0
3FFFC0
1FFF80
0FFF00
03FE00
007000
ENDCHAR
STARTCHAR 00D7
ENCODING 215
SWIDTH 495 0
DWIDTH 22 0
BBX 17 17 3 3
BITMAP
300600
780F00
FC1F80
FE3F00
7F7E00
3FFC00
1FF800
0FF000
07F000
0FF800
1FFC00
3FFE00
7E7F00
FC3F80
F81F00
700E00
200400
ENDCHAR
STARTCHAR 00D8
ENCODING 216
SWIDTH 495 0
DWIDTH 22 0
BBX 20 31 1 -2
BITMAP
000180
01FFE0
07FFC0
0FFFC0
1FFF80
3FFFC0
3F0FE0
7E0FE0
7E1FE0
7C1FE0
7C3FF0
FC3FF0
FC7FF0
FC7BF0
FCFBF0
FCF3F0
FDF3F0
FDE3F0
FFE3F0
FFC3F0
7FC3F0
7F83E0
7F87E0
7F07E0
3F0FC0
3FFFC0
3FFF80
3FFF00
7FFE00
387000
080000
ENDCHAR
STARTCHAR 00D9
ENCODING 217
SWIDTH 495 0
DWIDTH 22 0
BBX 18 38 2 -1
BITMAP
020000
070000
07C000
0FE000
0FF800
03F800
00F000
003000
000000
F807C0
F807C0
F807C0
F807C0
F807C0
F807C0
F807C0
F807C0
F807C0
F807C0
F807C0
F807C0
F807C0
F807C0
F807C0
F807C0
F807C0
F807C0
F807C0
F807C0
F807C0
FC07C0
FC0FC0
FE1FC0
7FFF80
3FFF80
3FFF00
0FFC00
00C000
ENDCHAR
STARTCHAR 00DA
ENCODING 218
SWIDTH 495 0
DWIDTH 22 0
BBX 18 38 2 -1
BITMAP
001000
003800
007C00
01FC00
03FC00
07F000
03C000
010000
000000
F807C0
F807C0
F807C0
F807C0
F807C0
F807C0
F807C0
F807C0
F807C0
F807C0
F807C0
F807C0
F807C0
F807C0
F807C0
F807C0
F807C0
F807C0
F807C0
F807C0
F807C0
FC07C0
FC0FC0
FE1FC0
7FFF80
3FFF80
3FFF00
0FFC00
00C000
ENDCHAR
STARTCHAR 00DB
ENCODING 219
SWIDTH 495 0
DWIDTH 22 0
BBX 18 38 2 -1
BITMAP
004000
00E000
03F000
07F800
0FFC00
1FBE00
0E1E00
040C00
000000
F807C0
F807C0
F807C0
F807C0
F807C0
F807C0
F807C0
F807C0
F807C0
F807C0
F807C0
F807C0
F807C0
F807C0
F807C0
F807C0
F807C0
F807C0
F807C0
F807C0
F807C0
FC07C0
FC0FC0
FE1FC0
7FFF80
3FFF80
3FFF00
0FFC00
00C000
ENDCHAR
STARTCHAR 00DC
ENCODING 220
SWIDTH 495 0
DWIDTH 22 0
BBX 18 37 2 -1
BITMAP
1E0E00
3F1F00
3F1F80
3F1F80
3E1F00
1C0E00
000000
000000
F807C0
F807C0
F807C0
F807C0
F807C0
F807C0
F807C0
F807C0
F807C0
F807C0
F807C0
F807C0
F807C0
F807C0
F807C0
F807C0
F807C0
F807C0
F807C0
F807C0
F807C0
FC07C0
FC0FC0
FE1FC0
7FFF80
3FFF80
3FFF00
0FFC00
00C000
ENDCHAR
STARTCHAR 00DD
ENCODING 221
SWIDTH 495 0
DWIDTH 22 0
BBX 21 37 1 0
BITMAP
000800
001C00
003E00
00FE00
01FE00
03F800
01E000
008000
000000
F801F8
FC01F0
FC03F0
7C03F0
7E03E0
3E07E0
3F07C0
3F07C0
1F0F80
1F8F80
0F9F80
0FDF00
07DF00
07FE00
03FE00
03FC00
01F800
01F800
01F800
01F800
01F800
01F800
01F800
01F800
01F800
01F800
01F800
01F800
ENDCHAR
STARTCHAR 00DE
ENCODING 222
SWIDTH 495 0
DWIDTH 22 0
BBX 19 28 2 0
BITMAP
FC0000
FC0000
FC0000
FC0000
FFC000
FFFC00
FFFF00
FFFF80
FFFFC0
FC1FC0
FC0FE0
FC07E0
FC07E0
FC07E0
FC07E0
FC07E0
FC0FE0
FC1FC0
FFFFC0
FFFF80
FFFF00
FFFE00
FFF000
FC0000
FC0000
FC0000
FC0000
FC0000
ENDCHAR
STARTCHAR 00DF
ENCODING 223
SWIDTH 495 0
DWIDTH 22 0
BBX 21 31 1 0
BITMAP
03F000
0FFC00
1FFF00
3FFF00
7FFF80
7E1F80
7C0F80
7C0F80
FC0F80
FC0F80
FC1F00
FC3F00
FC3E00
FC7E00
FC7C00
FC7C00
FC7C00
FC7E00
FC7F80
FC3FC0
FC1FE0
FC07F0
FC03F8
FC01F8
FC01F8
FC01F8
FC63F8
FC7FF0
FCFFF0
FCFFE0
FCFFC0
ENDCHAR
STARTCHAR 00E0
ENCODING 224
SWIDTH 495 0
DWIDTH 22 0
BBX 18 30 2 1
BITMAP
030000
07C000
07E000
0FF800
03FC00
00F800
003000
000000
000000
3FFC00
3FFE00
3FFF00
3FFF80
103F80
000F80
000FC0
000FC0
07FFC0
1FFFC0
7FFFC0
7FFFC0
FE0FC0
FC0FC0
F80FC0
FC0FC0
FC0FC0
FFFFC0
7FFFC0
3FFFC0
1FFFC0
ENDCHAR
STARTCHAR 00E1
ENCODING 225
SWIDTH 495 0
DWIDTH 22 0
BBX 18 31 2 0
BITMAP
001000
003800
007800
01FC00
03FC00
07F000
03C000
030000
000000
000000
3FFC00
3FFE00
3FFF00
3FFF80
103F80
000F80
000FC0
000FC0
07FFC0
1FFFC0
7FFFC0
7FFFC0
FE0FC0
FC0FC0
F80FC0
FC0FC0
FC0FC0
FFFFC0
7FFFC0
3FFFC0
1FFFC0
ENDCHAR
STARTCHAR 00E2
ENCODING 226
SWIDTH 495 0
DWIDTH 22 0
BBX 18 30 2 1
BITMAP
00E000
01F000
03F800
0FFC00
1FFE00
0F1E00
040C00
000000
000000
3FFC00
3FFE00
3FFF00
3FFF80
103F80
000F80
000FC0
000FC0
07FFC0
1FFFC0
7FFFC0
7FFFC0
FE0FC0
FC0FC0
F80FC0
FC0FC0
FC0FC0
FFFFC0
7FFFC0
3FFFC0
1FFFC0
ENDCHAR
STARTCHAR 00E3
ENCODING 227
SWIDTH 495 0
DWIDTH 22 0
BBX 18 30 2 0
BITMAP
020000
0FCF00
1FFF00
3FFF00
3FFE00
183800
000000
000000
000000
3FFC00
3FFE00
3FFF00
3FFF80
103F80
000F80
000FC0
000FC0
07FFC0
1FFFC0
7FFFC0
7FFFC0
FE0FC0
FC0FC0
F80FC0
FC0FC0
FC0FC0
FFFFC0
7FFFC0
3FFFC0
1FFFC0
ENDCHAR
STARTCHAR 00E4
ENCODING 228
SWIDTH 495 0
DWIDTH 22 0
BBX 18 30 2 0
BITMAP
1C0E00
3E1F00
3F1F80
3F1F80
3F1F00
1E0E00
000000
000000
000000
3FFC00
3FFE00
3FFF00
3FFF80
103F80
000F80
000FC0
000FC0
07FFC0
1FFFC0
7FFFC0
7FFFC0
FE0FC0
FC0FC0
F80FC0
FC0FC0
FC0FC0
FFFFC0
7FFFC0
3FFFC0
1FFFC0
ENDCHAR
STARTCHAR 00E5
ENCODING 229
SWIDTH 495 0
DWIDTH 22 0
BBX 18 31 2 0
BITMAP
03F000
07F800
07BC00
0E1C00
0E1C00
073C00
07F800
03F000
00E000
000000
3FFC00
3FFE00
3FFF00
3FFF80
103F80
000F80
000FC0
000FC0
07FFC0
1FFFC0
7FFFC0
7FFFC0
FE0FC0
FC0FC0
F80FC0
FC0FC0
FC0FC0
FFFFC0
7FFFC0
3FFFC0
1FFFC0
ENDCHAR
STARTCHAR 00E6
ENCODING 230
SWIDTH 495 0
DWIDTH 22 0
BBX 21 21 1 0
BITMAP
3F8FC0
3FFFE0
3FFFE0
3FFFF0
21FCF0
00F8F0
00F8F0
00F878
0FF878
3FFFF8
7FFFF8
7FFFF8
F8F800
F0F800
F07800
F07C00
F87E20
7FFFE0
7FFFF0
3FFFF0
1FCFF0
ENDCHAR
STARTCHAR 00E7
ENCODING 231
SWIDTH 495 0
DWIDTH 22 0
BBX 19 29 2 -8
BITMAP
03FFC0
0FFFC0
1FFFC0
3FFFC0
3FE380
7F0000
7E0000
FC0000
FC0000
FC0000
FC0000
FC0000
FC0000
FC0000
FE0000
7F0000
7FE0C0
3FFFC0
1FFFC0
0FFFE0
03FFE0
00F000
00F000
007800
003C00
027C00
07FC00
07F800
008000
ENDCHAR
STARTCHAR 00E8
ENCODING 232
SWIDTH 495 0
DWIDTH 22 0
BBX 20 30 1 1
BITMAP
018000
03E000
03F000
07FC00
01FE00
007C00
001800
000000
000000
03FE00
0FFF00
1FFF80
1FFFC0
3F8FE0
7E07E0
7E03E0
7C03E0
FC03F0
FFFFF0
FFFFF0
FFFFF0
FC0000
7C0000
7E0000
7F0000
3FC3C0
3FFFC0
1FFFC0
0FFFC0
03FFC0
ENDCHAR
STARTCHAR 00E9
ENCODING 233
SWIDTH 495 0
DWIDTH 22 0
BBX 20 30 1 1
BITMAP
001C00
003E00
007E00
01FF00
03FC00
01F000
00C000
000000
000000
03FE00
0FFF00
1FFF80
1FFFC0
3F8FE0
7E07E0
7E03E0
7C03E0
FC03F0
FFFFF0
FFFFF0
FFFFF0
FC0000
7C0000
7E0000
7F0000
3FC3C0
3FFFC0
1FFFC0
0FFFC0
03FFC0
ENDCHAR
STARTCHAR 00EA
ENCODING 234
SWIDTH 495 0
DWIDTH 22 0
BBX 20 31 1 0
BITMAP
002000
007000
00F800
01FC00
03FE00
0FDF00
078F00
030600
000000
000000
03FE00
0FFF00
1FFF80
1FFFC0
3F8FE0
7E07E0
7E03E0
7C03E0
FC03F0
FFFFF0
FFFFF0
FFFFF0
FC0000
7C0000
7E0000
7F0000
3FC3C0
3FFFC0
1FFFC0
0FFFC0
03FFC0
ENDCHAR
STARTCHAR 00EB
ENCODING 235
SWIDTH 495 0
DWIDTH 22 0
BBX 20 30 1 0
BITMAP
0E0700
1F0F80
1F8FC0
1F8FC0
1F8F80
0F0700
000000
000000
000000
03FE00
0FFF00
1FFF80
1FFFC0
3F8FE0
7E07E0
7E03E0
7C03E0
FC03F0
FFFFF0
FFFFF0
FFFFF0
FC0000
7C0000
7E0000
7F0000
3FC3C0
3FFFC0
1FFFC0
0FFFC0
03FFC0
ENDCHAR
STARTCHAR 00EC
ENCODING 236
SWIDTH 495 0
DWIDTH 22 0
BBX 19 30 2 1
BITMAP
070000
0F8000
0FC000
1FF000
07F800
01F000
006000
000000
000000
FFE000
FFE000
FFE000
FFE000
FFE000
07E000
07E000
07E000
07E000
07E000
07E000
07E000
07E000
07E000
07E000
03E000
03F0C0
03FFC0
01FFC0
01FFE0
007FC0
ENDCHAR
STARTCHAR 00ED
ENCODING 237
SWIDTH 495 0
DWIDTH 22 0
BBX 19 30 2 1
BITMAP
003000
00F800
01F800
07FC00
0FF000
07C000
030000
000000
000000
FFE000
FFE000
FFE000
FFE000
FFE000
07E000
07E000
07E000
07E000
07E000
07E000
07E000
07E000
07E000
07E000
03E000
03F0C0
03FFC0
01FFC0
01FFE0
007FC0
ENDCHAR
STARTCHAR 00EE
ENCODING 238
SWIDTH 495 0
DWIDTH 22 0
BBX 19 31 2 0
BITMAP
008000
01C000
03E000
07F000
0FF800
3F7C00
1E3C00
0C1800
000000
000000
FFE000
FFE000
FFE000
FFE000
FFE000
07E000
07E000
07E000
07E000
07E000
07E000
07E000
07E000
07E000
07E000
03E000
03F0C0
03FFC0
01FFC0
01FFE0
007FC0
ENDCHAR
STARTCHAR 00EF
ENCODING 239
SWIDTH 495 0
DWIDTH 22 0
BBX 19 30 2 0
BITMAP
3C1C00
7E3F00
7E3F00
7E3F00
7E3F00
3C1E00
000000
000000
000000
FFE000
FFE000
FFE000
FFE000
FFE000
07E000
07E000
07E000
07E000
07E000
07E000
07E000
07E000
07E000
07E000
03E000
03F0C0
03FFC0
01FFC0
01FFE0
007FC0
ENDCHAR
STARTCHAR 00F0
ENCODING 240
SWIDTH 495 0
DWIDTH 22 0
BBX 19 32 2 -1
BITMAP
008000
01E000
03F000
07F9E0
01FFE0
00FFE0
01FFC0
07FF00
03FF00
039F00
001F80
000F80
03CF80
0FFFC0
1FFFC0
3FFFC0
7FFFC0
7E0FC0
FC07C0
FC07C0
F807C0
F80FC0
F80FC0
FC0FC0
FC0FC0
FC1F80
7F3F80
7FFF00
3FFF00
1FFE00
0FF800
00C000
ENDCHAR
STARTCHAR 00F1
ENCODING 241
SWIDTH 495 0
DWIDTH 22 0
BBX 17 30 3 0
BITMAP
040000
1F9E00
3FFE00
7FFE00
7FFC00
307000
000000
000000
000000
7FF800
FFFC00
FFFE00
FFFF00
FCFF00
F83F00
F81F00
F81F80
F81F80
F81F80
F81F80
F81F80
F81F80
F81F80
F81F80
F81F80
F81F80
F81F80
F81F80
F81F80
F81F80
ENDCHAR
STARTCHAR 00F2
ENCODING 242
SWIDTH 495 0
DWIDTH 22 0
BBX 20 31 1 0
BITMAP
018000
03E000
03F000
07FC00
01FE00
007C00
001800
000000
000000
03FC00
0FFF00
1FFF80
3FFFC0
3F9FE0
7E07E0
7E03E0
7C03F0
FC03F0
FC03F0
FC03F0
FC03F0
FC03F0
7C03F0
7E03E0
7E07E0
3F8FE0
3FFFC0
1FFF80
0FFF00
07FE00
006000
ENDCHAR
STARTCHAR 00F3
ENCODING 243
SWIDTH 495 0
DWIDTH 22 0
BBX 20 32 1 -1
BITMAP
000800
001800
007C00
00FE00
03FE00
03F800
03E000
018000
000000
000000
03FC00
0FFF00
1FFF80
3FFFC0
3F9FE0
7E07E0
7E03E0
7C03F0
FC03F0
FC03F0
FC03F0
FC03F0
FC03F0
7C03F0
7E03E0
7E07E0
3F8FE0
3FFFC0
1FFF80
0FFF00
07FE00
006000
ENDCHAR
STARTCHAR 00F4
ENCODING 244
SWIDTH 495 0
DWIDTH 22 0
BBX 20 31 1 0
BITMAP
007000
00F800
01FC00
07FE00
0FFF00
078F00
020600
000000
000000
03FC00
0FFF00
1FFF80
3FFFC0
3F9FE0
7E07E0
7E03E0
7C03F0
FC03F0
FC03F0
FC03F0
FC03F0
FC03F0
7C03F0
7E03E0
7E07E0
3F8FE0
3FFFC0
1FFF80
0FFF00
07FE00
006000
ENDCHAR
STARTCHAR 00F5
ENCODING 245
SWIDTH 495 0
DWIDTH 22 0
BBX 20 31 1 -1
BITMAP
010000
07E780
0FFF80
1FFF80
1FFF00
0C1C00
000000
000000
000000
03FC00
0FFF00
1FFF80
3FFFC0
3F9FE0
7E07E0
7E03E0
7C03F0
FC03F0
FC03F0
FC03F0
FC03F0
FC03F0
7C03F0
7E03E0
7E07E0
3F8FE0
3FFFC0
1FFF80
0FFF00
07FE00
006000
ENDCHAR
STARTCHAR 00F6
ENCODING 246
SWIDTH 495 0
DWIDTH 22 0
BBX 20 31 1 -1
BITMAP
0E0700
1F0F80
1F8FC0
1F8FC0
1F8F80
0F0700
000000
000000
000000
03FC00
0FFF00
1FFF80
3FFFC0
3F9FE0
7E07E0
7E03E0
7C03F0
FC03F0
FC03F0
FC03F0
FC03F0
FC03F0
7C03F0
7E03E0
7E07E0
3F8FE0
3FFFC0
1FFF80
0FFF00
07FE00
006000
ENDCHAR
STARTCHAR 00F7
ENCODING 247
SWIDTH 495 0
DWIDTH 22 0
BBX 18 23 2 0
BITMAP
01E000
03F000
03F000
03F000
03F000
01F000
000000
000000
000000
FFFFC0
FFFFC0
FFFFC0
FFFFC0
FFFFC0
000000
000000
00E000
01F000
03F000
03F000
03F000
01F000
00E000
ENDCHAR
STARTCHAR 00F8
ENCODING 248
SWIDTH 495 0
DWIDTH 22 0
BBX 20 24 1 -2
BITMAP
0000C0
03FDE0
0FFFE0
1FFFC0
3FFFC0
3FFFC0
7E0FE0
7E1FE0
7C3FF0
FC3FF0
FC7BF0
FCF3F0
FDF3F0
FDE3F0
7FC3F0
7F83E0
7F87E0
3F0FE0
3FFFC0
3FFF80
7FFF00
7FFE00
307000
100000
ENDCHAR
STARTCHAR 00F9
ENCODING 249
SWIDTH 495 0
DWIDTH 22 0
BBX 16 30 3 1
BITMAP
0600
0F80
0FC0
1FF0
07F8
01F0
0060
0000
0000
F81F
F81F
F81F
F81F
F81F
F81F
F81F
F81F
F81F
F81F
F81F
F81F
F81F
F81F
F81F
FC1F
FE1F
7FFF
7FFF
3FFF
1FFF
ENDCHAR
STARTCHAR 00FA
ENCODING 250
SWIDTH 495 0
DWIDTH 22 0
BBX 16 30 3 1
BITMAP
0060
01F0
03F0
0FF8
1FE0
0F80
0600
0000
0000
F81F
F81F
F81F
F81F
F81F
F81F
F81F
F81F
F81F
F81F
F81F
F81F
F81F
F81F
F81F
FC1F
FE1F
7FFF
7FFF
3FFF
1FFF
ENDCHAR
STARTCHAR 00FB
ENCODING 251
SWIDTH 495 0
DWIDTH 22 0
BBX 16 30 3 1
BITMAP
01C0
03E0
07F0
1FF8
3FFC
1E3C
0818
0000
0000
F81F
F81F
F81F
F81F
F81F
F81F
F81F
F81F
F81F
F81F
F81F
F81F
F81F
F81F
F81F
FC1F
FE1F
7FFF
7FFF
3FFF
1FFF
ENDCHAR
STARTCHAR 00FC
ENCODING 252
SWIDTH 495 0
DWIDTH 22 0
BBX 16 30 3 0
BITMAP
381C
7C3E
7E3F
7E3F
7E3E
3C1C
0000
0000
0000
F81F
F81F
F81F
F81F
F81F
F81F
F81F
F81F
F81F
F81F
F81F
F81F
F81F
F81F
F81F
FC1F
FE1F
7FFF
7FFF
3FFF
1FFF
ENDCHAR
STARTCHAR 00FD
ENCODING 253
SWIDTH 495 0
DWIDTH 22 0
BBX 20 37 1 -6
BITMAP
001800
007C00
00FC00
03FE00
07F800
03E000
018000
000000
000000
7C03F0
7E03F0
7E03E0
3E03E0
3E07E0
3F07C0
3F07C0
1F07C0
1F8FC0
0F8F80
0F8F80
0FCF80
07DF00
07FF00
07FF00
03FE00
03FE00
01FE00
01FC00
00FC00
00F800
01F800
01F000
47F000
7FE000
FFE000
FFC000
FF0000
ENDCHAR
STARTCHAR 00FE
ENCODING 254
SWIDTH 495 0
DWIDTH 22 0
BBX 18 38 3 -7
BITMAP
180000
F80000
F80000
F80000
F80000
F80000
F80000
F80000
F80000
F80000
FFF000
FFFC00
FFFE00
FFFF00
FCFF80
F81F80
F81F80
F80FC0
F80FC0
F80FC0
F80FC0
F80FC0
F80FC0
F80FC0
F80F80
F81F80
FC3F80
FFFF00
FFFF00
FFFE00
FFF800
F80000
F80000
F80000
F80000
F80000
F80000
F80000
ENDCHAR
STARTCHAR 00FF
ENCODING 255
SWIDTH 495 0
DWIDTH 22 0
BBX 20 37 1 -7
BITMAP
0E0700
1F0F80
1F8FC0
1F8FC0
1F8F80
0F0700
000000
000000
000000
7C03F0
7E03F0
7E03E0
3E03E0
3E07E0
3F07C0
3F07C0
1F07C0
1F8FC0
0F8F80
0F8F80
0FCF80
07DF00
07FF00
07FF00
03FE00
03FE00
01FE00
01FC00
00FC00
00F800
01F800
01F000
47F000
7FE000
FFE000
FFC000
FF0000
ENDCHAR
STARTCHAR 0100
ENCODING 256
SWIDTH 495 0
DWIDTH 22 0
BBX 21 35 1 0
BITMAP
0FFF80
0FFF80
0FFF80
0FFF80
000000
000000
000000
01F800
01F800
01FC00
03FC00
03FC00
03FE00
07FE00
07DE00
079F00
0F9F00
0F9F00
0F8F80
0F0F80
1F0F80
1F0F80
1F0FC0
3E07C0
3FFFC0
3FFFC0
3FFFE0
7FFFE0
7FFFE0
7C03E0
FC03F0
FC03F0
FC03F0
F801F0
F801F8
ENDCHAR
STARTCHAR 0101
ENCODING 257
SWIDTH 495 0
DWIDTH 22 0
BBX 18 29 2 0
BITMAP
1FFF00
1FFF00
1FFF00
1FFF00
000000
000000
000000
000000
3FFC00
3FFE00
3FFF00
3FFF80
103F80
000F80
000FC0
000FC0
07FFC0
1FFFC0
7FFFC0
7FFFC0
FE0FC0
FC0FC0
F80FC0
FC0FC0
FC0FC0
FFFFC0
7FFFC0
3FFFC0
1FFFC0
ENDCHAR
STARTCHAR 0102
ENCODING 258
SWIDTH 495 0
DWIDTH 22 0
BBX 21 36 1 0
BITMAP
0F0F80
0F0F00
0FFF00
07FF00
03FE00
01F800
000000
000000
01F800
01F800
01FC00
03FC00
03FC00
03FE00
07FE00
07DE00
079F00
0F9F00
0F9F00
0F8F80
0F0F80
1F0F80
1F0F80
1F0FC0
3E07C0
3FFFC0
3FFFC0
3FFFE0
7FFFE0
7FFFE0
7C03E0
FC03F0
FC03F0
FC03F0
F801F0
F801F8
ENDCHAR
STARTCHAR 0103
ENCODING 259
SWIDTH 495 0
DWIDTH 22 0
BBX 18 30 2 0
BITMAP
1E1F00
1E1E00
1FFE00
0FFE00
0FFC00
03F000
000000
000000
000000
3FFC00
3FFE00
3FFF00
3FFF80
103F80
000F80
000FC0
000FC0
07FFC0
1FFFC0
7FFFC0
7FFFC0
FE0FC0
FC0FC0
F80FC0
FC0FC0
FC0FC0
FFFFC0
7FFFC0
3FFFC0
1FFFC0
ENDCHAR
STARTCHAR 0104
ENCODING 260
SWIDTH 495 0
DWIDTH 22 0
BBX 21 36 1 -8
BITMAP
01F800
01F800
01FC00
03FC00
03FC00
03FE00
07FE00
07DE00
079F00
0F9F00
0F9F00
0F8F80
0F0F80
1F0F80
1F0F80
1F0FC0
3E07C0
3FFFC0
3FFFC0
3FFFE0
7FFFE0
7FFFE0
7C03E0
FC03F0
FC03F0
FC03F0
F801F0
F801F8
0001F0
0003E0
0003C0
0007C0
0007E8
0007F8
0003F8
000060
ENDCHAR
STARTCHAR 0105
ENCODING 261
SWIDTH 495 0
DWIDTH 22 0
BBX 18 29 2 -8
BITMAP
3FFC00
3FFE00
3FFF00
3FFF80
103F80
000F80
000FC0
000FC0
07FFC0
1FFFC0
7FFFC0
7FFFC0
FE0FC0
FC0FC0
F80FC0
FC0FC0
FC0FC0
FFFFC0
7FFFC0
3FFFC0
1FFFC0
000F00
001E00
003C00
003C00
007E00
007F80
003F80
000600
ENDCHAR
STARTCHAR 0106
ENCODING 262
SWIDTH 495 0
DWIDTH 22 0
BBX 20 38 1 -1
BITMAP
000200
000E00
001F00
003F80
00FF80
00FE00
00F800
004000
000000
007F80
03FFE0
07FFF0
0FFFE0
1FFFE0
3F8060
3F0000
7E0000
7E0000
7C0000
FC0000
FC0000
FC0000
FC0000
FC0000
FC0000
FC0000
FC0000
7C0000
7E0000
7E0000
7F0000
3F0020
3FC1E0
1FFFE0
0FFFE0
07FFF0
01FFC0
001800
ENDCHAR
STARTCHAR 0107
ENCODING 263
SWIDTH 495 0
DWIDTH 22 0
BBX 19 30 2 1
BITMAP
001C00
003C00
00FE00
01FF00
03FC00
01E000
018000
000000
000000
03FFC0
0FFFC0
1FFFC0
3FFFC0
3FE380
7F0000
7E0000
FC0000
FC0000
FC0000
FC0000
FC0000
FC0000
FC0000
7E0000
7F0000
7FE0C0
3FFFC0
1FFFC0
0FFFE0
03FFE0
ENDCHAR
STARTCHAR 0108
ENCODING 264
SWIDTH 495 0
DWIDTH 22 0
BBX 20 38 1 -1
BITMAP
000800
001C00
003E00
007F00
00FFC0
03F7E0
01E3C0
00C080
000000
007F80
03FFE0
07FFF0
0FFFE0
1FFFE0
3F8060
3F0000
7E0000
7E0000
7C0000
FC0000
FC0000
FC0000
FC0000
FC0000
FC0000
FC0000
FC0000
7C0000
7E0000
7E0000
7F0000
3F0020
3FC1E0
1FFFE0
0FFFE0
07FFF0
01FFC0
001800
ENDCHAR
STARTCHAR 0109
ENCODING 265
SWIDTH 495 0
DWIDTH 22 0
BBX 19 30 2 1
BITMAP
003800
007C00
00FE00
03FF00
07FF80
03C780
010300
000000
000000
03FFC0
0FFFC0
1FFFC0
3FFFC0
3FE380
7F0000
7E0000
FC0000
FC0000
FC0000
FC0000
FC0000
FC0000
FC0000
7E0000
7F0000
7FE0C0
3FFFC0
1FFFC0
0FFFE0
03FFE0
ENDCHAR
STARTCHAR 010A
ENCODING 266
SWIDTH 495 0
DWIDTH 22 0
BBX 20 37 1 -1
BITMAP
001E00
003E00
007F00
007F00
003E00
001C00
000000
000000
007F80
03FFE0
07FFF0
0FFFE0
1FFFE0
3F8060
3F0000
7E0000
7E0000
7C0000
FC0000
FC0000
FC0000
FC0000
FC0000
FC0000
FC0000
FC0000
7C0000
7E0000
7E0000
7F0000
3F0020
3FC1E0
1FFFE0
0FFFE0
07FFF0
01FFC0
001800
ENDCHAR
STARTCHAR 010B
ENCODING 267
SWIDTH 495 0
DWIDTH 22 0
BBX 19 30 2 0
BITMAP
003800
007C00
00FE00
00FE00
007C00
007C00
000000
000000
000000
03FFC0
0FFFC0
1FFFC0
3FFFC0
3FE380
7F0000
7E0000
FC0000
FC0000
FC0000
FC0000
FC0000
FC0000
FC0000
7E0000
7F0000
7FE0C0
3FFFC0
1FFFC0
0FFFE0
03FFE0
ENDCHAR
STARTCHAR 010C
ENCODING 268
SWIDTH 495 0
DWIDTH 22 0
BBX 20 38 1 -1
BITMAP
008080
01C1C0
01F7E0
01FFC0
00FF80
007F00
001C00
000800
000000
007F80
03FFE0
07FFF0
0FFFE0
1FFFE0
3F8060
3F0000
7E0000
7E0000
7C0000
FC0000
FC0000
FC0000
FC0000
FC0000
FC0000
FC0000
FC0000
7C0000
7E0000
7E0000
7F0000
3F0020
3FC1E0
1FFFE0
0FFFE0
07FFF0
01FFC0
001800
ENDCHAR
STARTCHAR 010D
ENCODING 269
SWIDTH 495 0
DWIDTH 22 0
BBX 19 31 2 0
BITMAP
010100
018380
03C780
03FF80
01FF00
00FE00
007C00
001800
000000
000000
03FFC0
0FFFC0
1FFFC0
3FFFC0
3FE380
7F0000
7E0000
FC0000
FC0000
FC0000
FC0000
FC0000
FC0000
FC0000
7E0000
7F0000
7FE0C0
3FFFC0
1FFFC0
0FFFE0
03FFE0
ENDCHAR
STARTCHAR 010E
ENCODING 270
SWIDTH 495 0
DWIDTH 22 0
BBX 19 37 2 0
BITMAP
101000
383800
3EFC00
3FF800
1FF000
07E000
038000
010000
000000
3FC000
FFF800
FFFE00
FFFF00
FFFF80
FC3F80
FC1FC0
FC0FC0
FC07C0
FC07E0
FC07E0
FC07E0
FC07E0
FC07E0
FC07E0
FC07E0
FC07E0
FC07E0
FC07E0
FC07C0
FC0FC0
FC0FC0
FC1F80
FCFF80
FFFF00
FFFE00
FFFC00
FFF000
ENDCHAR
STARTCHAR 010F
ENCODING 271
SWIDTH 495 0
DWIDTH 22 0
BBX 22 31 1 0
BITMAP
00067C
003E7C
003E7C
003E7C
003E78
003E78
003E78
003E78
003E78
003E78
1FFE00
3FFE00
7FFE00
7FFE00
FEFE00
FC3E00
FC3E00
F83E00
F83E00
F83E00
F83E00
F83E00
F83E00
F83E00
FC3E00
FC3E00
7E3E00
7FFE00
3FFE00
1FFE00
0FFE00
ENDCHAR
STARTCHAR 0110
ENCODING 272
SWIDTH 495 0
DWIDTH 22 0
BBX 20 28 1 0
BITMAP
0FF000
3FFC00
3FFF00
3FFF80
3FFFC0
3F1FC0
3F07E0
3F07E0
3F03E0
3F03F0
3F03F0
FFE3F0
FFE3F0
FFE3F0
FFE3F0
FFE3F0
3F03F0
3F03F0
3F03F0
3F03E0
3F07E0
3F07E0
3F0FC0
3F7FC0
3FFF80
3FFF00
3FFE00
3FF800
ENDCHAR
STARTCHAR 0111
ENCODING 273
SWIDTH 495 0
DWIDTH 22 0
BBX 20 31 1 0
BITMAP
0000C0
0007C0
0007C0
0007C0
01FFF0
01FFF0
01FFF0
0007C0
0007C0
0007C0
07F7C0
1FFFC0
3FFFC0
3FFFC0
7FBFC0
7E07C0
7C07C0
FC07C0
FC07C0
FC07C0
FC07C0
FC07C0
FC07C0
FC07C0
7E07C0
7E07C0
7F87C0
3FFFC0
1FFFC0
0FFFC0
07FF80
ENDCHAR
STARTCHAR 0112
ENCODING 274
SWIDTH 495 0
DWIDTH 22 0
BBX 17 35 3 0
BITMAP
3FFE00
3FFE00
3FFE00
3FFE00
000000
000000
000000
FFFF00
FFFF00
FFFF00
FFFF00
FFFF00
F80000
F80000
F80000
F80000
F80000
F80000
FFFE00
FFFE00
FFFE00
FFFE00
FFFE00
F80000
F80000
F80000
F80000
F80000
F80000
F80000
FFFF80
FFFF80
FFFF80
FFFF80
FFFF80
ENDCHAR
STARTCHAR 0113
ENCODING 275
SWIDTH 495 0
DWIDTH 22 0
BBX 20 29 1 0
BITMAP
0FFF80
0FFF80
0FFF80
0FFF80
000000
000000
000000
000000
03FE00
0FFF00
1FFF80
1FFFC0
3F8FE0
7E07E0
7E03E0
7C03E0
FC03F0
FFFFF0
FFFFF0
FFFFF0
FC0000
7C0000
7E0000
7F0000
3FC3C0
3FFFC0
1FFFC0
0FFFC0
03FFC0
ENDCHAR
STARTCHAR 0114
ENCODING 276
SWIDTH 495 0
DWIDTH 22 0
BBX 17 36 3 0
BITMAP
3C3E00
3C3C00
3FFC00
1FFC00
0FF800
07E000
000000
000000
FFFF00
FFFF00
FFFF00
FFFF00
FFFF00
F80000
F80000
F80000
F80000
F80000
F80000
FFFE00
FFFE00
FFFE00
FFFE00
FFFE00
F80000
F80000
F80000
F80000
F80000
F80000
F80000
FFFF80
FFFF80
FFFF80
FFFF80
FFFF80
ENDCHAR
STARTCHAR 0115
ENCODING 277
SWIDTH 495 0
DWIDTH 22 0
BBX 20 30 1 0
BITMAP
0F0F80
0F0F00
0FFF00
07FF00
07FE00
01F800
000000
000000
000000
03FE00
0FFF00
1FFF80
1FFFC0
3F8FE0
7E07E0
7E03E0
7C03E0
FC03F0
FFFFF0
FFFFF0
FFFFF0
FC0000
7C0000
7E0000
7F0000
3FC3C0
3FFFC0
1FFFC0
0FFFC0
03FFC0
ENDCHAR
STARTCHAR 0116
ENCODING 278
SWIDTH 495 0
DWIDTH 22 0
BBX 17 36 3 0
BITMAP
03C000
07E000
07E000
07E000
07E000
03C000
000000
000000
FFFF00
FFFF00
FFFF00
FFFF00
FFFF00
F80000
F80000
F80000
F80000
F80000
F80000
FFFE00
FFFE00
FFFE00
FFFE00
FFFE00
F80000
F80000
F80000
F80000
F80000
F80000
F80000
FFFF80
FFFF80
FFFF80
FFFF80
FFFF80
ENDCHAR
STARTCHAR 0117
ENCODING 279
SWIDTH 495 0
DWIDTH 22 0
BBX 20 30 1 0
BITMAP
00F000
01F800
01F800
01F800
01F800
00F000
000000
000000
000000
03FE00
0FFF00
1FFF80
1FFFC0
3F8FE0
7E07E0
7E03E0
7C03E0
FC03F0
FFFFF0
FFFFF0
FFFFF0
FC0000
7C0000
7E0000
7F0000
3FC3C0
3FFFC0
1FFFC0
0FFFC0
03FFC0
ENDCHAR
STARTCHAR 0118
ENCODING 280
SWIDTH 495 0
DWIDTH 22 0
BBX 18 36 3 -8
BITMAP
FFFF00
FFFF00
FFFF00
FFFF00
FFFF00
F80000
F80000
F80000
F80000
F80000
F80000
FFFE00
FFFE00
FFFE00
FFFE00
FFFE00
F80000
F80000
F80000
F80000
F80000
F80000
F80000
FFFF80
FFFF80
FFFF80
FFFF80
FFFF80
000F80
001F00
001E00
003E00
003E40
003FC0
001FC0
000200
ENDCHAR
STARTCHAR 0119
ENCODING 281
SWIDTH 495 0
DWIDTH 22 0
BBX 20 29 1 -8
BITMAP
03FE00
0FFF00
1FFF80
1FFFC0
3F8FE0
7E07E0
7E03E0
7C03E0
FC03F0
FFFFF0
FFFFF0
FFFFF0
FC0000
7C0000
7E0000
7F0000
3FC3C0
3FFFC0
1FFFC0
0FFFC0
03FFC0
000F80
001F00
001E00
003E00
003E40
003FC0
001FC0
000200
ENDCHAR
STARTCHAR 011A
ENCODING 282
SWIDTH 495 0
DWIDTH 22 0
BBX 17 37 3 0
BITMAP
080000
1C3800
3E7C00
1FF800
0FF000
07E000
03C000
018000
000000
FFFF00
FFFF00
FFFF00
FFFF00
FFFF00
F80000
F80000
F80000
F80000
F80000
F80000
FFFE00
FFFE00
FFFE00
FFFE00
FFFE00
F80000
F80000
F80000
F80000
F80000
F80000
F80000
FFFF80
FFFF80
FFFF80
FFFF80
FFFF80
ENDCHAR
STARTCHAR 011B
ENCODING 283
SWIDTH 495 0
DWIDTH 22 0
BBX 20 30 1 1
BITMAP
070E00
0F9F00
07FF00
03FE00
01F800
00F000
006000
000000
000000
03FE00
0FFF00
1FFF80
1FFFC0
3F8FE0
7E07E0
7E03E0
7C03E0
FC03F0
FFFFF0
FFFFF0
FFFFF0
FC0000
7C0000
7E0000
7F0000
3FC3C0
3FFFC0
1FFFC0
0FFFC0
03FFC0
ENDCHAR
STARTCHAR 011C
ENCODING 284
SWIDTH 495 0
DWIDTH 22 0
BBX 19 38 1 -1
BITMAP
000800
001C00
007E00
00FF00
01FF80
03F7C0
01C3C0
008180
000000
00FF80
03FFE0
07FFE0
0FFFE0
1FFFE0
3F8040
3F0000
7E0000
7E0000
7C0000
FC0000
FC0000
FC0000
FC0000
FC03E0
FC03E0
FC03E0
FC03E0
7C03E0
7C03E0
7E03E0
7E03E0
3F03E0
3FC3E0
1FFFE0
0FFFE0
07FFE0
03FFE0
001000
ENDCHAR
STARTCHAR 011D
ENCODING 285
SWIDTH 495 0
DWIDTH 22 0
BBX 18 37 1 -6
BITMAP
007000
00F800
01FC00
07FE00
0FFF00
078F00
020600
000000
000000
03FF80
0FFFC0
1FFFC0
3FFFC0
3F87C0
7E07C0
7E07C0
7C07C0
FC07C0
FC07C0
FC07C0
7C07C0
7C07C0
7E07C0
7F07C0
3FFFC0
3FFFC0
1FFFC0
0FFFC0
01C7C0
0007C0
0007C0
000FC0
381FC0
7FFF80
7FFF80
7FFE00
3FFC00
ENDCHAR
STARTCHAR 011E
ENCODING 286
SWIDTH 495 0
DWIDTH 22 0
BBX 19 37 1 -1
BITMAP
03C3E0
03C3C0
03FFC0
01FFC0
00FF80
007E00
000000
000000
00FF80
03FFE0
07FFE0
0FFFE0
1FFFE0
3F8040
3F0000
7E0000
7E0000
7C0000
FC0000
FC0000
FC0000
FC0000
FC03E0
FC03E0
FC03E0
FC03E0
7C03E0
7C03E0
7E03E0
7E03E0
3F03E0
3FC3E0
1FFFE0
0FFFE0
07FFE0
03FFE0
001000
ENDCHAR
STARTCHAR 011F
ENCODING 287
SWIDTH 495 0
DWIDTH 22 0
BBX 18 37 1 -7
BITMAP
0F0F80
0F0F00
0FFF00
07FF00
07FE00
01F800
000000
000000
000000
03FF80
0FFFC0
1FFFC0
3FFFC0
3F87C0
7E07C0
7E07C0
7C07C0
FC07C0
FC07C0
FC07C0
7C07C0
7C07C0
7E07C0
7F07C0
3FFFC0
3FFFC0
1FFFC0
0FFFC0
01C7C0
0007C0
0007C0
000FC0
381FC0
7FFF80
7FFF80
7FFE00
3FFC00
ENDCHAR
STARTCHAR 0120
ENCODING 288
SWIDTH 495 0
DWIDTH 22 0
BBX 19 37 1 -1
BITMAP
003C00
007E00
007E00
007E00
007E00
003C00
000000
000000
00FF80
03FFE0
07FFE0
0FFFE0
1FFFE0
3F8040
3F0000
7E0000
7E0000
7C0000
FC0000
FC0000
FC0000
FC0000
FC03E0
FC03E0
FC03E0
FC03E0
7C03E0
7C03E0
7E03E0
7E03E0
3F03E0
3FC3E0
1FFFE0
0FFFE0
07FFE0
03FFE0
001000
ENDCHAR
STARTCHAR 0121
ENCODING 289
SWIDTH 495 0
DWIDTH 22 0
BBX 18 37 1 -7
BITMAP
00F000
01F800
01F800
01F800
01F800
00F000
000000
000000
000000
03FF80
0FFFC0
1FFFC0
3FFFC0
3F87C0
7E07C0
7E07C0
7C07C0
FC07C0
FC07C0
FC07C0
7C07C0
7C07C0
7E07C0
7F07C0
3FFFC0
3FFFC0
1FFFC0
0FFFC0
01C7C0
0007C0
0007C0
000FC0
381FC0
7FFF80
7FFF80
7FFE00
3FFC00
ENDCHAR
STARTCHAR 0122
ENCODING 290
SWIDTH 495 0
DWIDTH 22 0
BBX 19 36 1 -8
BITMAP
00FF80
03FFE0
07FFE0
0FFFE0
1FFFE0
3F8040
3F0000
7E0000
7E0000
7C0000
FC0000
FC0000
FC0000
FC0000
FC03E0
FC03E0
FC03E0
FC03E0
7C03E0
7C03E0
7E03E0
7E03E0
3F03E0
3FC3E0
1FFFE0
0FFFE0
07FFE0
03FFE0
001000
000000
003C00
007C00
00FC00
03F800
03F800
008000
ENDCHAR
STARTCHAR 0123
ENCODING 291
SWIDTH 495 0
DWIDTH 22 0
BBX 18 38 1 -7
BITMAP
001C00
003E00
007E00
00FC00
00F800
00F800
00F800
000000
000000
000000
03FF80
0FFFC0
1FFFC0
3FFFC0
3F87C0
7E07C0
7E07C0
7C07C0
FC07C0
FC07C0
FC07C0
7C07C0
7C07C0
7E07C0
7F07C0
3FFFC0
3FFFC0
1FFFC0
0FFFC0
01C7C0
0007C0
0007C0
000FC0
381FC0
7FFF80
7FFF80
7FFE00
3FFC00
ENDCHAR
STARTCHAR 0124
ENCODING 292
SWIDTH 495 0
DWIDTH 22 0
BBX 18 37 2 0
BITMAP
004000
00E000
03F000
07F800
0FFC00
1FBE00
0E1E00
040C00
000000
F807C0
F807C0
F807C0
F807C0
F807C0
F807C0
F807C0
F807C0
F807C0
F807C0
F807C0
FFFFC0
FFFFC0
FFFFC0
FFFFC0
FFFFC0
F807C0
F807C0
F807C0
F807C0
F807C0
F807C0
F807C0
F807C0
F807C0
F807C0
F807C0
F807C0
ENDCHAR
STARTCHAR 0125
ENCODING 293
SWIDTH 495 0
DWIDTH 22 0
BBX 17 37 3 0
BITMAP
040000
1E0000
3F8000
7FC000
FFE000
F1C000
404000
000000
380000
F80000
F80000
F80000
F80000
F80000
F80000
F80000
FFF800
FFFC00
FFFE00
FFFF00
FEFF00
F83F00
F81F00
F81F80
F81F80
F81F80
F81F80
F81F80
F81F80
F81F80
F81F80
F81F80
F81F80
F81F80
F81F80
F81F80
F81F80
ENDCHAR
STARTCHAR 0126
ENCODING 294
SWIDTH 495 0
DWIDTH 22 0
BBX 20 28 1 0
BITMAP
3E07C0
3E07C0
3E07C0
3E07C0
FFFFF0
FFFFF0
FFFFF0
FFFFF0
3E07C0
3E07C0
3E07C0
3E07C0
3FFFC0
3FFFC0
3FFFC0
3FFFC0
3FFFC0
3E07C0
3E07C0
3E07C0
3E07C0
3E07C0
3E07C0
3E07C0
3E07C0
3E07C0
3E07C0
3E07C0
ENDCHAR
STARTCHAR 0127
ENCODING 295
SWIDTH 495 0
DWIDTH 22 0
BBX 19 31 1 0
BITMAP
030000
1F0000
1F0000
1F0000
FFFC00
FFFC00
FFFC00
1F0000
1F0000
1F0000
1FFE00
1FFF00
1FFF80
1FFFC0
1FDFC0
1F0FC0
1F07C0
1F07E0
1F07E0
1F07E0
1F07E0
1F07E0
1F07E0
1F07E0
1F07E0
1F07E0
1F07E0
1F07E0
1F07E0
1F07E0
1F07E0
ENDCHAR
STARTCHAR 0128
ENCODING 296
SWIDTH 495 0
DWIDTH 22 0
BBX 18 36 2 0
BITMAP
030600
0FEF00
1FFF00
3FFE00
3DFE00
083800
000000
000000
FFFFC0
FFFFC0
FFFFC0
FFFFC0
FFFFC0
03F000
03F000
03F000
03F000
03F000
03F000
03F000
03F000
03F000
03F000
03F000
03F000
03F000
03F000
03F000
03F000
03F000
03F000
FFFFC0
FFFFC0
FFFFC0
FFFFC0
FFFFC0
ENDCHAR
STARTCHAR 0129
ENCODING 297
SWIDTH 495 0
DWIDTH 22 0
BBX 19 30 2 0
BITMAP
040000
1F8E00
3FFE00
3FFE00
7FFC00
107800
000000
000000
000000
FFE000
FFE000
FFE000
FFE000
FFE000
07E000
07E000
07E000
07E000
07E000
07E000
07E000
07E000
07E000
07E000
03E000
03F0C0
03FFC0
01FFC0
01FFE0
007FC0
ENDCHAR
STARTCHAR 012A
ENCODING 298
SWIDTH 495 0
DWIDTH 22 0
BBX 18 35 2 0
BITMAP
1FFF00
1FFF00
1FFF00
1FFF00
000000
000000
000000
FFFFC0
FFFFC0
FFFFC0
FFFFC0
FFFFC0
03F000
03F000
03F000
03F000
03F000
03F000
03F000
03F000
03F000
03F000
03F000
03F000
03F000
03F000
03F000
03F000
03F000
03F000
FFFFC0
FFFFC0
FFFFC0
FFFFC0
FFFFC0
ENDCHAR
STARTCHAR 012B
ENCODING 299
SWIDTH 495 0
DWIDTH 22 0
BBX 19 29 2 0
BITMAP
3FFE00
3FFE00
3FFE00
3FFE00
000000
000000
000000
000000
FFE000
FFE000
FFE000
FFE000
FFE000
07E000
07E000
07E000
07E000
07E000
07E000
07E000
07E000
07E000
07E000
03E000
03F0C0
03FFC0
01FFC0
01FFE0
007FC0
ENDCHAR
STARTCHAR 012C
ENCODING 300
SWIDTH 495 0
DWIDTH 22 0
BBX 18 36 2 0
BITMAP
1E1F00
1E1E00
1FFE00
0FFE00
07FC00
03F000
000000
000000
FFFFC0
FFFFC0
FFFFC0
FFFFC0
FFFFC0
03F000
03F000
03F000
03F000
03F000
03F000
03F000
03F000
03F000
03F000
03F000
03F000
03F000
03F000
03F000
03F000
03F000
03F000
FFFFC0
FFFFC0
FFFFC0
FFFFC0
FFFFC0
ENDCHAR
STARTCHAR 012D
ENCODING 301
SWIDTH 495 0
DWIDTH 22 0
BBX 19 30 2 0
BITMAP
3C1E00
3C3E00
3FFC00
1FFC00
0FF800
07F000
000000
000000
000000
FFE000
FFE000
FFE000
FFE000
FFE000
07E000
07E000
07E000
07E000
07E000
07E000
07E000
07E000
07E000
07E000
03E000
03F0C0
03FFC0
01FFC0
01FFE0
007FC0
ENDCHAR
STARTCHAR 012E
ENCODING 302
SWIDTH 495 0
DWIDTH 22 0
BBX 18 36 2 -8
BITMAP
FFFFC0
FFFFC0
FFFFC0
FFFFC0
FFFFC0
03F000
03F000
03F000
03F000
03F000
03F000
03F000
03F000
03F000
03F000
03F000
03F000
03F000
03F000
03F000
03F000
03F000
03F000
FFFFC0
FFFFC0
FFFFC0
FFFFC0
FFFFC0
01F000
03E000
07C000
078000
07C800
07F800
07F800
008000
ENDCHAR
STARTCHAR 012F
ENCODING 303
SWIDTH 495 0
DWIDTH 22 0
BBX 19 38 2 -8
BITMAP
07C000
0FC000
0FE000
0FE000
0FC000
07C000
010000
000000
000000
FFE000
FFE000
FFE000
FFE000
FFE000
07E000
07E000
07E000
07E000
07E000
07E000
07E000
07E000
07E000
07E000
03E000
03F0C0
03FFC0
01FFC0
01FFE0
007FC0
000F80
001F00
001E00
003E00
003F40
003FC0
001FC0
000600
ENDCHAR
STARTCHAR 0130
ENCODING 304
SWIDTH 495 0
DWIDTH 22 0
BBX 18 37 2 0
BITMAP
00E000
03F000
03F000
03F000
03F000
01E000
000000
000000
000000
FFFFC0
FFFFC0
FFFFC0
FFFFC0
FFFFC0
03F000
03F000
03F000
03F000
03F000
03F000
03F000
03F000
03F000
03F000
03F000
03F000
03F000
03F000
03F000
03F000
03F000
03F000
FFFFC0
FFFFC0
FFFFC0
FFFFC0
FFFFC0
ENDCHAR
STARTCHAR 0131
ENCODING 305
SWIDTH 495 0
DWIDTH 22 0
BBX 19 21 2 0
BITMAP
FFE000
FFE000
FFE000
FFE000
FFE000
07E000
07E000
07E000
07E000
07E000
07E000
07E000
07E000
07E000
07E000
03E000
03F0C0
03FFC0
01FFC0
01FFE0
007FC0
ENDCHAR
STARTCHAR 0132
ENCODING 306
SWIDTH 495 0
DWIDTH 22 0
BBX 20 29 1 -1
BITMAP
FC01F0
FC01F0
FC01F0
FC01F0
FC01F0
FC01F0
FC01F0
FC01F0
FC01F0
FC01F0
FC01F0
FC01F0
FC01F0
FC01F0
FC01F0
FC01F0
FC01F0
FC01F0
FC01F0
FC01F0
FC01F0
FC01F0
FC03F0
FCE7F0
FCFFF0
FDFFE0
FDFFC0
FCFF80
000800
ENDCHAR
STARTCHAR 0133
ENCODING 307
SWIDTH 495 0
DWIDTH 22 0
BBX 18 37 2 -7
BITMAP
7C0F80
7E1F80
FE1FC0
FE1FC0
7E1F80
7E1F80
100200
000000
000000
7E1F80
7E1F80
7E1F80
7E1F80
7E1F80
7E1F80
7E1F80
7E1F80
7E1F80
7E1F80
7E1F80
7E1F80
7E1F80
7E1F80
7E1F80
7E1F80
7E1F80
7E1F80
7E1F80
7E1F80
7E1F80
001F80
001F80
003F80
03FF00
03FF00
03FE00
03FC00
ENDCHAR
STARTCHAR 0134
ENCODING 308
SWIDTH 495 0
DWIDTH 22 0
BBX 18 38 2 -1
BITMAP
001000
003800
007C00
00FE00
01FF80
07EFC0
03C780
018100
000000
1FFF80
1FFF80
1FFF80
1FFF80
1FFF80
000F80
000F80
000F80
000F80
000F80
000F80
000F80
000F80
000F80
000F80
000F80
000F80
000F80
000F80
000F80
000F80
001F80
201F80
787F80
7FFF00
FFFE00
FFFC00
3FF800
018000
ENDCHAR
STARTCHAR 0135
ENCODING 309
SWIDTH 495 0
DWIDTH 22 0
BBX 16 38 2 -7
BITMAP
0060
01F8
03FC
07FE
0FFF
0F0E
0606
0000
0000
3FFF
3FFF
3FFF
3FFF
3FFF
003F
003F
003F
003F
003F
003F
003F
003F
003F
003F
003F
003F
003F
003F
003F
003F
003F
203F
7C7E
7FFE
7FFC
FFFC
3FF0
0100
ENDCHAR
STARTCHAR 0136
ENCODING 310
SWIDTH 495 0
DWIDTH 22 0
BBX 20 36 2 -8
BITMAP
F807E0
F80FC0
F80FC0
F81F80
F81F80
F83F00
F87E00
F87E00
F8FC00
F9F800
F9F000
FBF000
FFE000
FFE000
FFF000
FBF800
F9F800
F9FC00
F8FE00
F87F00
F83F00
F83F80
F81F80
F80FC0
F80FC0
F807E0
F807E0
F807F0
000000
000000
00F000
00F000
03F000
07F000
07E000
020000
ENDCHAR
STARTCHAR 0137
ENCODING 311
SWIDTH 495 0
DWIDTH 22 0
BBX 18 39 3 -8
BITMAP
180000
F80000
F80000
F80000
F80000
F80000
F80000
F80000
F80000
F80000
F81FC0
F83F80
F83F00
F87E00
F8FC00
F8F800
F9F000
FBE000
FFE000
FFC000
FFE000
FBF000
F9F800
F9FC00
F8FC00
F87E00
F83F00
F83F80
F81F80
F80FC0
F80FC0
000000
000000
01E000
01E000
07E000
0FE000
0FC000
040000
ENDCHAR
STARTCHAR 0138
ENCODING 312
SWIDTH 495 0
DWIDTH 22 0
BBX 18 21 3 0
BITMAP
F81FC0
F83F80
F83F00
F87E00
F8FC00
F8F800
F9F000
FBE000
FFE000
FFC000
FFE000
FBF000
F9F800
F9FC00
F8FC00
F87E00
F83F00
F83F80
F81F80
F80FC0
F80FC0
ENDCHAR
STARTCHAR 0139
ENCODING 313
SWIDTH 495 0
DWIDTH 22 0
BBX 17 37 3 0
BITMAP
008000
038000
07C000
0FE000
3FE000
3F8000
3E0000
180000
000000
FC0000
FC0000
FC0000
FC0000
FC0000
FC0000
FC0000
FC0000
FC0000
FC0000
FC0000
FC0000
FC0000
FC0000
FC0000
FC0000
FC0000
FC0000
FC0000
FC0000
FC0000
FC0000
FC0000
FFFF80
FFFF80
FFFF80
FFFF80
FFFF80
ENDCHAR
STARTCHAR 013A
ENCODING 314
SWIDTH 495 0
DWIDTH 22 0
BBX 19 37 2 0
BITMAP
001000
007800
01F800
07F800
0FF800
0F8000
040000
000000
FFE000
FFE000
FFE000
FFE000
FFE000
07E000
07E000
07E000
07E000
07E000
07E000
07E000
07E000
07E000
07E000
07E000
07E000
07E000
07E000
07E000
07E000
07E000
07E000
03E000
03F9C0
03FFC0
01FFC0
01FFE0
00FFC0
ENDCHAR
STARTCHAR 013B
ENCODING 315
SWIDTH 495 0
DWIDTH 22 0
BBX 17 36 3 -8
BITMAP
FC0000
FC0000
FC0000
FC0000
FC0000
FC0000
FC0000
FC0000
FC0000
FC0000
FC0000
FC0000
FC0000
FC0000
FC0000
FC0000
FC0000
FC0000
FC0000
FC0000
FC0000
FC0000
FC0000
FFFF80
FFFF80
FFFF80
FFFF80
FFFF80
000000
000000
00F000
01F000
03F000
0FE000
0FE000
020000
ENDCHAR
STARTCHAR 013C
ENCODING 316
SWIDTH 495 0
DWIDTH 22 0
BBX 19 39 2 -8
BITMAP
FFE000
FFE000
FFE000
FFE000
FFE000
07E000
07E000
07E000
07E000
07E000
07E000
07E000
07E000
07E000
07E000
07E000
07E000
07E000
07E000
07E000
07E000
07E000
07E000
07E000
07E000
03E000
03F9C0
03FFC0
01FFC0
01FFE0
00FFC0
000000
000000
001E00
003E00
007E00
01FC00
01FC00
004000
ENDCHAR
STARTCHAR 013D
ENCODING 317
SWIDTH 495 0
DWIDTH 22 0
BBX 17 28 3 0
BITMAP
FC3C00
FC3C00
FC3C00
FC3C00
FC3C00
FC3C00
FC3C00
FC3C00
FC3800
FC3800
FC0000
FC0000
FC0000
FC0000
FC0000
FC0000
FC0000
FC0000
FC0000
FC0000
FC0000
FC0000
FC0000
FFFF80
FFFF80
FFFF80
FFFF80
FFFF80
ENDCHAR
STARTCHAR 013E
ENCODING 318
SWIDTH 495 0
DWIDTH 22 0
BBX 19 31 2 0
BITMAP
FFE3E0
FFE3E0
FFE3E0
FFE3E0
FFE3E0
07E3C0
07E3C0
07E3C0
07E3C0
07E3C0
07E000
07E000
07E000
07E000
07E000
07E000
07E000
07E000
07E000
07E000
07E000
07E000
07E000
07E000
07E000
03E000
03F9C0
03FFC0
01FFC0
01FFE0
00FFC0
ENDCHAR
STARTCHAR 013F
ENCODING 319
SWIDTH 495 0
DWIDTH 22 0
BBX 17 28 3 0
BITMAP
FC0000
FC0000
FC0000
FC0000
FC0000
FC0000
FC0000
FC0000
FC0400
FC1F00
FC3F80
FC3F80
FC3F80
FC3F80
FC1F00
FC0400
FC0000
FC0000
FC0000
FC0000
FC0000
FC0000
FC0000
FFFF80
FFFF80
FFFF80
FFFF80
FFFF80
ENDCHAR
STARTCHAR 0140
ENCODING 320
SWIDTH 495 0
DWIDTH 22 0
BBX 23 31 2 0
BITMAP
FFE000
FFE000
FFE000
FFE000
FFE000
07E000
07E000
07E000
07E000
07E000
07E000
07E038
07E0FE
07E0FE
07E0FE
07E0FE
07E0FE
07E07C
07E000
07E000
07E000
07E000
07E000
07E000
07E000
03E000
03F9C0
03FFC0
01FFC0
01FFE0
00FFC0
ENDCHAR
STARTCHAR 0141
ENCODING 321
SWIDTH 495 0
DWIDTH 22 0
BBX 20 28 0 0
BITMAP
0F8000
0F8000
0F8000
0F8000
0F8000
0F8000
0F8000
0F8000
0F8E00
0FBE00
0FFF00
0FFF00
0FFC00
3FF000
7FE000
FF8000
FF8000
7F8000
6F8000
0F8000
0F8000
0F8000
0F8000
0FFFF0
0FFFF0
0FFFF0
0FFFF0
0FFFF0
ENDCHAR
STARTCHAR 0142
ENCODING 322
SWIDTH 495 0
DWIDTH 22 0
BBX 19 31 2 0
BITMAP
FFE000
FFE000
FFE000
FFE000
FFE000
07E000
07E000
07E000
07E000
07E400
07FC00
07FE00
07FE00
07FC00
1FF000
7FE000
3FE000
3FE000
17E000
07E000
07E000
07E000
07E000
07E000
07E000
03E000
03F9C0
03FFC0
01FFC0
01FFE0
00FFC0
ENDCHAR
STARTCHAR 0143
ENCODING 323
SWIDTH 495 0
DWIDTH 22 0
BBX 18 37 2 0
BITMAP
001000
003800
00F800
01FC00
03FC00
07F000
03C000
030000
000000
F007C0
F807C0
FC07C0
FC07C0
FE07C0
FE07C0
FF07C0
FF07C0
FF87C0
FF87C0
FFC7C0
FBC7C0
FBE7C0
F9E7C0
F8F7C0
F8F7C0
F87FC0
F87FC0
F83FC0
F83FC0
F83FC0
F81FC0
F81FC0
F80FC0
F80FC0
F807C0
F807C0
F803C0
ENDCHAR
STARTCHAR 0144
ENCODING 324
SWIDTH 495 0
DWIDTH 22 0
BBX 17 31 3 0
BITMAP
002000
006000
01F000
03F800
0FF800
0FE000
0F8000
060000
000000
000000
7FF800
FFFC00
FFFE00
FFFF00
FCFF00
F83F00
F81F00
F81F80
F81F80
F81F80
F81F80
F81F80
F81F80
F81F80
F81F80
F81F80
F81F80
F81F80
F81F80
F81F80
F81F80
ENDCHAR
STARTCHAR 0145
ENCODING 325
SWIDTH 495 0
DWIDTH 22 0
BBX 18 36 2 -8
BITMAP
F007C0
F807C0
FC07C0
FC07C0
FE07C0
FE07C0
FF07C0
FF07C0
FF87C0
FF87C0
FFC7C0
FBC7C0
FBE7C0
F9E7C0
F8F7C0
F8F7C0
F87FC0
F87FC0
F83FC0
F83FC0
F83FC0
F81FC0
F81FC0
F80FC0
F80FC0
F807C0
F807C0
F803C0
000000
000000
00F000
00F000
03F000
07F000
07E000
020000
ENDCHAR
STARTCHAR 0146
ENCODING 326
SWIDTH 495 0
DWIDTH 22 0
BBX 17 29 3 -8
BITMAP
7FF800
FFFC00
FFFE00
FFFF00
FCFF00
F83F00
F81F00
F81F80
F81F80
F81F80
F81F80
F81F80
F81F80
F81F80
F81F80
F81F80
F81F80
F81F80
F81F80
F81F80
F81F80
000000
000000
03E000
03E000
07E000
1FC000
1F8000
0E0000
ENDCHAR
STARTCHAR 0147
ENCODING 327
SWIDTH 495 0
DWIDTH 22 0
BBX 18 37 2 0
BITMAP
040000
0E1C00
1F3E00
0FFC00
07F800
03F000
01E000
00C000
000000
F007C0
F807C0
FC07C0
FC07C0
FE07C0
FE07C0
FF07C0
FF07C0
FF87C0
FF87C0
FFC7C0
FBC7C0
FBE7C0
F9E7C0
F8F7C0
F8F7C0
F87FC0
F87FC0
F83FC0
F83FC0
F83FC0
F81FC0
F81FC0
F80FC0
F80FC0
F807C0
F807C0
F803C0
ENDCHAR
STARTCHAR 0148
ENCODING 328
SWIDTH 495 0
DWIDTH 22 0
BBX 17 30 3 1
BITMAP
1C3800
3E7C00
1FFC00
0FF800
07E000
03C000
018000
000000
000000
7FF800
FFFC00
FFFE00
FFFF00
FCFF00
F83F00
F81F00
F81F80
F81F80
F81F80
F81F80
F81F80
F81F80
F81F80
F81F80
F81F80
F81F80
F81F80
F81F80
F81F80
F81F80
ENDCHAR
STARTCHAR 0149
ENCODING 329
SWIDTH 495 0
DWIDTH 22 0
BBX 21 31 -1 0
BITMAP
7C0000
7C0000
7C0000
7C0000
7C0000
7C0000
780000
F80000
F00000
100000
03FF80
07FFE0
07FFF0
07FFF0
07E7F8
07C1F8
07C0F8
07C0F8
07C0F8
07C0F8
07C0F8
07C0F8
07C0F8
07C0F8
07C0F8
07C0F8
07C0F8
07C0F8
07C0F8
07C0F8
07C0F8
ENDCHAR
STARTCHAR 014A
ENCODING 330
SWIDTH 495 0
DWIDTH 22 0
BBX 18 35 2 -7
BITMAP
F007C0
F807C0
FC07C0
FC07C0
FE07C0
FE07C0
FF07C0
FF07C0
FF87C0
FF87C0
FFC7C0
FBC7C0
FBE7C0
F9E7C0
F9F7C0
F8F7C0
F87FC0
F87FC0
F83FC0
F83FC0
F83FC0
F81FC0
F81FC0
F80FC0
F80FC0
F807C0
F807C0
F807C0
0007C0
0007C0
004FC0
007FC0
007F80
007F80
007E00
ENDCHAR
STARTCHAR 014B
ENCODING 331
SWIDTH 495 0
DWIDTH 22 0
BBX 17 28 3 -7
BITMAP
7FF800
FFFC00
FFFE00
FFFF00
FCFF00
F83F00
F81F00
F81F80
F81F80
F81F80
F81F80
F81F80
F81F80
F81F80
F81F80
F81F80
F81F80
F81F80
F81F80
F81F80
F81F80
001F80
001F80
003F00
01FF00
01FF00
01FE00
01FC00
ENDCHAR
STARTCHAR 014C
ENCODING 332
SWIDTH 495 0
DWIDTH 22 0
BBX 20 36 1 -1
BITMAP
0FFF80
0FFF80
0FFF80
0FFF80
000000
000000
000000
01FC00
07FF00
0FFF80
1FFF80
3FFFC0
3F0FE0
7E07E0
7E03E0
7C03E0
7C03F0
FC03F0
FC03F0
FC03F0
FC03F0
FC03F0
FC03F0
FC03F0
FC03F0
FC03F0
7C03F0
7C03E0
7E07E0
7E07E0
3F8FC0
3FFFC0
1FFF80
0FFF00
03FE00
007000
ENDCHAR
STARTCHAR 014D
ENCODING 333
SWIDTH 495 0
DWIDTH 22 0
BBX 20 30 1 -1
BITMAP
0FFF80
0FFF80
0FFF80
0FFF80
000000
000000
000000
000000
03FC00
0FFF00
1FFF80
3FFFC0
3F9FE0
7E07E0
7E03E0
7C03F0
FC03F0
FC03F0
FC03F0
FC03F0
FC03F0
7C03F0
7E03E0
7E07E0
3F8FE0
3FFFC0
1FFF80
0FFF00
07FE00
006000
ENDCHAR
STARTCHAR 014E
ENCODING 334
SWIDTH 495 0
DWIDTH 22 0
BBX 20 37 1 -1
BITMAP
0F0F80
0F0F00
0FFF00
07FF00
03FE00
01F800
000000
000000
01FC00
07FF00
0FFF80
1FFF80
3FFFC0
3F0FE0
7E07E0
7E03E0
7C03E0
7C03F0
FC03F0
FC03F0
FC03F0
FC03F0
FC03F0
FC03F0
FC03F0
FC03F0
FC03F0
7C03F0
7C03E0
7E07E0
7E07E0
3F8FC0
3FFFC0
1FFF80
0FFF00
03FE00
007000
ENDCHAR
STARTCHAR 014F
ENCODING 335
SWIDTH 495 0
DWIDTH 22 0
BBX 20 31 1 -1
BITMAP
0F0F80
0F0F00
0FFF00
07FF00
07FE00
01F800
000000
000000
000000
03FC00
0FFF00
1FFF80
3FFFC0
3F9FE0
7E07E0
7E03E0
7C03F0
FC03F0
FC03F0
FC03F0
FC03F0
FC03F0
7C03F0
7E03E0
7E07E0
3F8FE0
3FFFC0
1FFF80
0FFF00
07FE00
006000
ENDCHAR
STARTCHAR 0150
ENCODING 336
SWIDTH 495 0
DWIDTH 22 0
BBX 20 37 1 0
BITMAP
00C0C0
01E1E0
03F3F0
07C7C0
0F8F80
0F0F00
060600
000000
01FC00
07FF00
0FFF80
1FFF80
3FFFC0
3F0FE0
7E07E0
7E03E0
7C03E0
7C03F0
FC03F0
FC03F0
FC03F0
FC03F0
FC03F0
FC03F0
FC03F0
FC03F0
FC03F0
7C03F0
7C03E0
7E07E0
7E07E0
3F8FC0
3FFFC0
1FFF80
0FFF00
03FE00
007000
ENDCHAR
STARTCHAR 0151
ENCODING 337
SWIDTH 495 0
DWIDTH 22 0
BBX 20 31 1 0
BITMAP
00C0C0
01E1E0
03F3F0
07E7E0
0F8F80
0F0F00
060600
000000
000000
03FC00
0FFF00
1FFF80
3FFFC0
3F9FE0
7E07E0
7E03E0
7C03F0
FC03F0
FC03F0
FC03F0
FC03F0
FC03F0
7C03F0
7E03E0
7E07E0
3F8FE0
3FFFC0
1FFF80
0FFF00
07FE00
006000
ENDCHAR
STARTCHAR 0152
ENCODING 338
SWIDTH 495 0
DWIDTH 22 0
BBX 21 28 1 0
BITMAP
01FFF0
0FFFF0
1FFFF0
3FFFF0
3FFFF0
7E3E00
7C3E00
FC3E00
F83E00
F83E00
F83E00
F83FE0
F83FE0
F83FE0
F83FE0
F83FE0
F83E00
F83E00
F83E00
F83E00
FC3E00
7C3E00
7E3E00
7FFFF8
3FFFF8
1FFFF8
0FFFF8
07FFF8
ENDCHAR
STARTCHAR 0153
ENCODING 339
SWIDTH 495 0
DWIDTH 22 0
BBX 21 21 1 0
BITMAP
1F8FC0
3FDFE0
3FFFE0
7FFFF0
79FCF0
F8F8F0
F0F8F0
F0F878
F0F878
F0FFF8
F0FFF8
F0FFF8
F0F800
F0F800
F0F800
F8FC00
79FE20
7FFFE0
7FFFF0
3FDFF0
1F8FF0
ENDCHAR
STARTCHAR 0154
ENCODING 340
SWIDTH 495 0
DWIDTH 22 0
BBX 20 37 2 0
BITMAP
001000
007000
00F800
03F800
07FC00
07E000
078000
020000
000000
1FE000
FFFC00
FFFE00
FFFF00
FFFF80
FC3F80
FC0FC0
FC0FC0
FC0FC0
FC0FC0
FC0FC0
FC0FC0
FC1F80
FFFF80
FFFF00
FFFE00
FFFC00
FFFC00
FC7E00
FC3F00
FC3F00
FC1F80
FC1F80
FC0FC0
FC0FC0
FC07E0
FC07E0
FC03F0
ENDCHAR
STARTCHAR 0155
ENCODING 341
SWIDTH 495 0
DWIDTH 22 0
BBX 16 30 4 1
BITMAP
0070
00F0
03F8
07FC
0FF0
0780
0600
0000
0000
1FFF
FFFF
FFFF
FFFF
FFFF
F800
F800
F800
F800
F800
F800
F800
F800
F800
F800
F800
F800
F800
F800
F800
F800
ENDCHAR
STARTCHAR 0156
ENCODING 342
SWIDTH 495 0
DWIDTH 22 0
BBX 20 36 2 -8
BITMAP
1FE000
FFFC00
FFFE00
FFFF00
FFFF80
FC3F80
FC0FC0
FC0FC0
FC0FC0
FC0FC0
FC0FC0
FC0FC0
FC1F80
FFFF80
FFFF00
FFFE00
FFFC00
FFFC00
FC7E00
FC3F00
FC3F00
FC1F80
FC1F80
FC0FC0
FC0FC0
FC07E0
FC07E0
FC03F0
000000
000000
00F000
00F000
03F000
07F000
07E000
020000
ENDCHAR
STARTCHAR 0157
ENCODING 343
SWIDTH 495 0
DWIDTH 22 0
BBX 18 29 2 -8
BITMAP
07FFC0
3FFFC0
3FFFC0
3FFFC0
3FFFC0
3E0000
3E0000
3E0000
3E0000
3E0000
3E0000
3E0000
3E0000
3E0000
3E0000
3E0000
3E0000
3E0000
3E0000
3E0000
3E0000
000000
000000
1E0000
1E0000
7E0000
FE0000
FC0000
400000
ENDCHAR
STARTCHAR 0158
ENCODING 344
SWIDTH 495 0
DWIDTH 22 0
BBX 20 37 2 0
BITMAP
080800
1C1C00
3E7C00
1FFC00
0FF800
07E000
03C000
008000
000000
1FE000
FFFC00
FFFE00
FFFF00
FFFF80
FC3F80
FC0FC0
FC0FC0
FC0FC0
FC0FC0
FC0FC0
FC0FC0
FC1F80
FFFF80
FFFF00
FFFE00
FFFC00
FFFC00
FC7E00
FC3F00
FC3F00
FC1F80
FC1F80
FC0FC0
FC0FC0
FC07E0
FC07E0
FC03F0
ENDCHAR
STARTCHAR 0159
ENCODING 345
SWIDTH 495 0
DWIDTH 22 0
BBX 16 31 4 0
BITMAP
0008
0C1C
1F3E
1FFC
0FF8
07F0
01E0
00C0
0000
0000
1FFF
FFFF
FFFF
FFFF
FFFF
F800
F800
F800
F800
F800
F800
F800
F800
F800
F800
F800
F800
F800
F800
F800
F800
ENDCHAR
STARTCHAR 015A
ENCODING 346
SWIDTH 495 0
DWIDTH 22 0
BBX 18 38 2 -1
BITMAP
001000
003800
00F800
01FC00
07FC00
07F000
03C000
030000
000000
07FC00
1FFF80
3FFF80
7FFF80
7FFF00
FC0100
FC0000
FC0000
FC0000
FE0000
7F0000
7FC000
3FF800
1FFE00
0FFF00
03FF80
007FC0
001FC0
000FC0
0007C0
0007C0
0007C0
400FC0
781FC0
FFFFC0
FFFF80
FFFF00
3FFC00
01C000
ENDCHAR
STARTCHAR 015B
ENCODING 347
SWIDTH 495 0
DWIDTH 22 0
BBX 18 31 2 0
BITMAP
001000
003000
00F800
01FC00
03FC00
07F000
07C000
030000
000000
000000
07FF00
1FFF80
3FFF00
7FFF00
7F0700
7C0000
7E0000
7F0000
7FE000
3FF800
1FFE00
07FF00
01FF80
003F80
000FC0
400FC0
781FC0
7FFF80
7FFF80
FFFF00
3FFC00
ENDCHAR
STARTCHAR 015C
ENCODING 348
SWIDTH 495 0
DWIDTH 22 0
BBX 18 38 2 -1
BITMAP
004000
00E000
03F000
07F800
0FFC00
1FBE00
0E1E00
040C00
000000
07FC00
1FFF80
3FFF80
7FFF80
7FFF00
FC0100
FC0000
FC0000
FC0000
FE0000
7F0000
7FC000
3FF800
1FFE00
0FFF00
03FF80
007FC0
001FC0
000FC0
0007C0
0007C0
0007C0
400FC0
781FC0
FFFFC0
FFFF80
FFFF00
3FFC00
01C000
ENDCHAR
STARTCHAR 015D
ENCODING 349
SWIDTH 495 0
DWIDTH 22 0
BBX 18 30 2 1
BITMAP
00E000
01F000
03F800
0FFC00
1FFE00
0F1E00
040C00
000000
000000
07FF00
1FFF80
3FFF00
7FFF00
7F0700
7C0000
7E0000
7F0000
7FE000
3FF800
1FFE00
07FF00
01FF80
003F80
000FC0
400FC0
781FC0
7FFF80
7FFF80
FFFF00
3FFC00
ENDCHAR
STARTCHAR 015E
ENCODING 350
SWIDTH 495 0
DWIDTH 22 0
BBX 18 36 2 -8
BITMAP
07FC00
1FFF80
3FFF80
7FFF80
7FFF00
FC0100
FC0000
FC0000
FC0000
FE0000
7F0000
7FC000
3FF800
1FFE00
0FFF00
03FF80
007FC0
001FC0
000FC0
0007C0
0007C0
0007C0
400FC0
781FC0
FFFFC0
FFFF80
FFFF00
3FFC00
03C000
03E000
01F000
00F000
09F000
0FF000
1FE000
020000
ENDCHAR
STARTCHAR 015F
ENCODING 351
SWIDTH 495 0
DWIDTH 22 0
BBX 18 29 2 -8
BITMAP
07FF00
1FFF80
3FFF00
7FFF00
7F0700
7C0000
7E0000
7F0000
7FE000
3FF800
1FFE00
07FF00
01FF80
003F80
000FC0
400FC0
781FC0
7FFF80
7FFF80
FFFF00
3FFC00
01C000
03E000
00F000
007800
08F800
0FF000
0FE000
010000
ENDCHAR
STARTCHAR 0160
ENCODING 352
SWIDTH 495 0
DWIDTH 22 0
BBX 18 38 2 -1
BITMAP
040000
0E1C00
1F3E00
0FFC00
07F800
03F000
01E000
00C000
000000
07FC00
1FFF80
3FFF80
7FFF80
7FFF00
FC0100
FC0000
FC0000
FC0000
FE0000
7F0000
7FC000
3FF800
1FFE00
0FFF00
03FF80
007FC0
001FC0
000FC0
0007C0
0007C0
0007C0
400FC0
781FC0
FFFFC0
FFFF80
FFFF00
3FFC00
01C000
ENDCHAR
STARTCHAR 0161
ENCODING 353
SWIDTH 495 0
DWIDTH 22 0
BBX 18 30 2 1
BITMAP
0E1C00
1F3E00
0FFE00
07FC00
03F000
01E000
00C000
000000
000000
07FF00
1FFF80
3FFF00
7FFF00
7F0700
7C0000
7E0000
7F0000
7FE000
3FF800
1FFE00
07FF00
01FF80
003F80
000FC0
400FC0
781FC0
7FFF80
7FFF80
FFFF00
3FFC00
ENDCHAR
STARTCHAR 0162
ENCODING 354
SWIDTH 495 0
DWIDTH 22 0
BBX 20 36 1 -8
BITMAP
FFFFF0
FFFFF0
FFFFF0
FFFFF0
FFFFF0
01F800
01F800
01F800
01F800
01F800
01F800
01F800
01F800
01F800
01F800
01F800
01F800
01F800
01F800
01F800
01F800
01F800
01F800
01F800
01F800
01F800
01F800
01F800
00E000
01F000
007800
003C00
047C00
07F800
07F800
00C000
ENDCHAR
STARTCHAR 0163
ENCODING 355
SWIDTH 495 0
DWIDTH 22 0
BBX 19 35 2 -8
BITMAP
01C000
0FC000
0FC000
0FC000
0FC000
0FC000
FFFFE0
FFFFE0
FFFFE0
FFFFE0
FFFFE0
0FC000
0FC000
0FC000
0FC000
0FC000
0FC000
0FC000
0FC000
0FC000
0FC000
0FC000
07E0C0
07FFE0
07FFE0
03FFE0
01FFC0
003800
007C00
001E00
000F00
019F00
01FF00
01FE00
002000
ENDCHAR
STARTCHAR 0164
ENCODING 356
SWIDTH 495 0
DWIDTH 22 0
BBX 20 37 1 0
BITMAP
020000
070E00
0F9F00
07FE00
03FC00
01F800
00F000
006000
000000
FFFFF0
FFFFF0
FFFFF0
FFFFF0
FFFFF0
01F800
01F800
01F800
01F800
01F800
01F800
01F800
01F800
01F800
01F800
01F800
01F800
01F800
01F800
01F800
01F800
01F800
01F800
01F800
01F800
01F800
01F800
01F800
ENDCHAR
STARTCHAR 0165
ENCODING 357
SWIDTH 495 0
DWIDTH 22 0
BBX 19 31 2 0
BITMAP
000F80
000F80
000F80
000F80
01CF80
0FCF00
0FCF00
0FCF00
0FC000
0FC000
FFFFE0
FFFFE0
FFFFE0
FFFFE0
FFFFE0
0FC000
0FC000
0FC000
0FC000
0FC000
0FC000
0FC000
0FC000
0FC000
0FC000
0FC000
07E0C0
07FFE0
07FFE0
03FFE0
01FFE0
ENDCHAR
STARTCHAR 0166
ENCODING 358
SWIDTH 495 0
DWIDTH 22 0
BBX 20 28 1 0
BITMAP
FFFFF0
FFFFF0
FFFFF0
FFFFF0
FFFFF0
01F800
01F800
01F800
01F800
01F800
01F800
01F800
01F800
3FFFC0
3FFFC0
3FFFC0
3FFFC0
01F800
01F800
01F800
01F800
01F800
01F800
01F800
01F800
01F800
01F800
01F800
ENDCHAR
STARTCHAR 0167
ENCODING 359
SWIDTH 495 0
DWIDTH 22 0
BBX 19 27 2 0
BITMAP
01C000
0FC000
0FC000
0FC000
0FC000
0FC000
FFFFE0
FFFFE0
FFFFE0
FFFFE0
FFFFE0
0FC000
0FC000
0FC000
FFFFE0
FFFFE0
FFFFE0
FFFFE0
0FC000
0FC000
0FC000
0FC000
07E0C0
07FFE0
07FFE0
03FFE0
01FFE0
ENDCHAR
STARTCHAR 0168
ENCODING 360
SWIDTH 495 0
DWIDTH 22 0
BBX 18 37 2 -1
BITMAP
030600
0FEF00
1FFF00
3FFE00
3CFE00
083800
000000
000000
F807C0
F807C0
F807C0
F807C0
F807C0
F807C0
F807C0
F807C0
F807C0
F807C0
F807C0
F807C0
F807C0
F807C0
F807C0
F807C0
F807C0
F807C0
F807C0
F807C0
F807C0
FC07C0
FC0FC0
FE1FC0
7FFF80
3FFF80
3FFF00
0FFC00
00C000
ENDCHAR
STARTCHAR 0169
ENCODING 361
SWIDTH 495 0
DWIDTH 22 0
BBX 16 30 3 0
BITMAP
0400
1F9E
3FFE
7FFE
7FFC
3070
0000
0000
0000
F81F
F81F
F81F
F81F
F81F
F81F
F81F
F81F
F81F
F81F
F81F
F81F
F81F
F81F
F81F
FC1F
FE1F
7FFF
7FFF
3FFF
1FFF
ENDCHAR
STARTCHAR 016A
ENCODING 362
SWIDTH 495 0
DWIDTH 22 0
BBX 18 36 2 -1
BITMAP
1FFF00
1FFF00
1FFF00
1FFF00
000000
000000
000000
F807C0
F807C0
F807C0
F807C0
F807C0
F807C0
F807C0
F807C0
F807C0
F807C0
F807C0
F807C0
F807C0
F807C0
F807C0
F807C0
F807C0
F807C0
F807C0
F807C0
F807C0
FC07C0
FC0FC0
FE1FC0
7FFF80
3FFF80
3FFF00
0FFC00
00C000
ENDCHAR
STARTCHAR 016B
ENCODING 363
SWIDTH 495 0
DWIDTH 22 0
BBX 16 29 3 0
BITMAP
3FFE
3FFE
3FFE
3FFE
0000
0000
0000
0000
F81F
F81F
F81F
F81F
F81F
F81F
F81F
F81F
F81F
F81F
F81F
F81F
F81F
F81F
F81F
FC1F
FE1F
7FFF
7FFF
3FFF
1FFF
ENDCHAR
STARTCHAR 016C
ENCODING 364
SWIDTH 495 0
DWIDTH 22 0
BBX 18 37 2 -1
BITMAP
1E1F00
1E1E00
1FFE00
0FFE00
07FC00
03F000
000000
000000
F807C0
F807C0
F807C0
F807C0
F807C0
F807C0
F807C0
F807C0
F807C0
F807C0
F807C0
F807C0
F807C0
F807C0
F807C0
F807C0
F807C0
F807C0
F807C0
F807C0
F807C0
FC07C0
FC0FC0
FE1FC0
7FFF80
3FFF80
3FFF00
0FFC00
00C000
ENDCHAR
STARTCHAR 016D
ENCODING 365
SWIDTH 495 0
DWIDTH 22 0
BBX 16 30 3 0
BITMAP
3C3E
3C3C
3FFC
1FFC
1FF8
07E0
0000
0000
0000
F81F
F81F
F81F
F81F
F81F
F81F
F81F
F81F
F81F
F81F
F81F
F81F
F81F
F81F
F81F
FC1F
FE1F
7FFF
7FFF
3FFF
1FFF
ENDCHAR
STARTCHAR 016E
ENCODING 366
SWIDTH 495 0
DWIDTH 22 0
BBX 18 38 2 -1
BITMAP
00C000
03F000
07F800
073C00
0E1C00
0E1C00
073C00
07F800
03F000
000000
F807C0
F807C0
F807C0
F807C0
F807C0
F807C0
F807C0
F807C0
F807C0
F807C0
F807C0
F807C0
F807C0
F807C0
F807C0
F807C0
F807C0
F807C0
F807C0
F807C0
FC07C0
FC0FC0
FE1FC0
7FFF80
3FFF80
3FFF00
0FFC00
00C000
ENDCHAR
STARTCHAR 016F
ENCODING 367
SWIDTH 495 0
DWIDTH 22 0
BBX 16 31 3 0
BITMAP
07E0
0FF0
0F78
1C38
1C38
0E78
0FF0
07E0
01C0
0000
F81F
F81F
F81F
F81F
F81F
F81F
F81F
F81F
F81F
F81F
F81F
F81F
F81F
F81F
F81F
FC1F
FE1F
7FFF
7FFF
3FFF
1FFF
ENDCHAR
STARTCHAR 0170
ENCODING 368
SWIDTH 495 0
DWIDTH 22 0
BBX 19 37 2 0
BITMAP
018180
03C3C0
07E7E0
0F8F80
1F1F00
1E1E00
0C0C00
000000
F807C0
F807C0
F807C0
F807C0
F807C0
F807C0
F807C0
F807C0
F807C0
F807C0
F807C0
F807C0
F807C0
F807C0
F807C0
F807C0
F807C0
F807C0
F807C0
F807C0
F807C0
FC07C0
FC0FC0
FE1FC0
7FFF80
3FFF80
3FFF00
0FFC00
00C000
ENDCHAR
STARTCHAR 0171
ENCODING 369
SWIDTH 495 0
DWIDTH 22 0
BBX 18 31 3 0
BITMAP
020200
070700
0F8780
0FCFC0
1F1F00
3E3E00
3C7C00
303000
000000
000000
F81F00
F81F00
F81F00
F81F00
F81F00
F81F00
F81F00
F81F00
F81F00
F81F00
F81F00
F81F00
F81F00
F81F00
F81F00
FC1F00
FE1F00
7FFF00
7FFF00
3FFF00
1FFF00
ENDCHAR
STARTCHAR 0172
ENCODING 370
SWIDTH 495 0
DWIDTH 22 0
BBX 18 36 2 -8
BITMAP
F807C0
F807C0
F807C0
F807C0
F807C0
F807C0
F807C0
F807C0
F807C0
F807C0
F807C0
F807C0
F807C0
F807C0
F807C0
F807C0
F807C0
F807C0
F807C0
F807C0
F807C0
FC07C0
FC0FC0
FE1FC0
7FFF80
3FFF80
3FFF00
0FFE00
00FC00
00F800
01F000
01E000
01F200
01FE00
01FE00
002000
ENDCHAR
STARTCHAR 0173
ENCODING 371
SWIDTH 495 0
DWIDTH 22 0
BBX 16 29 3 -8
BITMAP
F81F
F81F
F81F
F81F
F81F
F81F
F81F
F81F
F81F
F81F
F81F
F81F
F81F
F81F
F81F
FC1F
FE1F
7FFF
7FFF
3FFF
1FFF
003E
007C
0078
00F8
00F9
00FF
007F
0008
ENDCHAR
STARTCHAR 0174
ENCODING 372
SWIDTH 495 0
DWIDTH 22 0
BBX 20 37 1 0
BITMAP
002000
007000
01F800
03FC00
07FE00
0FDF00
070F00
020600
000000
F801F0
F801F0
F801F0
F801F0
F801F0
F801F0
F801F0
F801F0
F801F0
F801F0
F8F1F0
F8F1F0
F9F9F0
79F9F0
79F9F0
79FDF0
7BFDF0
7BDDE0
7B9DE0
7F9FE0
7F8FE0
7F0FE0
7F0FE0
7F07E0
7E07E0
7E07E0
7E03E0
3C03E0
ENDCHAR
STARTCHAR 0175
ENCODING 373
SWIDTH 495 0
DWIDTH 22 0
BBX 21 30 1 1
BITMAP
007000
00F800
01FC00
07FE00
0FFF00
078F00
020600
000000
000000
F000F8
F000F8
F000F8
F000F0
F0F0F0
F0F0F0
F0F8F0
F9F8F0
F9F8F0
F9F8F0
79FDF0
7BFDE0
7BFDE0
7B9DE0
7F9FE0
7F9FE0
3F0FC0
3F0FC0
3F0FC0
3E07C0
3E07C0
ENDCHAR
STARTCHAR 0176
ENCODING 374
SWIDTH 495 0
DWIDTH 22 0
BBX 21 37 1 0
BITMAP
002000
007000
01F800
03FC00
07FE00
0FDF00
070F00
020600
000000
F801F8
FC01F0
FC03F0
7C03F0
7E03E0
3E07E0
3F07C0
3F07C0
1F0F80
1F8F80
0F9F80
0FDF00
07DF00
07FE00
03FE00
03FC00
01F800
01F800
01F800
01F800
01F800
01F800
01F800
01F800
01F800
01F800
01F800
01F800
ENDCHAR
STARTCHAR 0177
ENCODING 375
SWIDTH 495 0
DWIDTH 22 0
BBX 20 37 1 -6
BITMAP
007000
00F800
01FC00
07FE00
0FFF00
078F00
020600
000000
000000
7C03F0
7E03F0
7E03E0
3E03E0
3E07E0
3F07C0
3F07C0
1F07C0
1F8FC0
0F8F80
0F8F80
0FCF80
07DF00
07FF00
07FF00
03FE00
03FE00
01FE00
01FC00
00FC00
00F800
01F800
01F000
47F000
7FE000
FFE000
FFC000
FF0000
ENDCHAR
STARTCHAR 0178
ENCODING 376
SWIDTH 495 0
DWIDTH 22 0
BBX 21 36 1 0
BITMAP
0F0700
1F8F80
1F8FC0
1F8FC0
1F0F80
0E0700
000000
000000
F801F8
FC01F0
FC03F0
7C03F0
7E03E0
3E07E0
3F07C0
3F07C0
1F0F80
1F8F80
0F9F80
0FDF00
07DF00
07FE00
03FE00
03FC00
01F800
01F800
01F800
01F800
01F800
01F800
01F800
01F800
01F800
01F800
01F800
01F800
ENDCHAR
STARTCHAR 0179
ENCODING 377
SWIDTH 495 0
DWIDTH 22 0
BBX 18 37 2 0
BITMAP
001000
003800
00F800
01FC00
03FC00
07F000
03C000
030000
000000
7FFFC0
7FFFC0
7FFFC0
7FFFC0
7FFFC0
001F80
003F00
003F00
007E00
007C00
00FC00
01F800
01F800
03F000
03E000
07E000
07C000
0FC000
1F8000
1F8000
3F0000
3E0000
7E0000
7FFFC0
FFFFC0
FFFFC0
FFFFC0
FFFFC0
ENDCHAR
STARTCHAR 017A
ENCODING 378
SWIDTH 495 0
DWIDTH 22 0
BBX 16 31 3 0
BITMAP
0020
0070
00F0
03F8
07F8
0FE0
0780
0600
0000
0000
FFFF
FFFF
FFFF
FFFF
FFFF
00FE
00FC
01F8
03F0
07F0
07E0
0FC0
1F80
1F80
3F00
7E00
7FFF
FFFF
FFFF
FFFF
FFFF
ENDCHAR
STARTCHAR 017B
ENCODING 379
SWIDTH 495 0
DWIDTH 22 0
BBX 18 36 2 0
BITMAP
01E000
03F000
03F000
03F000
03F000
01E000
000000
000000
7FFFC0
7FFFC0
7FFFC0
7FFFC0
7FFFC0
001F80
003F00
003F00
007E00
007C00
00FC00
01F800
01F800
03F000
03E000
07E000
07C000
0FC000
1F8000
1F8000
3F0000
3E0000
7E0000
7FFFC0
FFFFC0
FFFFC0
FFFFC0
FFFFC0
ENDCHAR
STARTCHAR 017C
ENCODING 380
SWIDTH 495 0
DWIDTH 22 0
BBX 16 30 3 0
BITMAP
03C0
07E0
07E0
07E0
07E0
03C0
0000
0000
0000
FFFF
FFFF
FFFF
FFFF
FFFF
00FE
00FC
01F8
03F0
07F0
07E0
0FC0
1F80
1F80
3F00
7E00
7FFF
FFFF
FFFF
FFFF
FFFF
ENDCHAR
STARTCHAR 017D
ENCODING 381
SWIDTH 495 0
DWIDTH 22 0
BBX 18 37 2 0
BITMAP
040000
0E1C00
1F3E00
0FFC00
07F800
03F000
01E000
00C000
000000
7FFFC0
7FFFC0
7FFFC0
7FFFC0
7FFFC0
001F80
003F00
003F00
007E00
007C00
00FC00
01F800
01F800
03F000
03E000
07E000
07C000
0FC000
1F8000
1F8000
3F0000
3E0000
7E0000
7FFFC0
FFFFC0
FFFFC0
FFFFC0
FFFFC0
ENDCHAR
STARTCHAR 017E
ENCODING 382
SWIDTH 495 0
DWIDTH 22 0
BBX 16 30 3 1
BITMAP
1C38
3E7C
1FFC
0FF8
07E0
03C0
0180
0000
0000
FFFF
FFFF
FFFF
FFFF
FFFF
00FE
00FC
01F8
03F0
07F0
07E0
0FC0
1F80
1F80
3F00
7E00
7FFF
FFFF
FFFF
FFFF
FFFF
ENDCHAR
STARTCHAR 017F
ENCODING 383
SWIDTH 495 0
DWIDTH 22 0
BBX 16 31 6 0
BITMAP
01F8
0FFF
3FFF
3FFE
7FFE
7E06
FC00
FC00
FC00
FC00
FC00
FC00
FC00
FC00
FC00
FC00
FC00
FC00
FC00
FC00
FC00
FC00
FC00
FC00
FC00
FC00
FC00
FC00
FC00
FC00
FC00
ENDCHAR
STARTCHAR 0180
ENCODING 384
SWIDTH 495 0
DWIDTH 22 0
BBX 20 31 1 0
BITMAP
030000
3F0000
3F0000
3F0000
FFFC00
FFFC00
FFFC00
3F0000
3F0000
3F0000
3FFE00
3FFF80
3FFFC0
3FFFC0
3FDFE0
3F07E0
3F03E0
3F03F0
3F03F0
3F03F0
3F03F0
3F03F0
3F03F0
3F03F0
3F03E0
3F07E0
3F1FE0
3FFFC0
3FFF80
3FFF00
1FFE00
ENDCHAR
STARTCHAR 0181
ENCODING 385
SWIDTH 495 0
DWIDTH 22 0
BBX 22 28 0 0
BITMAP
03FE00
1FFFC0
7FFFE0
7FFFF0
FFFFF0
F1E1F0
F1E0F0
F1E0F0
F1E0F0
41E1F0
01E1F0
01FFE0
01FFC0
01FFC0
01FFE0
01FFF0
01E0F8
01E0F8
01E078
01E07C
01E07C
01E07C
01E0F8
01F3F8
01FFF8
01FFF0
01FFE0
01FF80
ENDCHAR
STARTCHAR 0182
ENCODING 386
SWIDTH 495 0
DWIDTH 22 0
BBX 19 28 2 0
BITMAP
FFFF00
FFFF00
FFFF00
FFFF00
FFFF00
FC0000
FC0000
FC0000
FC0000
FC0000
FFC000
FFFE00
FFFF00
FFFF80
FFFFC0
FC1FC0
FC07E0
FC07E0
FC07E0
FC07E0
FC07E0
FC07E0
FC0FC0
FE7FC0
FFFF80
FFFF80
FFFE00
FFF800
ENDCHAR
STARTCHAR 0183
ENCODING 387
SWIDTH 495 0
DWIDTH 22 0
BBX 18 31 3 0
BITMAP
FFFF00
FFFF00
FFFF00
FFFF00
FFFF00
F80000
F80000
F80000
F80000
F80000
FBF800
FFFE00
FFFF00
FFFF00
FF7F80
F81F80
F80F80
F80FC0
F80FC0
F80FC0
F80FC0
F80FC0
F80FC0
F80FC0
F80F80
F81F80
F87F80
FFFF00
FFFE00
FFFC00
FFF800
ENDCHAR
STARTCHAR 0184
ENCODING 388
SWIDTH 495 0
DWIDTH 22 0
BBX 21 31 0 0
BITMAP
010000
0F0000
3F0000
FF0000
FF0000
7F0000
3F0000
1F0000
1F0000
1F0000
1FFF00
1FFFC0
1FFFE0
1FFFE0
1FEFF0
1F03F0
1F01F0
1F01F8
1F01F8
1F01F8
1F01F8
1F01F8
1F01F8
1F01F8
1F01F0
1F03F0
1F0FF0
1FFFE0
1FFFC0
1FFF80
1FFF00
ENDCHAR
STARTCHAR 0185
ENCODING 389
SWIDTH 495 0
DWIDTH 22 0
BBX 21 28 0 0
BITMAP
018000
0F8000
3F8000
FF8000
FF8000
7F8000
3F8000
1F8000
1F8000
1F8000
1F8000
1FFF00
1FFFC0
1FFFE0
1FFFF0
1F8FF0
1F83F8
1F81F8
1F81F8
1F81F8
1F81F8
1F81F8
1F83F0
1F8FF0
1FFFE0
1FFFE0
1FFF80
1FFE00
ENDCHAR
STARTCHAR 0186
ENCODING 390
SWIDTH 495 0
DWIDTH 22 0
BBX 20 29 1 -1
BITMAP
1FF000
7FFC00
FFFF00
7FFF80
7FFF80
601FC0
000FC0
0007E0
0007E0
0003E0
0003F0
0003F0
0003F0
0003F0
0003F0
0003F0
0003F0
0003F0
0003E0
0007E0
0007E0
000FE0
000FC0
783FC0
7FFF80
7FFF00
FFFE00
3FF800
03C000
ENDCHAR
STARTCHAR 0187
ENCODING 391
SWIDTH 495 0
DWIDTH 22 0
BBX 22 32 1 -1
BITMAP
00007C
0000FC
0001FC
00FFFC
03FFE0
0FFFC0
1FFF80
1FFF80
3F8180
3F0000
7E0000
7E0000
7C0000
FC0000
FC0000
FC0000
FC0000
FC0000
FC0000
FC0000
FC0000
7C0000
7C0000
7E0000
7E0000
3F0000
3FC380
1FFFC0
0FFFC0
07FFC0
03FF00
003000
ENDCHAR
STARTCHAR 0188
ENCODING 392
SWIDTH 495 0
DWIDTH 22 0
BBX 21 26 2 -1
BITMAP
0000E0
0003F8
0003F8
0007F0
03FFF0
0FFF00
1FFF00
3FFF00
7FC600
7F0000
FE0000
FC0000
FC0000
F80000
F80000
F80000
F80000
FC0000
FC0000
7E0000
7FC300
3FFF00
3FFF00
0FFF00
07FF80
003000
ENDCHAR
STARTCHAR 0189
ENCODING 393
SWIDTH 495 0
DWIDTH 22 0
BBX 20 28 1 0
BITMAP
0FF000
3FFC00
3FFF00
3FFF80
3FFFC0
3F1FC0
3F07E0
3F07E0
3F03E0
3F03F0
3F03F0
FFE3F0
FFE3F0
FFE3F0
FFE3F0
FFE3F0
3F03F0
3F03F0
3F03F0
3F03E0
3F07E0
3F07E0
3F0FC0
3F7FC0
3FFF80
3FFF00
3FFE00
3FF800
ENDCHAR
STARTCHAR 018A
ENCODING 394
SWIDTH 495 0
DWIDTH 22 0
BBX 21 28 0 0
BITMAP
03FC00
1FFF80
3FFFC0
7FFFE0
FFFFF0
F1E1F0
F1E0F0
F1E0F8
F1E0F8
41E0F8
01E078
01E078
01E078
01E078
01E078
01E078
01E078
01E078
01E0F8
01E0F8
01E0F8
01E0F0
01E1F0
01E7F0
01FFE0
01FFC0
01FF80
01FF00
ENDCHAR
STARTCHAR 018B
ENCODING 395
SWIDTH 495 0
DWIDTH 22 0
BBX 19 28 1 0
BITMAP
1FFFE0
1FFFE0
1FFFE0
1FFFE0
1FFFE0
0007E0
0007E0
0007E0
0007E0
0007E0
0007E0
07FFE0
1FFFE0
3FFFE0
7FFFE0
7F87E0
7E07E0
FC07E0
FC07E0
FC07E0
FC07E0
7C07E0
7E07E0
7FC7E0
3FFFE0
1FFFE0
0FFFE0
03FFE0
ENDCHAR
STARTCHAR 018C
ENCODING 396
SWIDTH 495 0
DWIDTH 22 0
BBX 18 31 1 0
BITMAP
3FFFC0
3FFFC0
3FFFC0
3FFFC0
3FFFC0
0007C0
0007C0
0007C0
0007C0
0007C0
07F7C0
1FFFC0
3FFFC0
3FFFC0
7FBFC0
7E07C0
7C07C0
FC07C0
FC07C0
FC07C0
FC07C0
FC07C0
FC07C0
FC07C0
7E07C0
7E07C0
7F87C0
3FFFC0
1FFFC0
0FFFC0
07FFC0
ENDCHAR
STARTCHAR 018D
ENCODING 397
SWIDTH 495 0
DWIDTH 22 0
BBX 20 28 1 -7
BITMAP
07FE00
0FFF80
1FFFC0
3FFFE0
7F8FE0
7E07F0
7C03F0
FC03F0
FC03F0
FC03F0
FC03F0
7E03E0
7E07E0
7F07E0
3F8FC0
1FFF80
0FFF00
07FC00
03FE00
00FF00
003F80
001F80
000F80
181F80
1FFF80
1FFF00
1FFE00
1FFC00
ENDCHAR
STARTCHAR 018E
ENCODING 398
SWIDTH 495 0
DWIDTH 22 0
BBX 17 28 3 0
BITMAP
7FFF80
7FFF80
7FFF80
7FFF80
7FFF80
000F80
000F80
000F80
000F80
000F80
000F80
3FFF80
3FFF80
3FFF80
3FFF80
3FFF80
000F80
000F80
000F80
000F80
000F80
000F80
000F80
FFFF80
FFFF80
FFFF80
FFFF80
FFFF80
ENDCHAR
STARTCHAR 018F
ENCODING 399
SWIDTH 495 0
DWIDTH 22 0
BBX 20 29 1 -1
BITMAP
1FF000
7FFC00
7FFE00
3FFF00
3FFF80
201FC0
0007C0
0007E0
0003E0
0003E0
0001F0
0001F0
0001F0
FFFFF0
FFFFF0
FFFFF0
FFFFF0
F801F0
F801F0
F803E0
7C03E0
7C03E0
7E07C0
3F0FC0
3FFF80
1FFF80
0FFF00
07FC00
004000
ENDCHAR
STARTCHAR 0190
ENCODING 400
SWIDTH 495 0
DWIDTH 22 0
BBX 20 29 1 -1
BITMAP
01FF00
07FFC0
1FFFF0
1FFFE0
3FFFE0
3F00C0
3E0000
3E0000
3E0000
3F0000
3F8000
1FFF00
0FFF00
07FF00
1FFF00
3FFF00
7F0000
7E0000
FC0000
FC0000
FC0000
FC0000
7E0060
7F83F0
7FFFF0
3FFFF0
1FFFF0
07FFC0
003000
ENDCHAR
STARTCHAR 0191
ENCODING 401
SWIDTH 495 0
DWIDTH 22 0
BBX 22 35 -2 -7
BITMAP
07FFFC
07FFFC
07FFFC
07FFFC
07FFFC
07C000
07C000
07C000
07C000
07C000
07C000
07C000
07FFF0
07FFF0
07FFF0
07FFF0
07C000
07C000
07C000
07C000
07C000
07C000
07C000
07C000
07C000
07C000
07C000
07C000
07C000
07C000
8FC000
FFC000
FF8000
FF8000
FE0000
ENDCHAR
STARTCHAR 0192
ENCODING 402
SWIDTH 495 0
DWIDTH 22 0
BBX 22 39 0 -8
BITMAP
0007E0
003FFC
00FFFC
00FFF8
01FFF8
01F818
03F000
03F000
03F000
03F000
3FFFF0
3FFFF0
3FFFF0
3FFFF0
3FFFF0
03F000
03F000
03F000
03F000
03F000
03F000
03F000
03F000
03F000
03F000
03F000
03F000
03F000
03F000
03F000
03F000
03F000
03E000
07E000
7FE000
7FC000
FF8000
FF0000
100000
ENDCHAR
STARTCHAR 0193
ENCODING 403
SWIDTH 495 0
DWIDTH 22 0
BBX 22 32 1 -1
BITMAP
00007C
0000FC
0001FC
00FFFC
03FFE0
0FFFC0
1FFF80
1FFF80
3F8180
3F0000
7E0000
7E0000
7C0000
FC0000
FC0000
FC0000
FC0000
FC03E0
FC03E0
FC03E0
FC03E0
7C03E0
7C03E0
7E03E0
7E03E0
3F03E0
3FC3E0
1FFFE0
0FFFE0
07FFE0
03FFE0
001000
ENDCHAR
STARTCHAR 0194
ENCODING 404
SWIDTH 495 0
DWIDTH 22 0
BBX 22 35 0 -7
BITMAP
FC00FC
7C00F8
7E00F8
3E01F8
3E01F0
1F01F0
1F03E0
1F03E0
0F83C0
0F87C0
07C7C0
07CF80
03CF80
03EF00
03FF00
01FE00
01FE00
00FE00
00FC00
00FC00
01FE00
01FF00
03FF00
03FF80
07CF80
07CF80
07C7C0
0F87C0
0F87C0
0F87C0
0FC7C0
07FFC0
07FF80
03FF80
01FE00
ENDCHAR
STARTCHAR 0195
ENCODING 405
SWIDTH 495 0
DWIDTH 22 0
BBX 20 32 1 -1
BITMAP
100000
F00000
F00000
F00000
F00000
F00000
F00000
F00000
F00000
F00000
FFC0F0
FFE0F0
FFF0F0
FFF0F0
F0F0F0
F0F0F0
F0F0F0
F0F0F0
F0F0F0
F0F0F0
F0F0F0
F0F0F0
F0F0F0
F0F0F0
F0F0F0
F0F0F0
F0F8F0
F07DF0
F07FF0
F07FE0
F03FC0
000600
ENDCHAR
STARTCHAR 0196
ENCODING 406
SWIDTH 495 0
DWIDTH 22 0
BBX 19 29 1 -1
BITMAP
FFFF80
FFFF80
FFFF80
FFFF80
FFFF80
03E000
03E000
03E000
03E000
03E000
03E000
03E000
03E000
03E000
03E000
03E000
03E000
03E000
03E000
03E000
03E000
03E000
03F000
03F8E0
03FFE0
01FFE0
00FFE0
007FE0
000400
ENDCHAR
STARTCHAR 0197
ENCODING 407
SWIDTH 495 0
DWIDTH 22 0
BBX 18 28 2 0
BITMAP
FFFFC0
FFFFC0
FFFFC0
FFFFC0
FFFFC0
03F000
03F000
03F000
03F000
03F000
03F000
03F000
3FFF00
3FFF00
3FFF00
3FFF00
03F000
03F000
03F000
03F000
03F000
03F000
03F000
FFFFC0
FFFFC0
FFFFC0
FFFFC0
FFFFC0
ENDCHAR
STARTCHAR 0198
ENCODING 408
SWIDTH 495 0
DWIDTH 22 0
BBX 21 28 2 0
BITMAP
F803E0
F807F0
F80FF8
F81FF0
F81FF0
F83F20
F87E00
F8FC00
F8FC00
F9F800
FBF000
FBE000
FFE000
FFE000
FFF000
FBF800
F9F800
F9FC00
F8FE00
F87F00
F83F00
F83F80
F81F80
F81FC0
F80FC0
F80FE0
F807E0
F807F0
ENDCHAR
STARTCHAR 0199
ENCODING 409
SWIDTH 495 0
DWIDTH 22 0
BBX 18 31 3 0
BITMAP
078000
3FC000
7FC000
FFC000
FF8000
FC0000
F80000
F80000
F80000
F80000
F81FC0
F83F80
F83F00
F87E00
F8FC00
F8F800
F9F000
FBE000
FFE000
FFC000
FFE000
FBF000
F9F800
F9FC00
F8FC00
F87E00
F83F00
F83F80
F81F80
F80FC0
F80FC0
ENDCHAR
STARTCHAR 019A
ENCODING 410
SWIDTH 495 0
DWIDTH 22 0
BBX 19 31 3 0
BITMAP
FFE000
FFE000
FFE000
FFE000
FFE000
07E000
07E000
07E000
07E000
07E000
07E000
07E000
07E000
FFFF80
FFFF80
FFFF80
FFFF80
07E000
07E000
07E000
07E000
07E000
07E000
07E000
07E000
03E000
03F9C0
03FFC0
01FFE0
01FFE0
00FFC0
ENDCHAR
STARTCHAR 019B
ENCODING 411
SWIDTH 495 0
DWIDTH 22 0
BBX 20 31 1 0
BITMAP
7C0000
FF8000
FFC000
FFE700
7FFF80
07FF80
0FFE00
3FF800
3FF800
3EF800
30FC00
00FC00
01FE00
01FE00
03FE00
03FF00
07FF00
07FF00
0FDF80
0F9F80
1F9F80
1F9FC0
1F0FC0
3F0FC0
3F0FC0
3E07E0
7E07E0
7E07E0
7E07F0
FC03F0
FC03F0
ENDCHAR
STARTCHAR 019C
ENCODING 412
SWIDTH 495 0
DWIDTH 22 0
BBX 21 29 1 -1
BITMAP
F000F8
F000F8
F000F8
F000F8
F000F8
F000F8
F000F8
F000F8
F000F8
F000F8
F000F8
F0F0F8
F0F0F8
F0F0F8
F0F0F8
F0F0F8
F0F0F8
F0F0F8
F0F0F8
F0F0F8
F0F0F8
F0F0F8
F8F8F8
F8F8F8
FFFFF8
7FFFF8
7FFFF8
3FFFF0
060000
ENDCHAR
STARTCHAR 019D
ENCODING 413
SWIDTH 495 0
DWIDTH 22 0
BBX 23 35 -3 -7
BITMAP
07803E
07C03E
07E03E
07E03E
07F03E
07F03E
07F83E
07F83E
07FC3E
07FC3E
07FE3E
07DE3E
07DF3E
07CF3E
07C7BE
07C7BE
07C3FE
07C3FE
07C1FE
07C1FE
07C1FE
07C0FE
07C0FE
07C07E
07C07E
07C03E
07C03E
07C01E
07C000
07C000
0FC000
7F8000
FF8000
FF0000
FE0000
ENDCHAR
STARTCHAR 019E
ENCODING 414
SWIDTH 495 0
DWIDTH 22 0
BBX 17 28 3 -7
BITMAP
7FF800
FFFC00
FFFE00
FFFF00
FCFF00
F83F00
F81F00
F81F80
F81F80
F81F80
F81F80
F81F80
F81F80
F81F80
F81F80
F81F80
F81F80
F81F80
F81F80
F81F80
F81F80
001F80
001F80
001F80
001F80
001F80
001F80
001F80
ENDCHAR
STARTCHAR 019F
ENCODING 415
SWIDTH 495 0
DWIDTH 22 0
BBX 20 29 1 -1
BITMAP
01FC00
07FF00
0FFF80
1FFF80
3FFFC0
3F0FE0
7E07E0
7C03E0
7C03E0
7C03F0
FC03F0
FC03F0
FFFFF0
FFFFF0
FFFFF0
FFFFF0
FC03F0
FC03F0
FC03F0
7C03F0
7C03E0
7E07E0
7E07E0
3F8FC0
3FFFC0
1FFF80
0FFF00
03FE00
007000
ENDCHAR
STARTCHAR 01A0
ENCODING 416
SWIDTH 495 0
DWIDTH 22 0
BBX 21 33 1 -1
BITMAP
0000F8
0000F8
0000F8
0000F8
01FCF8
07FFF8
0FFFF0
1FFFF0
3FFFE0
3F0FE0
7E07E0
7E03E0
7C03E0
7C03F0
FC03F0
FC03F0
FC03F0
FC03F0
FC03F0
FC03F0
FC03F0
FC03F0
FC03F0
7C03F0
7C03E0
7E07E0
7E07E0
3F8FC0
3FFFC0
1FFF80
0FFF00
03FE00
007000
ENDCHAR
STARTCHAR 01A1
ENCODING 417
SWIDTH 495 0
DWIDTH 22 0
BBX 21 26 1 -1
BITMAP
0000F8
0000F8
0000F8
0000F8
03FCF8
0FFFF0
1FFFF0
3FFFE0
3F9FE0
7E07E0
7E03E0
7C03F0
FC03F0
FC03F0
FC03F0
FC03F0
FC03F0
7C03F0
7E03E0
7E07E0
3F8FE0
3FFFC0
1FFF80
0FFF00
07FE00
006000
ENDCHAR
STARTCHAR 01A2
ENCODING 418
SWIDTH 495 0
DWIDTH 22 0
BBX 20 29 1 -1
BITMAP
0FCF80
1FFFE0
3FFFE0
7FFFF0
7FFFF0
78F1F0
78F8F0
78F8F0
7878F0
F878F0
F878F0
F878F0
F878F0
F878F0
F878F0
F878F0
F878F0
F878F0
F878F0
7878F0
78F8F0
78F8F0
78F0F0
7CF0F0
7FF0F0
3FF0F0
3FE0F0
1FC0F0
060000
ENDCHAR
STARTCHAR 01A3
ENCODING 419
SWIDTH 495 0
DWIDTH 22 0
BBX 20 28 1 -7
BITMAP
0FDFC0
3FFFE0
3FFFE0
7FFFF0
7CF9F0
F878F0
F878F0
F878F0
F07CF0
F07CF0
F07CF0
F07CF0
F07CF0
F878F0
F878F0
F878F0
7CF8F0
7FF8F0
7FF0F0
3FE0F0
1FC0F0
0000F0
0000F0
0000F0
0000F0
0000F0
0000F0
0000F0
ENDCHAR
STARTCHAR 01A4
ENCODING 420
SWIDTH 495 0
DWIDTH 22 0
BBX 21 28 0 0
BITMAP
03FC00
1FFFC0
3FFFE0
7FFFF0
FFFFF0
F1E1F8
F1E0F8
F1E0F8
F1E0F8
41E0F8
01E0F8
01E0F8
01E0F8
01E1F0
01FFF0
01FFF0
01FFE0
01FFC0
01FE00
01E000
01E000
01E000
01E000
01E000
01E000
01E000
01E000
01E000
ENDCHAR
STARTCHAR 01A5
ENCODING 421
SWIDTH 495 0
DWIDTH 22 0
BBX 18 38 3 -7
BITMAP
0F8000
3FC000
7FC000
7F8000
FF8000
FC0000
F80000
F80000
F80000
F80000
FFF000
FFFC00
FFFE00
FFFF00
FCFF80
F81F80
F81F80
F80FC0
F80FC0
F80FC0
F80FC0
F80FC0
F80FC0
F80FC0
F80F80
F81F80
FC3F80
FFFF00
FFFF00
FFFE00
FFF800
F80000
F80000
F80000
F80000
F80000
F80000
F80000
ENDCHAR
STARTCHAR 01A6
ENCODING 422
SWIDTH 495 0
DWIDTH 22 0
BBX 21 35 2 -4
BITMAP
FC0000
FC0000
FC0000
FFE000
FFFC00
FFFE00
FFFF00
FFFF80
FC3F80
FC0FC0
FC0FC0
FC0FC0
FC0FC0
FC0FC0
FC0FC0
FC1F80
FFFF80
FFFF00
FFFE00
FFFC00
FFFC00
FC7E00
FC7E00
FC3F00
FC3F00
FC1F80
FC0F80
FC0FC0
FC07C0
FC07E0
FC07E0
0003F0
0003F0
0001F0
0001F8
ENDCHAR
STARTCHAR 01A7
ENCODING 423
SWIDTH 495 0
DWIDTH 22 0
BBX 18 29 2 -1
BITMAP
0FF800
7FFE00
7FFF00
3FFF80
3F7F80
300FC0
000FC0
0007C0
000FC0
000FC0
003FC0
00FF80
07FF80
1FFF00
3FFC00
7FF000
7F8000
FE0000
FC0000
F80000
F80000
F80000
FC0080
FE0780
7FFFC0
7FFFC0
3FFFC0
0FFF00
00E000
ENDCHAR
STARTCHAR 01A8
ENCODING 424
SWIDTH 495 0
DWIDTH 22 0
BBX 18 21 2 0
BITMAP
3FF800
7FFE00
3FFF00
3FFF80
381F80
000F80
001F80
003F80
01FF80
07FF00
1FFE00
3FF800
7FE000
7F0000
FC0000
FC0080
7E0780
7FFF80
7FFF80
3FFFC0
0FFF00
ENDCHAR
STARTCHAR 01A9
ENCODING 425
SWIDTH 495 0
DWIDTH 22 0
BBX 20 28 1 0
BITMAP
7FFFF0
7FFFF0
7FFFF0
7FFFF0
7FFFF0
3F8000
1F8000
0FC000
07E000
03F000
03F000
01F800
00FC00
007E00
007E00
00FC00
01F800
03F000
07E000
0FC000
0FC000
1F8000
3F0000
7FFFF0
FFFFF0
FFFFF0
FFFFF0
FFFFF0
ENDCHAR
STARTCHAR 01AA
ENCODING 426
SWIDTH 495 0
DWIDTH 22 0
BBX 20 38 0 -7
BITMAP
07E000
1FF000
3FF800
7FFC00
7CFC00
F87E00
F87E00
F87E00
7C7E00
7FFE00
7FFE00
3FFE00
0FFE00
007E00
007E00
007E00
007E00
007E00
007E00
007E00
007E00
007E00
007E00
007E00
007E00
007E00
007E00
007E00
007E00
007E00
007E00
007E00
003E00
003F80
003FF0
001FF0
001FF0
0007F0
ENDCHAR
STARTCHAR 01AB
ENCODING 427
SWIDTH 495 0
DWIDTH 22 0
BBX 19 34 2 -7
BITMAP
03C000
0FC000
0FC000
0FC000
0FC000
0FC000
FFFFC0
FFFFC0
FFFFC0
FFFFC0
FFFFC0
0FC000
0FC000
0FC000
0FC000
0FC000
0FC000
0FC000
0FC000
0FC000
0FC000
0FC000
07E0E0
07FFE0
07FFE0
03FFE0
01FFE0
0001E0
0001E0
0003E0
007FE0
007FC0
007FC0
007F80
ENDCHAR
STARTCHAR 01AC
ENCODING 428
SWIDTH 495 0
DWIDTH 22 0
BBX 21 28 0 0
BITMAP
007FF8
1FFFF8
3FFFF8
7FFFF8
7FFFF8
FC7E00
F87E00
F87E00
787E00
787E00
007E00
007E00
007E00
007E00
007E00
007E00
007E00
007E00
007E00
007E00
007E00
007E00
007E00
007E00
007E00
007E00
007E00
007E00
ENDCHAR
STARTCHAR 01AD
ENCODING 429
SWIDTH 495 0
DWIDTH 22 0
BBX 19 31 2 0
BITMAP
001F80
00FFE0
03FFE0
03FFC0
07FFC0
07F040
0FC000
0FC000
0FC000
0FC000
FFFFC0
FFFFC0
FFFFC0
FFFFC0
FFFFC0
0FC000
0FC000
0FC000
0FC000
0FC000
0FC000
0FC000
0FC000
0FC000
0FC000
0FC000
07E0E0
07FFE0
07FFE0
03FFE0
00FFE0
ENDCHAR
STARTCHAR 01AE
ENCODING 430
SWIDTH 495 0
DWIDTH 22 0
BBX 20 35 1 -7
BITMAP
FFFFF0
FFFFF0
FFFFF0
FFFFF0
FFFFF0
01F800
01F800
01F800
01F800
01F800
01F800
01F800
01F800
01F800
01F800
01F800
01F800
01F800
01F800
01F800
01F800
01F800
01F800
01F800
01F800
01F800
01F800
01F800
01F800
01F800
00FC80
00FF80
00FFC0
007FC0
003FC0
ENDCHAR
STARTCHAR 01AF
ENCODING 431
SWIDTH 495 0
DWIDTH 22 0
BBX 21 33 2 -1
BITMAP
0000F8
0000F8
0000F8
0000F8
F81FF0
F81FF0
F81FE0
F81F00
F81F00
F81F00
F81F00
F81F00
F81F00
F81F00
F81F00
F81F00
F81F00
F81F00
F81F00
F81F00
F81F00
F81F00
F81F00
F81F00
F81F00
F81F00
F83F00
FC3E00
7FFE00
7FFC00
3FFC00
1FF000
01C000
ENDCHAR
STARTCHAR 01B0
ENCODING 432
SWIDTH 495 0
DWIDTH 22 0
BBX 20 25 2 0
BITMAP
0001F0
0001F0
0001F0
0003F0
F83FE0
F83FE0
F83F80
F83E00
F83E00
F83E00
F83E00
F83E00
F83E00
F83E00
F83E00
F83E00
F83E00
F83E00
F83E00
F83E00
FC3E00
7FFE00
7FFE00
3FFE00
1FFC00
ENDCHAR
STARTCHAR 01B1
ENCODING 433
SWIDTH 495 0
DWIDTH 22 0
BBX 22 29 0 -1
BITMAP
FFCFFC
FFCFFC
FFCFFC
FFCFFC
FFCFFC
0F87C0
1F03E0
3F03F0
3E01F0
3E01F0
7E00F8
7C00F8
7C00F8
7C00F8
7C00FC
7C00FC
7C00FC
7C00FC
7C00F8
7E00F8
7E01F8
7E01F8
3F03F0
3F87F0
1FFFE0
0FFFE0
07FF80
03FF00
003800
ENDCHAR
STARTCHAR 01B2
ENCODING 434
SWIDTH 495 0
DWIDTH 22 0
BBX 19 29 2 -1
BITMAP
F8F800
F8FE00
F8FF00
F8FF80
F8FFC0
F80FC0
F80FC0
F807C0
F807E0
F807E0
F807E0
F807E0
F807E0
F807E0
F807E0
F807E0
F807E0
F807E0
F807E0
F807E0
F807C0
FC07C0
FC0FC0
7E1FC0
7FFF80
3FFF00
3FFF00
0FFC00
00C000
ENDCHAR
STARTCHAR 01B3
ENCODING 435
SWIDTH 495 0
DWIDTH 22 0
BBX 22 28 1 0
BITMAP
F800F0
FC03FC
FC03F8
7C07F8
7E07F0
7E0F80
3E0F80
3F0F00
1F1F00
1F1E00
1FBE00
0FBE00
0FBC00
07FC00
07F800
03F800
03F800
01F000
01F000
01F000
01F000
01F000
01F000
01F000
01F000
01F000
01F000
01F000
ENDCHAR
STARTCHAR 01B4
ENCODING 436
SWIDTH 495 0
DWIDTH 22 0
BBX 21 28 1 -7
BITMAP
FC01F8
FC03F8
7C07F8
7E07F8
7E0FF8
3E0F80
3E0F80
3F0F00
1F1F00
1F1F00
1F9F00
0F9F00
0F9E00
0FFE00
07FE00
07FC00
03FC00
03FC00
01F800
01F800
01F800
01F000
03F000
47E000
7FE000
FFC000
FF8000
FF0000
ENDCHAR
STARTCHAR 01B5
ENCODING 437
SWIDTH 495 0
DWIDTH 22 0
BBX 18 28 2 0
BITMAP
7FFFC0
7FFFC0
7FFFC0
7FFFC0
7FFFC0
001F80
003F00
003F00
007E00
007C00
00FC00
01F800
FFFFC0
FFFFC0
FFFFC0
FFFFC0
0FC000
0FC000
1F8000
1F8000
3F0000
3E0000
7E0000
7FFFC0
FFFFC0
FFFFC0
FFFFC0
FFFFC0
ENDCHAR
STARTCHAR 01B6
ENCODING 438
SWIDTH 495 0
DWIDTH 22 0
BBX 16 21 3 0
BITMAP
FFFF
FFFF
FFFF
FFFF
FFFF
00FE
00FC
01F8
03F0
7FFF
7FFF
7FFF
1F80
1F80
3F00
7E00
7FFF
FFFF
FFFF
FFFF
FFFF
ENDCHAR
STARTCHAR 01B7
ENCODING 439
SWIDTH 495 0
DWIDTH 22 0
BBX 20 29 1 -1
BITMAP
7FFFF0
7FFFF0
7FFFF0
7FFFF0
7FFFE0
0007C0
000FC0
001F80
003F00
007E00
00FC00
01F800
03FC00
03FF80
03FFC0
03FFE0
0007F0
0003F0
0001F0
0001F0
0001F0
0003F0
2003F0
7C0FF0
7FFFE0
7FFFE0
FFFF80
3FFF00
00C000
ENDCHAR
STARTCHAR 01B8
ENCODING 440
SWIDTH 495 0
DWIDTH 22 0
BBX 20 29 2 -1
BITMAP
FFFFE0
FFFFE0
FFFFE0
FFFFE0
7FFFE0
3E0000
3F0000
1F8000
0FC000
07E000
03F000
01F800
03FC00
1FFC00
3FFC00
7FC000
FE0000
FC0000
FC0000
F80000
F80000
FC0000
FE0040
FF03E0
7FFFE0
3FFFF0
1FFFF0
07FFC0
007000
ENDCHAR
STARTCHAR 01B9
ENCODING 441
SWIDTH 495 0
DWIDTH 22 0
BBX 19 28 2 -7
BITMAP
7FFFC0
7FFFC0
7FFFC0
7FFFC0
3FFFC0
3F8000
1F8000
0FC000
07E000
03F000
01F800
01F800
07FC00
1FFC00
3FFC00
7F8000
7E0000
7C0000
FC0000
FC0000
FC0000
7C0000
7E0040
7FEFC0
3FFFC0
3FFFE0
0FFFE0
03FF80
ENDCHAR
STARTCHAR 01BA
ENCODING 442
SWIDTH 495 0
DWIDTH 22 0
BBX 18 28 2 -8
BITMAP
FFFF80
FFFF80
FFFF80
FFFF80
FFFF80
003F00
007E00
01FC00
03F800
07F000
07FC00
07FF00
07FF80
001FC0
000FC0
0007C0
0007C0
000FC0
007F80
07FF80
1FFF00
7FFC00
7FE000
FF0000
F80000
F80000
F80000
780000
ENDCHAR
STARTCHAR 01BB
ENCODING 443
SWIDTH 495 0
DWIDTH 22 0
BBX 19 28 1 0
BITMAP
07FC00
1FFF00
7FFF80
FFFF80
7FFFC0
380FC0
100FC0
0007C0
0007C0
000FC0
000FC0
001F80
003F80
3FFFE0
3FFFE0
3FFFE0
3FFFE0
07F000
0FE000
1FC000
1F8000
3F0000
7E0000
7FFFE0
7FFFE0
7FFFE0
7FFFE0
7FFFE0
ENDCHAR
STARTCHAR 01BC
ENCODING 444
SWIDTH 495 0
DWIDTH 22 0
BBX 19 29 1 -1
BITMAP
FFFFE0
FFFFE0
FFFFE0
FFFFE0
FFFFE0
0F0000
0F0000
0F0000
0F0000
0F0000
1F0000
1FF800
1FFF00
1FFF80
1FFFC0
003FE0
0007E0
0003E0
0003E0
0003E0
0003E0
0003E0
2007E0
3C0FE0
3FFFC0
3FFFC0
3FFF80
1FFE00
00C000
ENDCHAR
STARTCHAR 01BD
ENCODING 445
SWIDTH 495 0
DWIDTH 22 0
BBX 18 22 2 -1
BITMAP
FFFFC0
FFFFC0
FFFFC0
FFFFC0
FFFFC0
3E0000
3E0000
3E0000
3FFC00
3FFF00
3FFF80
3FFFC0
000FC0
000FC0
0007C0
000FC0
781FC0
7FFF80
7FFF80
7FFF00
7FFC00
018000
ENDCHAR
STARTCHAR 01BE
ENCODING 446
SWIDTH 495 0
DWIDTH 22 0
BBX 19 28 2 -1
BITMAP
038000
0F8000
0F8000
0F8000
0F8000
0F8000
FFFF80
FFFF80
FFFF80
FFFF80
FFFF80
0F8000
0F8000
0FC000
0FF000
07FC00
03FF00
01FFC0
007FC0
000FE0
0007E0
0003E0
3E07E0
3FFFE0
3FFFC0
3FFF80
1FFE00
00C000
ENDCHAR
STARTCHAR 01BF
ENCODING 447
SWIDTH 495 0
DWIDTH 22 0
BBX 18 28 3 -7
BITMAP
3FF800
FFFC00
FFFF00
FFFF00
FC7F80
F81F80
F80F80
F80FC0
F80FC0
F80FC0
F80FC0
F80FC0
F80F80
F81F80
F83F80
F87F00
F8FE00
FBFE00
FFFC00
FFF000
FFE000
FF8000
FC0000
F80000
F80000
F80000
F80000
F80000
ENDCHAR
STARTCHAR 01C0
ENCODING 448
SWIDTH 495 0
DWIDTH 22 0
BBX 6 38 8 -7
BITMAP
FC
FC
FC
FC
FC
FC
FC
FC
FC
FC
FC
FC
FC
FC
FC
FC
FC
FC
FC
FC
FC
FC
FC
FC
FC
FC
FC
FC
FC
FC
FC
FC
FC
FC
FC
FC
FC
FC
ENDCHAR
STARTCHAR 01C1
ENCODING 449
SWIDTH 495 0
DWIDTH 22 0
BBX 14 38 4 -7
BITMAP
FC7C
FC7C
FC7C
FC7C
FC7C
FC7C
FC7C
FC7C
FC7C
FC7C
FC7C
FC7C
FC7C
FC7C
FC7C
FC7C
FC7C
FC7C
FC7C
FC7C
FC7C
FC7C
FC7C
FC7C
FC7C
FC7C
FC7C
FC7C
FC7C
FC7C
FC7C
FC7C
FC7C
FC7C
FC7C
FC7C
FC7C
FC7C
ENDCHAR
STARTCHAR 01C2
ENCODING 450
SWIDTH 495 0
DWIDTH 22 0
BBX 20 38 1 -7
BITMAP
01F800
01F800
01F800
01F800
01F800
01F800
01F800
01F800
01F800
01F800
01F800
01F800
01F800
FFFFF0
FFFFF0
FFFFF0
FFFFF0
01F800
01F800
01F800
01F800
FFFFF0
FFFFF0
FFFFF0
FFFFF0
01F800
01F800
01F800
01F800
01F800
01F800
01F800
01F800
01F800
01F800
01F800
01F800
01F800
ENDCHAR
STARTCHAR 01C3
ENCODING 451
SWIDTH 495 0
DWIDTH 22 0
BBX 8 29 7 -1
BITMAP
7E
7E
7E
7E
7E
7E
7E
7E
7E
7E
7E
7E
7E
7E
7E
3E
3E
3C
00
00
00
1C
7E
7F
FF
FF
7E
7E
10
ENDCHAR
STARTCHAR 01C4
ENCODING 452
SWIDTH 495 0
DWIDTH 22 0
BBX 22 36 1 0
BITMAP
000408
000E3C
000F78
0007F0
0003E0
0000C0
000000
000000
7C07F8
FF07F8
FF87F8
FFC7F8
F3C7F8
F1E070
F1E0F0
F1E0F0
F1E0F0
F1E0E0
F0E1E0
F0E1E0
F0F1E0
F0F1C0
F0F3C0
F0F3C0
F0F3C0
F0E380
F1E780
F1E780
F1E780
F1E700
F1EF00
F3CF00
FFCFF8
FF8FF8
FF8FF8
FE0FF8
ENDCHAR
STARTCHAR 01C5
ENCODING 453
SWIDTH 495 0
DWIDTH 22 0
BBX 22 30 1 0
BITMAP
000008
000E1C
7C0F7C
FF07F8
FF83E0
FFC1C0
F3C080
F1E000
F1E000
F1E7F8
F1E7F8
F1E7F8
F0E7F8
F0E078
F0F0F0
F0F0F0
F0F1E0
F0F1E0
F0F1E0
F0E3C0
F1E3C0
F1E3C0
F1E380
F1E780
F1E780
F3C700
FFCFF8
FF8FF8
FF8FF8
FE0FF8
ENDCHAR
STARTCHAR 01C6
ENCODING 454
SWIDTH 495 0
DWIDTH 22 0
BBX 23 32 0 -1
BITMAP
003000
00F004
00F70E
00F7BE
00F3FC
00F1F0
00F0E0
00F040
00F000
00F000
1FF3FC
3FF3FC
3FF3FC
7FF3FC
78F03C
78F078
78F078
78F0F0
F0F0F0
F0F0F0
F0F1E0
F0F1E0
F0F1E0
70F1C0
70F3C0
78F3C0
78F380
7FF7FC
3FF7FC
1FF7FC
0FE7FC
030000
ENDCHAR
STARTCHAR 01C7
ENCODING 455
SWIDTH 495 0
DWIDTH 22 0
BBX 20 29 1 -1
BITMAP
F00070
F00070
F00070
F00070
F00070
F00070
F00070
F00070
F00070
F00070
F00070
F00070
F00070
F00070
F00070
F00070
F00070
F00070
F00070
F00070
F00070
F000F0
F000F0
F000F0
FFC3F0
FFCFF0
FFCFE0
FFCFC0
000C00
ENDCHAR
STARTCHAR 01C8
ENCODING 456
SWIDTH 495 0
DWIDTH 22 0
BBX 19 37 2 -8
BITMAP
0003E0
F003E0
F007E0
F003E0
F003E0
F00080
F00000
F00000
F001E0
F001E0
F001E0
F001E0
F001E0
F001E0
F001E0
F001E0
F001E0
F001E0
F001E0
F001E0
F001E0
F001E0
F001E0
F001E0
F001E0
FFF1E0
FFF1E0
FFF1E0
FFF1E0
0001E0
0003C0
0003C0
004FC0
007FC0
007F80
00FF00
001000
ENDCHAR
STARTCHAR 01C9
ENCODING 457
SWIDTH 495 0
DWIDTH 22 0
BBX 19 39 2 -8
BITMAP
100000
F00000
F007C0
F007C0
F007E0
F007E0
F007C0
F00100
F00000
F00000
F003C0
F003C0
F003C0
F003C0
F003C0
F003C0
F003C0
F003C0
F003C0
F003C0
F003C0
F003C0
F003C0
F003C0
F003C0
F803C0
7803C0
7F03C0
7F83C0
3F83C0
0F83C0
0003C0
0003C0
000780
00DF80
00FF80
00FF00
00FE00
002000
ENDCHAR
STARTCHAR 01CA
ENCODING 458
SWIDTH 495 0
DWIDTH 22 0
BBX 20 29 1 -1
BITMAP
E1E070
E1E070
F1E070
F1E070
F1E070
F1E070
F9E070
F9E070
F9E070
F9E070
FDE070
FDE070
FDE070
FFE070
F7E070
F7E070
F7E070
F7E070
F7E070
F3E070
F3E070
F3E0F0
F3E0F0
F1E0F0
F1E1F0
F1E7F0
F1E7E0
F0E7C0
000400
ENDCHAR
STARTCHAR 01CB
ENCODING 459
SWIDTH 495 0
DWIDTH 22 0
BBX 20 37 1 -8
BITMAP
0003E0
E1E3E0
E1E3F0
F1E3F0
F1E3E0
F1E080
F1E000
F9E000
F9E1E0
F9E1E0
F9E1E0
FDE1E0
FDE1E0
FDE1E0
FFE1E0
F7E1E0
F7E1E0
F7E1E0
F7E1E0
F7E1E0
F3E1E0
F3E1E0
F3E1E0
F3E1E0
F1E1E0
F1E1E0
F1E1E0
F1E1E0
F0E1E0
0001E0
0001E0
0003C0
006FC0
007FC0
007F80
007F00
001000
ENDCHAR
STARTCHAR 01CC
ENCODING 460
SWIDTH 495 0
DWIDTH 22 0
BBX 20 37 1 -8
BITMAP
0001F0
0001F0
0003F0
0001F0
0001F0
000040
000000
000000
7FC0F0
FFE0F0
FFF0F0
F9F0F0
F0F0F0
F078F0
F078F0
F078F0
F078F0
F078F0
F078F0
F078F0
F078F0
F078F0
F078F0
F078F0
F078F0
F078F0
F078F0
F078F0
F078F0
0000F0
0001E0
0001E0
0027E0
003FE0
003FC0
007F80
000800
ENDCHAR
STARTCHAR 01CD
ENCODING 461
SWIDTH 495 0
DWIDTH 22 0
BBX 21 37 1 0
BITMAP
020000
070E00
0F9F00
07FE00
03FC00
01F800
00F000
006000
000000
01F800
01F800
01FC00
03FC00
03FC00
03FE00
07FE00
07DE00
079F00
0F9F00
0F9F00
0F8F80
0F0F80
1F0F80
1F0F80
1F0FC0
3E07C0
3FFFC0
3FFFC0
3FFFE0
7FFFE0
7FFFE0
7C03E0
FC03F0
FC03F0
FC03F0
F801F0
F801F8
ENDCHAR
STARTCHAR 01CE
ENCODING 462
SWIDTH 495 0
DWIDTH 22 0
BBX 18 30 2 1
BITMAP
0E1C00
1F3E00
0FFE00
07FC00
03F000
01E000
00C000
000000
000000
3FFC00
3FFE00
3FFF00
3FFF80
103F80
000F80
000FC0
000FC0
07FFC0
1FFFC0
7FFFC0
7FFFC0
FE0FC0
FC0FC0
F80FC0
FC0FC0
FC0FC0
FFFFC0
7FFFC0
3FFFC0
1FFFC0
ENDCHAR
STARTCHAR 01CF
ENCODING 463
SWIDTH 495 0
DWIDTH 22 0
BBX 18 37 2 0
BITMAP
040000
0E1C00
1F3E00
0FFC00
07F800
03F000
01E000
00C000
000000
FFFFC0
FFFFC0
FFFFC0
FFFFC0
FFFFC0
03F000
03F000
03F000
03F000
03F000
03F000
03F000
03F000
03F000
03F000
03F000
03F000
03F000
03F000
03F000
03F000
03F000
03F000
FFFFC0
FFFFC0
FFFFC0
FFFFC0
FFFFC0
ENDCHAR
STARTCHAR 01D0
ENCODING 464
SWIDTH 495 0
DWIDTH 22 0
BBX 19 31 2 0
BITMAP
080000
1C1800
1E7C00
1FFC00
0FF800
07F000
03C000
018000
000000
000000
FFE000
FFE000
FFE000
FFE000
FFE000
07E000
07E000
07E000
07E000
07E000
07E000
07E000
07E000
07E000
07E000
03E000
03F0C0
03FFC0
01FFC0
01FFE0
007FC0
ENDCHAR
STARTCHAR 01D1
ENCODING 465
SWIDTH 495 0
DWIDTH 22 0
BBX 20 38 1 -1
BITMAP
020000
070E00
0F9F00
07FE00
03FC00
01F800
00F000
006000
000000
01FC00
07FF00
0FFF80
1FFF80
3FFFC0
3F0FE0
7E07E0
7E03E0
7C03E0
7C03F0
FC03F0
FC03F0
FC03F0
FC03F0
FC03F0
FC03F0
FC03F0
FC03F0
FC03F0
7C03F0
7C03E0
7E07E0
7E07E0
3F8FC0
3FFFC0
1FFF80
0FFF00
03FE00
007000
ENDCHAR
STARTCHAR 01D2
ENCODING 466
SWIDTH 495 0
DWIDTH 22 0
BBX 20 31 1 0
BITMAP
070E00
0F9F00
07FF00
03FE00
01F800
00F000
006000
000000
000000
03FC00
0FFF00
1FFF80
3FFFC0
3F9FE0
7E07E0
7E03E0
7C03F0
FC03F0
FC03F0
FC03F0
FC03F0
FC03F0
7C03F0
7E03E0
7E07E0
3F8FE0
3FFFC0
1FFF80
0FFF00
07FE00
006000
ENDCHAR
STARTCHAR 01D3
ENCODING 467
SWIDTH 495 0
DWIDTH 22 0
BBX 18 38 2 -1
BITMAP
040000
0E1C00
1F3E00
0FFC00
07F800
03F000
01E000
00C000
000000
F807C0
F807C0
F807C0
F807C0
F807C0
F807C0
F807C0
F807C0
F807C0
F807C0
F807C0
F807C0
F807C0
F807C0
F807C0
F807C0
F807C0
F807C0
F807C0
F807C0
F807C0
FC07C0
FC0FC0
FE1FC0
7FFF80
3FFF80
3FFF00
0FFC00
00C000
ENDCHAR
STARTCHAR 01D4
ENCODING 468
SWIDTH 495 0
DWIDTH 22 0
BBX 16 30 3 1
BITMAP
1C38
3E7C
1FFC
0FF8
07E0
03C0
0180
0000
0000
F81F
F81F
F81F
F81F
F81F
F81F
F81F
F81F
F81F
F81F
F81F
F81F
F81F
F81F
F81F
FC1F
FE1F
7FFF
7FFF
3FFF
1FFF
ENDCHAR
STARTCHAR 01D5
ENCODING 469
SWIDTH 495 0
DWIDTH 22 0
BBX 18 38 2 -1
BITMAP
0FFC00
0FFC00
0FFC00
000000
040C00
1F1E00
1F3E00
1F3E00
1E1E00
000000
000000
F807C0
F807C0
F807C0
F807C0
F807C0
F807C0
F807C0
F807C0
F807C0
F807C0
F807C0
F807C0
F807C0
F807C0
F807C0
F807C0
F807C0
F807C0
F807C0
FC07C0
FC0FC0
FE1FC0
7FFF80
3FFF80
3FFF00
0FFC00
00C000
ENDCHAR
STARTCHAR 01D6
ENCODING 470
SWIDTH 495 0
DWIDTH 22 0
BBX 16 33 3 0
BITMAP
1FF8
1FF8
1FF8
1FF8
0000
3C3C
3E7C
3E7C
3E3C
1C18
0000
0000
F81F
F81F
F81F
F81F
F81F
F81F
F81F
F81F
F81F
F81F
F81F
F81F
F81F
F81F
F81F
FC1F
FE1F
7FFF
7FFF
3FFF
1FFF
ENDCHAR
STARTCHAR 01D7
ENCODING 471
SWIDTH 495 0
DWIDTH 22 0
BBX 18 38 2 -1
BITMAP
002000
006000
00F000
19F200
3DEF00
7C8F80
7C0F80
3C0F00
000000
000000
F807C0
F807C0
F807C0
F807C0
F807C0
F807C0
F807C0
F807C0
F807C0
F807C0
F807C0
F807C0
F807C0
F807C0
F807C0
F807C0
F807C0
F807C0
F807C0
F807C0
FC07C0
FC0FC0
FE1FC0
7FFF80
3FFF80
3FFF00
0FFC00
00C000
ENDCHAR
STARTCHAR 01D8
ENCODING 472
SWIDTH 495 0
DWIDTH 22 0
BBX 16 35 3 0
BITMAP
0020
0070
0078
00F8
01F0
01E0
03C0
799E
F81F
F81F
781F
3004
0000
0000
F81F
F81F
F81F
F81F
F81F
F81F
F81F
F81F
F81F
F81F
F81F
F81F
F81F
F81F
F81F
FC1F
FE1F
7FFF
7FFF
3FFF
1FFF
ENDCHAR
STARTCHAR 01D9
ENCODING 473
SWIDTH 495 0
DWIDTH 22 0
BBX 18 38 2 -1
BITMAP
001000
03F000
03F800
19E200
3CCF00
7C0F80
7C0F80
3C0F00
000000
000000
F807C0
F807C0
F807C0
F807C0
F807C0
F807C0
F807C0
F807C0
F807C0
F807C0
F807C0
F807C0
F807C0
F807C0
F807C0
F807C0
F807C0
F807C0
F807C0
F807C0
FC07C0
FC0FC0
FE1FC0
7FFF80
3FFF80
3FFF00
0FFC00
00C000
ENDCHAR
STARTCHAR 01DA
ENCODING 474
SWIDTH 495 0
DWIDTH 22 0
BBX 16 34 3 0
BITMAP
0810
1C38
1FFC
0FF0
07E0
03C0
799E
F81F
F81F
781F
3004
0000
0000
F81F
F81F
F81F
F81F
F81F
F81F
F81F
F81F
F81F
F81F
F81F
F81F
F81F
F81F
F81F
FC1F
FE1F
7FFF
7FFF
3FFF
1FFF
ENDCHAR
STARTCHAR 01DB
ENCODING 475
SWIDTH 495 0
DWIDTH 22 0
BBX 18 37 2 0
BITMAP
018000
03E000
1BF200
3CEF00
7C4F80
7C0F80
3C0F00
000000
000000
F807C0
F807C0
F807C0
F807C0
F807C0
F807C0
F807C0
F807C0
F807C0
F807C0
F807C0
F807C0
F807C0
F807C0
F807C0
F807C0
F807C0
F807C0
F807C0
F807C0
FC07C0
FC0FC0
FE1FC0
7FFF80
3FFF80
3FFF00
0FFC00
00C000
ENDCHAR
STARTCHAR 01DC
ENCODING 476
SWIDTH 495 0
DWIDTH 22 0
BBX 16 35 3 0
BITMAP
0400
0E00
1E00
1F00
0F80
07C0
03C0
79DE
F81F
F81F
781F
3004
0000
0000
F81F
F81F
F81F
F81F
F81F
F81F
F81F
F81F
F81F
F81F
F81F
F81F
F81F
F81F
F81F
FC1F
FE1F
7FFF
7FFF
3FFF
1FFF
ENDCHAR
STARTCHAR 01DD
ENCODING 477
SWIDTH 495 0
DWIDTH 22 0
BBX 20 21 1 0
BITMAP
3FFC00
3FFF00
3FFF80
3FFFC0
3E7FC0
000FE0
0007E0
0003E0
0003F0
FFFFF0
FFFFF0
FFFFF0
FFFFF0
7C03E0
7C07E0
7E07E0
7F0FC0
3FFFC0
1FFF80
1FFF00
07FC00
ENDCHAR
STARTCHAR 01DE
ENCODING 478
SWIDTH 495 0
DWIDTH 22 0
BBX 21 37 1 0
BITMAP
07FE00
07FE00
07FE00
000000
020600
0F8F00
0F9F00
0F9F00
0F0F00
000000
000000
01F800
01FC00
03FC00
03FC00
03FE00
07FE00
07FE00
07DF00
0F9F00
0F9F00
0F9F80
0F0F80
1F0F80
1F0F80
1F0FC0
3E07C0
3FFFC0
3FFFE0
7FFFE0
7FFFE0
7FFFE0
7C03F0
FC03F0
FC03F0
F801F0
F801F8
ENDCHAR
STARTCHAR 01DF
ENCODING 479
SWIDTH 495 0
DWIDTH 22 0
BBX 18 33 2 0
BITMAP
0FFC00
0FFC00
0FFC00
0FFC00
000000
1E1E00
1F3E00
1F3E00
1F1E00
0E0C00
000000
000000
3FFC00
3FFE00
3FFF00
3FFF80
103F80
000F80
000FC0
000FC0
07FFC0
1FFFC0
7FFFC0
7FFFC0
FE0FC0
FC0FC0
F80FC0
FC0FC0
FC0FC0
FFFFC0
7FFFC0
3FFFC0
1FFFC0
ENDCHAR
STARTCHAR 01E0
ENCODING 480
SWIDTH 495 0
DWIDTH 22 0
BBX 21 37 1 0
BITMAP
07FE00
07FE00
07FE00
000000
006000
00F000
00F800
00F800
00F000
000000
000000
01F800
01FC00
03FC00
03FC00
03FE00
07FE00
07FE00
07DF00
0F9F00
0F9F00
0F9F80
0F0F80
1F0F80
1F0F80
1F0FC0
3E07C0
3FFFC0
3FFFE0
7FFFE0
7FFFE0
7FFFE0
7C03F0
FC03F0
FC03F0
F801F0
F801F8
ENDCHAR
STARTCHAR 01E1
ENCODING 481
SWIDTH 495 0
DWIDTH 22 0
BBX 18 33 2 0
BITMAP
0FFC00
0FFC00
0FFC00
0FFC00
000000
01E000
01F000
01F000
01E000
00C000
000000
000000
3FFC00
3FFE00
3FFF00
3FFF80
103F80
000F80
000FC0
000FC0
07FFC0
1FFFC0
7FFFC0
7FFFC0
FE0FC0
FC0FC0
F80FC0
FC0FC0
FC0FC0
FFFFC0
7FFFC0
3FFFC0
1FFFC0
ENDCHAR
STARTCHAR 01E2
ENCODING 482
SWIDTH 495 0
DWIDTH 22 0
BBX 21 35 1 0
BITMAP
01FFF0
01FFF0
01FFF0
01FFF0
000000
000000
000000
00FFF0
01FFF0
01FFF0
01FFF0
03FFF0
03FE00
03FE00
07FE00
07BE00
07BE00
0FBE00
0FBFE0
0F3FE0
1F3FE0
1F3FE0
1F3FE0
3E3E00
3FFE00
3FFE00
3FFE00
7FFE00
7FFE00
7C3E00
7C3FF8
FC3FF8
FC3FF8
F83FF8
F83FF8
ENDCHAR
STARTCHAR 01E3
ENCODING 483
SWIDTH 495 0
DWIDTH 22 0
BBX 21 29 1 0
BITMAP
0FFF80
0FFF80
0FFF80
0FFF80
000000
000000
000000
000000
3F8FC0
3FFFE0
3FFFE0
3FFFF0
21FCF0
00F8F0
00F8F0
00F878
0FF878
3FFFF8
7FFFF8
7FFFF8
F8F800
F0F800
F07800
F07C00
F87E20
7FFFE0
7FFFF0
3FFFF0
1FCFF0
ENDCHAR
STARTCHAR 01E4
ENCODING 484
SWIDTH 495 0
DWIDTH 22 0
BBX 20 29 1 -1
BITMAP
00FF00
03FFC0
0FFFC0
1FFFC0
1FFFC0
3F8080
3F0000
7E0000
7E0000
7C0000
FC0000
FC0000
FC0000
FC07C0
FC07C0
FC07C0
FC3FF0
FC3FF0
FC3FF0
7C3FF0
7E07C0
7E07C0
3F07C0
3FC7C0
1FFFC0
1FFFC0
07FFC0
03FFC0
003000
ENDCHAR
STARTCHAR 01E5
ENCODING 485
SWIDTH 495 0
DWIDTH 22 0
BBX 20 28 1 -7
BITMAP
03FF80
0FFFC0
1FFFC0
3FFFC0
7F0FC0
7E0FC0
7E0FC0
7C0FC0
FC7FF0
FC7FF0
FC7FF0
7C0FC0
7C0FC0
7E0FC0
7E0FC0
3FFFC0
3FFFC0
1FFFC0
0FFFC0
018FC0
000FC0
000F80
001F80
383F80
7FFF00
7FFF00
7FFE00
3FF800
ENDCHAR
STARTCHAR 01E6
ENCODING 486
SWIDTH 495 0
DWIDTH 22 0
BBX 19 38 1 -1
BITMAP
010100
01C380
03E7C0
03FF80
00FF00
007E00
003C00
001000
000000
00FF80
03FFE0
07FFE0
0FFFE0
1FFFE0
3F8040
3F0000
7E0000
7E0000
7C0000
FC0000
FC0000
FC0000
FC0000
FC03E0
FC03E0
FC03E0
FC03E0
7C03E0
7C03E0
7E03E0
7E03E0
3F03E0
3FC3E0
1FFFE0
0FFFE0
07FFE0
03FFE0
001000
ENDCHAR
STARTCHAR 01E7
ENCODING 487
SWIDTH 495 0
DWIDTH 22 0
BBX 18 38 1 -7
BITMAP
020200
030700
078F00
07FF00
03FE00
01FC00
00F800
003000
000000
000000
03FF80
0FFFC0
1FFFC0
3FFFC0
3F87C0
7E07C0
7E07C0
7C07C0
FC07C0
FC07C0
FC07C0
7C07C0
7C07C0
7E07C0
7F07C0
3FFFC0
3FFFC0
1FFFC0
0FFFC0
01C7C0
0007C0
0007C0
000FC0
381FC0
7FFF80
7FFF80
7FFE00
3FFC00
ENDCHAR
STARTCHAR 01E8
ENCODING 488
SWIDTH 495 0
DWIDTH 22 0
BBX 20 37 2 0
BITMAP
040000
0E1C00
1F3E00
0FFC00
07F800
03F000
01E000
00C000
000000
F807E0
F80FC0
F80FC0
F81F80
F81F80
F83F00
F87E00
F87E00
F8FC00
F9F800
F9F000
FBF000
FFE000
FFE000
FFF000
FBF800
F9F800
F9FC00
F8FE00
F87F00
F83F00
F83F80
F81F80
F80FC0
F80FC0
F807E0
F807E0
F807F0
ENDCHAR
STARTCHAR 01E9
ENCODING 489
SWIDTH 495 0
DWIDTH 22 0
BBX 18 37 3 0
BITMAP
404000
E1C000
FFE000
7FC000
3F8000
1E0000
040000
000000
000000
780000
F80000
F80000
F80000
F80000
F80000
F80000
F81FC0
F83F80
F83F00
F87E00
F8FC00
F8F800
F9F000
FBE000
FFE000
FFC000
FFE000
FBF000
F9F800
F9FC00
F8FC00
F87E00
F83F00
F83F80
F81F80
F80FC0
F80FC0
ENDCHAR
STARTCHAR 01EA
ENCODING 490
SWIDTH 495 0
DWIDTH 22 0
BBX 20 36 1 -8
BITMAP
01FC00
07FF00
0FFF80
1FFF80
3FFFC0
3F0FE0
7E07E0
7E03E0
7C03E0
7C03F0
FC03F0
FC03F0
FC03F0
FC03F0
FC03F0
FC03F0
FC03F0
FC03F0
FC03F0
7C03F0
7C03E0
7E07E0
7E07E0
3F8FC0
3FFFC0
1FFF80
0FFF00
07FE00
00F800
00F000
01E000
03E000
03F400
03FC00
01FC00
002000
ENDCHAR
STARTCHAR 01EB
ENCODING 491
SWIDTH 495 0
DWIDTH 22 0
BBX 20 29 1 -8
BITMAP
03FC00
0FFF00
1FFF80
3FFFC0
3F9FE0
7E07E0
7E03E0
7C03F0
FC03F0
FC03F0
FC03F0
FC03F0
FC03F0
7C03F0
7E03E0
7E07E0
3F8FE0
3FFFC0
1FFF80
0FFF00
03FE00
007C00
00F800
01F000
01F000
01F200
01FE00
00FE00
002000
ENDCHAR
STARTCHAR 01EC
ENCODING 492
SWIDTH 495 0
DWIDTH 22 0
BBX 20 43 1 -8
BITMAP
0FFF80
0FFF80
0FFF80
0FFF80
000000
000000
000000
01FC00
07FF00
0FFF80
1FFF80
3FFFC0
3F0FE0
7E07E0
7E03E0
7C03E0
7C03F0
FC03F0
FC03F0
FC03F0
FC03F0
FC03F0
FC03F0
FC03F0
FC03F0
FC03F0
7C03F0
7C03E0
7E07E0
7E07E0
3F8FC0
3FFFC0
1FFF80
0FFF00
07FE00
00F800
00F000
01E000
03E000
03F400
03FC00
01FC00
002000
ENDCHAR
STARTCHAR 01ED
ENCODING 493
SWIDTH 495 0
DWIDTH 22 0
BBX 20 37 1 -8
BITMAP
0FFF80
0FFF80
0FFF80
0FFF80
000000
000000
000000
000000
03FC00
0FFF00
1FFF80
3FFFC0
3F9FE0
7E07E0
7E03E0
7C03F0
FC03F0
FC03F0
FC03F0
FC03F0
FC03F0
7C03F0
7E03E0
7E07E0
3F8FE0
3FFFC0
1FFF80
0FFF00
03FE00
007C00
00F800
01F000
01F000
01F200
01FE00
00FE00
002000
ENDCHAR
STARTCHAR 01EE
ENCODING 494
SWIDTH 495 0
DWIDTH 22 0
BBX 20 38 1 -1
BITMAP
020000
070E00
0F9F00
07FE00
03FC00
01F800
00F000
006000
000000
7FFFF0
7FFFF0
7FFFF0
7FFFF0
7FFFE0
0007C0
000FC0
001F80
003F00
007E00
00FC00
01F800
03FC00
03FF80
03FFC0
03FFE0
0007F0
0003F0
0001F0
0001F0
0001F0
0003F0
2003F0
7C0FF0
7FFFE0
7FFFE0
FFFF80
3FFF00
00C000
ENDCHAR
STARTCHAR 01EF
ENCODING 495
SWIDTH 495 0
DWIDTH 22 0
BBX 19 37 1 -6
BITMAP
070E00
0F9F00
07FF00
03FE00
01F800
00F000
006000
000000
000000
7FFFC0
7FFFC0
7FFFC0
7FFFC0
7FFF80
001F80
003F00
007E00
00FC00
00F800
01F800
03F000
07FC00
07FF00
07FF80
001F80
000FC0
0007C0
0007E0
0007E0
0007E0
0007C0
000FC0
7C7FC0
7FFF80
7FFF80
FFFE00
3FF800
ENDCHAR
STARTCHAR 01F0
ENCODING 496
SWIDTH 495 0
DWIDTH 22 0
BBX 16 38 2 -7
BITMAP
0E1C
1F3E
0FFE
07FC
03F0
01E0
00C0
0000
0000
3FFF
3FFF
3FFF
3FFF
3FFF
003F
003F
003F
003F
003F
003F
003F
003F
003F
003F
003F
003F
003F
003F
003F
003F
003F
203F
7C7E
7FFE
7FFC
FFFC
3FF0
0100
ENDCHAR
STARTCHAR 01F1
ENCODING 497
SWIDTH 495 0
DWIDTH 22 0
BBX 21 28 1 0
BITMAP
7C07F8
FF07F8
FF87F8
FFC7F8
F3C7F8
F1E070
F1E0F0
F1E0F0
F1E0F0
F1E0E0
F0E1E0
F0E1E0
F0F1E0
F0F1C0
F0F3C0
F0F3C0
F0F3C0
F0E380
F1E780
F1E780
F1E780
F1E700
F1EF00
F3CF00
FFCFF8
FF8FF8
FF8FF8
FE0FF8
ENDCHAR
STARTCHAR 01F2
ENCODING 498
SWIDTH 495 0
DWIDTH 22 0
BBX 21 28 1 0
BITMAP
7C0000
FF0000
FF8000
FFC000
F3C000
F1E000
F1E000
F1E7F8
F1E7F8
F1E7F8
F0E7F8
F0E078
F0F0F0
F0F0F0
F0F1E0
F0F1E0
F0F1E0
F0E3C0
F1E3C0
F1E3C0
F1E380
F1E780
F1E780
F3C700
FFCFF8
FF8FF8
FF8FF8
FE0FF8
ENDCHAR
STARTCHAR 01F3
ENCODING 499
SWIDTH 495 0
DWIDTH 22 0
BBX 22 32 0 -1
BITMAP
003000
00F000
00F000
00F000
00F000
00F000
00F000
00F000
00F000
00F000
1FF3FC
3FF3FC
3FF3FC
7FF3FC
78F03C
78F078
78F078
78F0F0
F0F0F0
F0F0F0
F0F1E0
F0F1E0
F0F1E0
70F1C0
70F3C0
78F3C0
78F380
7FF7FC
3FF7FC
1FF7FC
0FE7FC
030000
ENDCHAR
STARTCHAR 01F4
ENCODING 500
SWIDTH 495 0
DWIDTH 22 0
BBX 19 37 1 0
BITMAP
001C00
003E00
00FE00
01FE00
03F800
01E000
008000
000000
00FF80
03FFE0
07FFE0
0FFFE0
1FFFE0
3F8040
3F0000
7E0000
7E0000
7C0000
FC0000
FC0000
FC0000
FC0000
FC03E0
FC03E0
FC03E0
FC03E0
7C03E0
7C03E0
7E03E0
7E03E0
3F03E0
3FC3E0
1FFFE0
0FFFE0
07FFE0
03FFE0
001000
ENDCHAR
STARTCHAR 01F5
ENCODING 501
SWIDTH 495 0
DWIDTH 22 0
BBX 18 38 1 -7
BITMAP
000800
001C00
003C00
00FE00
01FE00
03F800
01E000
018000
000000
000000
03FF80
0FFFC0
1FFFC0
3FFFC0
3F87C0
7E07C0
7E07C0
7C07C0
FC07C0
FC07C0
FC07C0
7C07C0
7C07C0
7E07C0
7F07C0
3FFFC0
3FFFC0
1FFFC0
0FFFC0
01C7C0
0007C0
0007C0
000FC0
381FC0
7FFF80
7FFF80
7FFE00
3FFC00
ENDCHAR
STARTCHAR 01F6
ENCODING 502
SWIDTH 495 0
DWIDTH 22 0
BBX 20 29 1 -1
BITMAP
F8F800
F8F800
F8F800
F8F800
F8F800
F8F800
F8F800
F8F8F0
F8F8F0
F8F8F0
F8F8F0
FFF8F0
FFF8F0
FFF8F0
FFF8F0
FFF8F0
F8F8F0
F8F8F0
F8F8F0
F8F8F0
F8F8F0
F8F8F0
F8F8F0
F878F0
F87DF0
F87FE0
F83FE0
F83FC0
000700
ENDCHAR
STARTCHAR 01F7
ENCODING 503
SWIDTH 495 0
DWIDTH 22 0
BBX 19 35 2 -7
BITMAP
03F000
7FFE00
FFFF00
FFFF80
FFFFC0
FC1FC0
FC0FE0
FC07E0
FC07E0
FC07E0
FC03E0
FC07E0
FC07E0
FC07E0
FC07E0
FC07C0
FC0FC0
FC0FC0
FC1F80
FC3F80
FC7F00
FCFE00
FFFC00
FFF800
FFF000
FFE000
FF8000
FE0000
FC0000
FC0000
FC0000
FC0000
FC0000
FC0000
FC0000
ENDCHAR
STARTCHAR 01F8
ENCODING 504
SWIDTH 495 0
DWIDTH 22 0
BBX 18 37 2 0
BITMAP
020000
038000
07C000
07F000
0FF800
03F800
007800
001000
000000
F007C0
F807C0
FC07C0
FC07C0
FE07C0
FE07C0
FF07C0
FF07C0
FF87C0
FF87C0
FFC7C0
FBC7C0
FBE7C0
F9E7C0
F8F7C0
F8F7C0
F87FC0
F87FC0
F83FC0
F83FC0
F83FC0
F81FC0
F81FC0
F80FC0
F80FC0
F807C0
F807C0
F803C0
ENDCHAR
STARTCHAR 01F9
ENCODING 505
SWIDTH 495 0
DWIDTH 22 0
BBX 17 30 3 1
BITMAP
0E0000
1F0000
1F8000
3FE000
0FF000
03E000
00C000
000000
000000
7FF800
FFFC00
FFFE00
FFFF00
FCFF00
F83F00
F81F00
F81F80
F81F80
F81F80
F81F80
F81F80
F81F80
F81F80
F81F80
F81F80
F81F80
F81F80
F81F80
F81F80
F81F80
ENDCHAR
STARTCHAR 01FA
ENCODING 506
SWIDTH 495 0
DWIDTH 22 0
BBX 21 37 1 0
BITMAP
000800
003800
00FC00
03F800
01C000
000000
00F000
01F800
03FC00
038C00
038C00
03FC00
01FC00
03FC00
03FC00
03FE00
07FE00
07FE00
079F00
079F00
0F9F00
0F8F00
0F0F80
1F0F80
1F0F80
1F0FC0
3E07C0
3FFFC0
3FFFC0
3FFFE0
7FFFE0
7C03E0
7C03F0
FC03F0
FC03F0
F801F0
F801F8
ENDCHAR
STARTCHAR 01FB
ENCODING 507
SWIDTH 495 0
DWIDTH 22 0
BBX 18 37 2 0
BITMAP
001000
007000
01F800
07F000
038000
000000
01E000
03F000
07F800
071800
071800
07B800
03F000
01E000
000000
000000
3FFC00
3FFE00
3FFF00
3FFF80
103F80
000F80
000FC0
000FC0
07FFC0
1FFFC0
7FFFC0
7FFFC0
FE0FC0
FC0FC0
F80FC0
FC0FC0
FC0FC0
FFFFC0
7FFFC0
3FFFC0
1FFFC0
ENDCHAR
STARTCHAR 01FC
ENCODING 508
SWIDTH 495 0
DWIDTH 22 0
BBX 21 37 1 0
BITMAP
000100
000380
000780
001FC0
003FC0
007F00
003C00
001000
000000
00FFF0
01FFF0
01FFF0
01FFF0
03FFF0
03FE00
03FE00
07FE00
07BE00
07BE00
0FBE00
0FBFE0
0F3FE0
1F3FE0
1F3FE0
1F3FE0
3E3E00
3FFE00
3FFE00
3FFE00
7FFE00
7FFE00
7C3E00
7C3FF8
FC3FF8
FC3FF8
F83FF8
F83FF8
ENDCHAR
STARTCHAR 01FD
ENCODING 509
SWIDTH 495 0
DWIDTH 22 0
BBX 21 31 1 0
BITMAP
000400
000C00
001E00
007F00
00FF00
01FC00
00F000
00C000
000000
000000
3F8FC0
3FFFE0
3FFFE0
3FFFF0
21FCF0
00F8F0
00F8F0
00F878
0FF878
3FFFF8
7FFFF8
7FFFF8
F8F800
F0F800
F07800
F07C00
F87E20
7FFFE0
7FFFF0
3FFFF0
1FCFF0
ENDCHAR
STARTCHAR 01FE
ENCODING 510
SWIDTH 495 0
DWIDTH 22 0
BBX 20 39 1 -2
BITMAP
000800
001C00
007C00
00FE00
01FE00
03F800
01E000
018000
000180
01FFE0
07FFC0
0FFFC0
1FFF80
3FFFC0
3F0FE0
7E0FE0
7E1FE0
7C1FE0
7C3FF0
FC3FF0
FC7FF0
FC7BF0
FCFBF0
FCF3F0
FDF3F0
FDE3F0
FFE3F0
FFC3F0
7FC3F0
7F83E0
7F87E0
7F07E0
3F0FC0
3FFFC0
3FFF80
3FFF00
7FFE00
387000
080000
ENDCHAR
STARTCHAR 01FF
ENCODING 511
SWIDTH 495 0
DWIDTH 22 0
BBX 20 33 1 -2
BITMAP
000800
001C00
003C00
00FE00
01FE00
03F800
01E000
018000
000000
0000C0
03FDE0
0FFFE0
1FFFC0
3FFFC0
3FFFC0
7E0FE0
7E1FE0
7C3FF0
FC3FF0
FC7BF0
FCF3F0
FDF3F0
FDE3F0
7FC3F0
7F83E0
7F87E0
3F0FE0
3FFFC0
3FFF80
7FFF00
7FFE00
307000
100000
ENDCHAR
STARTCHAR 0200
ENCODING 512
SWIDTH 495 0
DWIDTH 22 0
BBX 21 37 1 0
BITMAP
080800
1C1800
3E3C00
3E3E00
1F1F00
0F8F80
078780
030200
000000
01F800
01F800
01FC00
03FC00
03FC00
03FE00
07FE00
07DE00
079F00
0F9F00
0F9F00
0F8F80
0F0F80
1F0F80
1F0F80
1F0FC0
3E07C0
3FFFC0
3FFFC0
3FFFE0
7FFFE0
7FFFE0
7C03E0
FC03F0
FC03F0
FC03F0
F801F0
F801F8
ENDCHAR
STARTCHAR 0201
ENCODING 513
SWIDTH 495 0
DWIDTH 22 0
BBX 18 30 2 1
BITMAP
181800
3C3800
7E7C00
3E3E00
1F1F00
078F00
030600
000000
000000
3FFC00
3FFE00
3FFF00
3FFF80
103F80
000F80
000FC0
000FC0
07FFC0
1FFFC0
7FFFC0
7FFFC0
FE0FC0
FC0FC0
F80FC0
FC0FC0
FC0FC0
FFFFC0
7FFFC0
3FFFC0
1FFFC0
ENDCHAR
STARTCHAR 0202
ENCODING 514
SWIDTH 495 0
DWIDTH 22 0
BBX 21 36 1 0
BITMAP
01F800
07FE00
07FF00
0FFF00
0F0F00
0F0F80
000000
000000
01F800
01F800
01FC00
03FC00
03FC00
03FE00
07FE00
07DE00
079F00
0F9F00
0F9F00
0F8F80
0F0F80
1F0F80
1F0F80
1F0FC0
3E07C0
3FFFC0
3FFFC0
3FFFE0
7FFFE0
7FFFE0
7C03E0
FC03F0
FC03F0
FC03F0
F801F0
F801F8
ENDCHAR
STARTCHAR 0203
ENCODING 515
SWIDTH 495 0
DWIDTH 22 0
BBX 18 30 2 0
BITMAP
03F000
07FC00
0FFC00
1FFE00
1E1E00
1E1F00
1E0F00
000000
000000
3FFC00
3FFE00
3FFF00
3FFF80
103F80
000F80
000FC0
000FC0
07FFC0
1FFFC0
7FFFC0
7FFFC0
FE0FC0
FC0FC0
F80FC0
FC0FC0
FC0FC0
FFFFC0
7FFFC0
3FFFC0
1FFFC0
ENDCHAR
STARTCHAR 0204
ENCODING 516
SWIDTH 495 0
DWIDTH 22 0
BBX 17 37 3 0
BITMAP
202000
706000
F8F000
F8F800
7C7C00
3E3E00
1E1E00
0C0800
000000
FFFF00
FFFF00
FFFF00
FFFF00
FFFF00
F80000
F80000
F80000
F80000
F80000
F80000
FFFE00
FFFE00
FFFE00
FFFE00
FFFE00
F80000
F80000
F80000
F80000
F80000
F80000
F80000
FFFF80
FFFF80
FFFF80
FFFF80
FFFF80
ENDCHAR
STARTCHAR 0205
ENCODING 517
SWIDTH 495 0
DWIDTH 22 0
BBX 20 30 1 1
BITMAP
0C0C00
1E1C00
3F3E00
1F1F00
0F8F80
03C780
018300
000000
000000
03FE00
0FFF00
1FFF80
1FFFC0
3F8FE0
7E07E0
7E03E0
7C03E0
FC03F0
FFFFF0
FFFFF0
FFFFF0
FC0000
7C0000
7E0000
7F0000
3FC3C0
3FFFC0
1FFFC0
0FFFC0
03FFC0
ENDCHAR
STARTCHAR 0206
ENCODING 518
SWIDTH 495 0
DWIDTH 22 0
BBX 17 36 3 0
BITMAP
07F000
0FF800
1FFC00
1FFC00
3E3E00
3C1E00
000000
000000
FFFF00
FFFF00
FFFF00
FFFF00
FFFF00
F80000
F80000
F80000
F80000
F80000
F80000
FFFE00
FFFE00
FFFE00
FFFE00
FFFE00
F80000
F80000
F80000
F80000
F80000
F80000
F80000
FFFF80
FFFF80
FFFF80
FFFF80
FFFF80
ENDCHAR
STARTCHAR 0207
ENCODING 519
SWIDTH 495 0
DWIDTH 22 0
BBX 20 30 1 0
BITMAP
01F800
03FE00
07FE00
0FFF00
0F0F00
0F0F80
0F0780
000000
000000
03FE00
0FFF00
1FFF80
1FFFC0
3F8FE0
7E07E0
7E03E0
7C03E0
FC03F0
FFFFF0
FFFFF0
FFFFF0
FC0000
7C0000
7E0000
7F0000
3FC3C0
3FFFC0
1FFFC0
0FFFC0
03FFC0
ENDCHAR
STARTCHAR 0208
ENCODING 520
SWIDTH 495 0
DWIDTH 22 0
BBX 18 37 2 0
BITMAP
101000
383000
7C7800
7C7C00
3E3E00
1F1F00
0F0F00
060400
000000
FFFFC0
FFFFC0
FFFFC0
FFFFC0
FFFFC0
03F000
03F000
03F000
03F000
03F000
03F000
03F000
03F000
03F000
03F000
03F000
03F000
03F000
03F000
03F000
03F000
03F000
03F000
FFFFC0
FFFFC0
FFFFC0
FFFFC0
FFFFC0
ENDCHAR
STARTCHAR 0209
ENCODING 521
SWIDTH 495 0
DWIDTH 22 0
BBX 19 31 2 0
BITMAP
002000
306000
78F000
F8F800
7C7C00
3E3E00
1E1E00
0C0C00
000000
000000
FFE000
FFE000
FFE000
FFE000
FFE000
07E000
07E000
07E000
07E000
07E000
07E000
07E000
07E000
07E000
07E000
03E000
03F0C0
03FFC0
01FFC0
01FFE0
007FC0
ENDCHAR
STARTCHAR 020A
ENCODING 522
SWIDTH 495 0
DWIDTH 22 0
BBX 18 36 2 0
BITMAP
03F000
0FFC00
0FFE00
1FFE00
1E1E00
1E1F00
000000
000000
FFFFC0
FFFFC0
FFFFC0
FFFFC0
FFFFC0
03F000
03F000
03F000
03F000
03F000
03F000
03F000
03F000
03F000
03F000
03F000
03F000
03F000
03F000
03F000
03F000
03F000
03F000
FFFFC0
FFFFC0
FFFFC0
FFFFC0
FFFFC0
ENDCHAR
STARTCHAR 020B
ENCODING 523
SWIDTH 495 0
DWIDTH 22 0
BBX 19 30 2 0
BITMAP
07C000
1FF000
3FF800
3FF800
7C7C00
783C00
783C00
000000
000000
FFE000
FFE000
FFE000
FFE000
FFE000
07E000
07E000
07E000
07E000
07E000
07E000
07E000
07E000
07E000
07E000
03E000
03F0C0
03FFC0
01FFC0
01FFE0
007FC0
ENDCHAR
STARTCHAR 020C
ENCODING 524
SWIDTH 495 0
DWIDTH 22 0
BBX 20 38 1 -1
BITMAP
080800
1C1800
3E3C00
3E3E00
1F1F00
0F8F80
078780
030300
000000
01FC00
07FF00
0FFF80
1FFF80
3FFFC0
3F0FE0
7E07E0
7E03E0
7C03E0
7C03F0
FC03F0
FC03F0
FC03F0
FC03F0
FC03F0
FC03F0
FC03F0
FC03F0
FC03F0
7C03F0
7C03E0
7E07E0
7E07E0
3F8FC0
3FFFC0
1FFF80
0FFF00
03FE00
007000
ENDCHAR
STARTCHAR 020D
ENCODING 525
SWIDTH 495 0
DWIDTH 22 0
BBX 20 32 1 -1
BITMAP
000800
0C1800
1E3C00
3E3E00
1F1F00
0F8F80
078780
030300
000000
000000
03FC00
0FFF00
1FFF80
3FFFC0
3F9FE0
7E07E0
7E03E0
7C03F0
FC03F0
FC03F0
FC03F0
FC03F0
FC03F0
7C03F0
7E03E0
7E07E0
3F8FE0
3FFFC0
1FFF80
0FFF00
07FE00
006000
ENDCHAR
STARTCHAR 020E
ENCODING 526
SWIDTH 495 0
DWIDTH 22 0
BBX 20 37 1 -1
BITMAP
01F800
07FE00
07FF00
0FFF00
0F0F00
0F0F80
000000
000000
01FC00
07FF00
0FFF80
1FFF80
3FFFC0
3F0FE0
7E07E0
7E03E0
7C03E0
7C03F0
FC03F0
FC03F0
FC03F0
FC03F0
FC03F0
FC03F0
FC03F0
FC03F0
FC03F0
7C03F0
7C03E0
7E07E0
7E07E0
3F8FC0
3FFFC0
1FFF80
0FFF00
03FE00
007000
ENDCHAR
STARTCHAR 020F
ENCODING 527
SWIDTH 495 0
DWIDTH 22 0
BBX 20 31 1 -1
BITMAP
01F800
03FE00
07FE00
0FFF00
0F0F00
0F0F80
0F0780
000000
000000
03FC00
0FFF00
1FFF80
3FFFC0
3F9FE0
7E07E0
7E03E0
7C03F0
FC03F0
FC03F0
FC03F0
FC03F0
FC03F0
7C03F0
7E03E0
7E07E0
3F8FE0
3FFFC0
1FFF80
0FFF00
07FE00
006000
ENDCHAR
STARTCHAR 0210
ENCODING 528
SWIDTH 495 0
DWIDTH 22 0
BBX 20 37 2 0
BITMAP
002000
307000
78F000
FCF800
7C7C00
3E3E00
0E1E00
040C00
000000
1FE000
FFFC00
FFFE00
FFFF00
FFFF80
FC3F80
FC0FC0
FC0FC0
FC0FC0
FC0FC0
FC0FC0
FC0FC0
FC1F80
FFFF80
FFFF00
FFFE00
FFFC00
FFFC00
FC7E00
FC3F00
FC3F00
FC1F80
FC1F80
FC0FC0
FC0FC0
FC07E0
FC07E0
FC03F0
ENDCHAR
STARTCHAR 0211
ENCODING 529
SWIDTH 495 0
DWIDTH 22 0
BBX 16 31 4 0
BITMAP
2000
6060
F0F0
F9F8
7CF8
3E7C
1E1E
0C0C
0000
0000
1FFF
FFFF
FFFF
FFFF
FFFF
F800
F800
F800
F800
F800
F800
F800
F800
F800
F800
F800
F800
F800
F800
F800
F800
ENDCHAR
STARTCHAR 0212
ENCODING 530
SWIDTH 495 0
DWIDTH 22 0
BBX 20 36 2 0
BITMAP
07F000
0FF800
1FFC00
3FFC00
3C3E00
3C1E00
000000
000000
1FE000
FFFC00
FFFE00
FFFF00
FFFF80
FC3F80
FC0FC0
FC0FC0
FC0FC0
FC0FC0
FC0FC0
FC0FC0
FC1F80
FFFF80
FFFF00
FFFE00
FFFC00
FFFC00
FC7E00
FC3F00
FC3F00
FC1F80
FC1F80
FC0FC0
FC0FC0
FC07E0
FC07E0
FC03F0
ENDCHAR
STARTCHAR 0213
ENCODING 531
SWIDTH 495 0
DWIDTH 22 0
BBX 16 30 4 0
BITMAP
03E0
0FF8
1FFC
3FFC
3E3E
3C1E
3C1E
0000
0000
1FFF
FFFF
FFFF
FFFF
FFFF
F800
F800
F800
F800
F800
F800
F800
F800
F800
F800
F800
F800
F800
F800
F800
F800
ENDCHAR
STARTCHAR 0214
ENCODING 532
SWIDTH 495 0
DWIDTH 22 0
BBX 18 38 2 -1
BITMAP
101000
383000
7C7800
7C7C00
3E3E00
1F1F00
0F0F00
060600
000000
F807C0
F807C0
F807C0
F807C0
F807C0
F807C0
F807C0
F807C0
F807C0
F807C0
F807C0
F807C0
F807C0
F807C0
F807C0
F807C0
F807C0
F807C0
F807C0
F807C0
F807C0
FC07C0
FC0FC0
FE1FC0
7FFF80
3FFF80
3FFF00
0FFC00
00C000
ENDCHAR
STARTCHAR 0215
ENCODING 533
SWIDTH 495 0
DWIDTH 22 0
BBX 16 31 3 0
BITMAP
0020
3060
78F0
F8F8
7C7C
3E3E
1E1E
0C0C
0000
0000
F81F
F81F
F81F
F81F
F81F
F81F
F81F
F81F
F81F
F81F
F81F
F81F
F81F
F81F
F81F
FC1F
FE1F
7FFF
7FFF
3FFF
1FFF
ENDCHAR
STARTCHAR 0216
ENCODING 534
SWIDTH 495 0
DWIDTH 22 0
BBX 18 37 2 -1
BITMAP
03F000
0FFC00
0FFE00
1FFE00
1E1E00
1E1F00
000000
000000
F807C0
F807C0
F807C0
F807C0
F807C0
F807C0
F807C0
F807C0
F807C0
F807C0
F807C0
F807C0
F807C0
F807C0
F807C0
F807C0
F807C0
F807C0
F807C0
F807C0
F807C0
FC07C0
FC0FC0
FE1FC0
7FFF80
3FFF80
3FFF00
0FFC00
00C000
ENDCHAR
STARTCHAR 0217
ENCODING 535
SWIDTH 495 0
DWIDTH 22 0
BBX 16 30 3 0
BITMAP
07E0
0FF8
1FF8
3FFC
3C3C
3C3E
3C1E
0000
0000
F81F
F81F
F81F
F81F
F81F
F81F
F81F
F81F
F81F
F81F
F81F
F81F
F81F
F81F
F81F
FC1F
FE1F
7FFF
7FFF
3FFF
1FFF
ENDCHAR
STARTCHAR 0218
ENCODING 536
SWIDTH 495 0
DWIDTH 22 0
BBX 18 36 2 -8
BITMAP
07FC00
1FFF80
3FFF80
7FFF80
7FFF00
FC0100
FC0000
FC0000
FC0000
FE0000
7F0000
7FC000
3FF800
1FFE00
0FFF00
03FF80
007FC0
001FC0
000FC0
0007C0
0007C0
0007C0
400FC0
781FC0
FFFFC0
FFFF80
FFFF00
3FFC00
01C000
000000
01E000
01E000
07E000
0FE000
0FC000
020000
ENDCHAR
STARTCHAR 0219
ENCODING 537
SWIDTH 495 0
DWIDTH 22 0
BBX 18 29 2 -8
BITMAP
07FF00
1FFF80
3FFF00
7FFF00
7F0700
7C0000
7E0000
7F0000
7FE000
3FF800
1FFE00
07FF00
01FF80
003F80
000FC0
400FC0
781FC0
7FFF80
7FFF80
FFFF00
3FFC00
000000
000000
01E000
01E000
07E000
0FE000
0FC000
020000
ENDCHAR
STARTCHAR 021A
ENCODING 538
SWIDTH 495 0
DWIDTH 22 0
BBX 20 36 1 -8
BITMAP
FFFFF0
FFFFF0
FFFFF0
FFFFF0
FFFFF0
01F800
01F800
01F800
01F800
01F800
01F800
01F800
01F800
01F800
01F800
01F800
01F800
01F800
01F800
01F800
01F800
01F800
01F800
01F800
01F800
01F800
01F800
01F800
000000
000000
00F800
00F800
01F800
07F000
07E000
038000
ENDCHAR
STARTCHAR 021B
ENCODING 539
SWIDTH 495 0
DWIDTH 22 0
BBX 19 35 2 -8
BITMAP
01C000
0FC000
0FC000
0FC000
0FC000
0FC000
FFFFE0
FFFFE0
FFFFE0
FFFFE0
FFFFE0
0FC000
0FC000
0FC000
0FC000
0FC000
0FC000
0FC000
0FC000
0FC000
0FC000
0FC000
07E0C0
07FFE0
07FFE0
03FFE0
01FFE0
000000
000000
003C00
003E00
007C00
01FC00
01F800
004000
ENDCHAR
STARTCHAR 021C
ENCODING 540
SWIDTH 495 0
DWIDTH 22 0
BBX 19 35 2 -7
BITMAP
3FF000
FFFC00
FFFE00
FFFF00
7FFF80
403F80
001F80
000F80
000FC0
000F80
000F80
001F80
001F80
00FF00
1FFE00
1FFC00
1FFE00
1FFF00
1FFF80
001FC0
000FC0
0007C0
0007E0
0007E0
0007E0
0007E0
0007C0
000FC0
001FC0
003F80
87FF00
FFFF00
FFFC00
FFF800
FFC000
ENDCHAR
STARTCHAR 021D
ENCODING 541
SWIDTH 495 0
DWIDTH 22 0
BBX 17 28 3 -7
BITMAP
7FF000
7FFC00
7FFE00
7FFE00
307F00
003F00
003F00
003F00
003F00
007E00
01FC00
07F800
07F800
07FC00
07FE00
00FF00
003F00
001F80
001F80
001F80
003F80
003F00
00FF00
0FFE00
FFFC00
FFF800
7FE000
7F8000
ENDCHAR
STARTCHAR 021E
ENCODING 542
SWIDTH 495 0
DWIDTH 22 0
BBX 18 37 2 0
BITMAP
040000
0E1C00
1F3E00
0FFC00
07F800
03F000
01E000
00C000
000000
F807C0
F807C0
F807C0
F807C0
F807C0
F807C0
F807C0
F807C0
F807C0
F807C0
F807C0
FFFFC0
FFFFC0
FFFFC0
FFFFC0
FFFFC0
F807C0
F807C0
F807C0
F807C0
F807C0
F807C0
F807C0
F807C0
F807C0
F807C0
F807C0
F807C0
ENDCHAR
STARTCHAR 021F
ENCODING 543
SWIDTH 495 0
DWIDTH 22 0
BBX 17 37 3 0
BITMAP
404000
E1C000
FFE000
7FC000
3F8000
1E0000
040000
000000
000000
780000
F80000
F80000
F80000
F80000
F80000
F80000
FFF800
FFFC00
FFFE00
FFFF00
FEFF00
F83F00
F81F00
F81F80
F81F80
F81F80
F81F80
F81F80
F81F80
F81F80
F81F80
F81F80
F81F80
F81F80
F81F80
F81F80
F81F80
ENDCHAR
STARTCHAR 0220
ENCODING 544
SWIDTH 495 0
DWIDTH 22 0
BBX 18 35 2 -7
BITMAP
1FF800
FFFE00
FFFF00
FFFF80
FFFF80
F80FC0
F80FC0
F807C0
F807C0
F807C0
F807C0
F807C0
F807C0
F807C0
F807C0
F807C0
F807C0
F807C0
F807C0
F807C0
F807C0
F807C0
F807C0
F807C0
F807C0
F807C0
F807C0
F807C0
0007C0
0007C0
0007C0
0007C0
0007C0
0007C0
0007C0
ENDCHAR
STARTCHAR 0221
ENCODING 545
SWIDTH 495 0
DWIDTH 22 0
BBX 22 38 1 -7
BITMAP
000600
001E00
001E00
001E00
001E00
001E00
001E00
001E00
001E00
001E00
0FDE00
3FFE00
3FFE00
7FFE00
7E7E00
FC1E00
F81E00
F81E00
F81E00
F01E00
F01E00
F01E00
F01E00
F81E00
F81E00
F81E00
7C1FF0
7FFFF8
3FFFF8
1FFF3C
0FFE3C
007E1C
00FE1C
01FF3C
03EF3C
03CFF8
0187F8
0083F0
ENDCHAR
STARTCHAR 0222
ENCODING 546
SWIDTH 495 0
DWIDTH 22 0
BBX 20 29 1 -1
BITMAP
1F0F80
3F0FC0
3F07C0
3E07C0
3E07C0
3E07C0
3E07C0
3E07C0
3F07C0
3F0FC0
1F9F80
1FFF80
0FFF00
0FFF80
3FFFC0
3FFFE0
7E07E0
7C03F0
FC03F0
FC03F0
FC03F0
FC03F0
FE07F0
7F0FE0
7FFFE0
3FFFC0
1FFF80
07FF00
006000
ENDCHAR
STARTCHAR 0223
ENCODING 547
SWIDTH 495 0
DWIDTH 22 0
BBX 20 32 1 -1
BITMAP
3F07C0
3E07C0
3E07C0
3E07E0
7E07E0
7E07E0
7E07E0
7E07E0
3E07E0
3F07C0
3F0FC0
1FFFC0
1FFF80
07FE00
1FFF80
3FFFC0
3F9FC0
7E07E0
7E03E0
FC03F0
FC03F0
FC03F0
FC03F0
FC03F0
FC03F0
7E07E0
7F0FE0
3FFFC0
1FFFC0
0FFF80
07FE00
006000
ENDCHAR
STARTCHAR 0224
ENCODING 548
SWIDTH 495 0
DWIDTH 22 0
BBX 18 35 2 -7
BITMAP
7FFFC0
7FFFC0
7FFFC0
7FFFC0
7FFFC0
001F80
003F00
003F00
007E00
007C00
00FC00
01F800
01F800
03F000
03E000
07E000
07C000
0FC000
1F8000
1F8000
3F0000
3E0000
7E0000
7FFFC0
FFFFC0
FFFFC0
FFFFC0
FFFFC0
0003C0
0003C0
0007C0
007FC0
00FF80
00FF80
00FF00
ENDCHAR
STARTCHAR 0225
ENCODING 549
SWIDTH 495 0
DWIDTH 22 0
BBX 16 28 3 -7
BITMAP
FFFF
FFFF
FFFF
FFFF
FFFF
00FE
00FC
01F8
03F0
07F0
07E0
0FC0
1F80
1F80
3F00
7E00
7FFF
FFFF
FFFF
FFFF
FFFF
000F
000F
000F
01FF
01FF
01FE
01FC
ENDCHAR
STARTCHAR 0226
ENCODING 550
SWIDTH 495 0
DWIDTH 22 0
BBX 21 36 1 0
BITMAP
00F000
01F800
01F800
01F800
01F800
00F000
000000
000000
01F800
01F800
01FC00
03FC00
03FC00
03FE00
07FE00
07DE00
079F00
0F9F00
0F9F00
0F8F80
0F0F80
1F0F80
1F0F80
1F0FC0
3E07C0
3FFFC0
3FFFC0
3FFFE0
7FFFE0
7FFFE0
7C03E0
FC03F0
FC03F0
FC03F0
F801F0
F801F8
ENDCHAR
STARTCHAR 0227
ENCODING 551
SWIDTH 495 0
DWIDTH 22 0
BBX 18 30 2 0
BITMAP
01E000
03F000
03F000
03F000
03F000
01E000
000000
000000
000000
3FFC00
3FFE00
3FFF00
3FFF80
103F80
000F80
000FC0
000FC0
07FFC0
1FFFC0
7FFFC0
7FFFC0
FE0FC0
FC0FC0
F80FC0
FC0FC0
FC0FC0
FFFFC0
7FFFC0
3FFFC0
1FFFC0
ENDCHAR
STARTCHAR 0228
ENCODING 552
SWIDTH 495 0
DWIDTH 22 0
BBX 17 36 3 -8
BITMAP
FFFF00
FFFF00
FFFF00
FFFF00
FFFF00
F80000
F80000
F80000
F80000
F80000
F80000
FFFE00
FFFE00
FFFE00
FFFE00
FFFE00
F80000
F80000
F80000
F80000
F80000
F80000
F80000
FFFF80
FFFF80
FFFF80
FFFF80
FFFF80
01C000
01E000
00F000
007800
04F800
0FF800
0FF000
010000
ENDCHAR
STARTCHAR 0229
ENCODING 553
SWIDTH 495 0
DWIDTH 22 0
BBX 20 29 1 -8
BITMAP
03FE00
0FFF00
1FFF80
1FFFC0
3F8FE0
7E07E0
7E03E0
7C03E0
FC03F0
FFFFF0
FFFFF0
FFFFF0
FC0000
7C0000
7E0000
7F0000
3FC3C0
3FFFC0
1FFFC0
0FFFC0
03FFC0
007800
007800
003C00
001E00
013E00
03FE00
03FC00
004000
ENDCHAR
STARTCHAR 022A
ENCODING 554
SWIDTH 495 0
DWIDTH 22 0
BBX 20 38 1 -1
BITMAP
07FE00
07FE00
07FE00
000000
020600
0F8F00
0F9F00
0F9F00
0F0F00
000000
000000
03FC00
0FFF00
1FFF80
3FFFC0
3F9FC0
7E07E0
7E07E0
7C03E0
7C03F0
FC03F0
FC03F0
FC03F0
FC03F0
FC03F0
FC03F0
FC03F0
FC03F0
7C03F0
7C03E0
7E03E0
7E07E0
3F0FC0
3FFFC0
1FFF80
0FFF00
07FE00
006000
ENDCHAR
STARTCHAR 022B
ENCODING 555
SWIDTH 495 0
DWIDTH 22 0
BBX 20 34 1 -1
BITMAP
07FE00
07FE00
07FE00
07FE00
000000
0F0F00
0F9F00
0F9F00
0F8F00
070600
000000
000000
03FC00
0FFF00
1FFF80
3FFFC0
3F9FE0
7E07E0
7E03E0
7C03F0
FC03F0
FC03F0
FC03F0
FC03F0
FC03F0
7C03F0
7E03E0
7E07E0
3F8FE0
3FFFC0
1FFF80
0FFF00
07FE00
006000
ENDCHAR
STARTCHAR 022C
ENCODING 556
SWIDTH 495 0
DWIDTH 22 0
BBX 20 38 1 -1
BITMAP
07FE00
07FE00
07FE00
000000
000200
07E700
0FFF00
0FFE00
063C00
000000
000000
03FC00
0FFF00
1FFF80
3FFFC0
3F9FC0
7E07E0
7E07E0
7C03E0
7C03F0
FC03F0
FC03F0
FC03F0
FC03F0
FC03F0
FC03F0
FC03F0
FC03F0
7C03F0
7C03E0
7E03E0
7E07E0
3F0FC0
3FFFC0
1FFF80
0FFF00
07FE00
006000
ENDCHAR
STARTCHAR 022D
ENCODING 557
SWIDTH 495 0
DWIDTH 22 0
BBX 20 34 1 -1
BITMAP
07FE00
07FE00
07FE00
07FE00
000000
03C700
07FF00
0FFE00
067C00
000000
000000
000000
03FC00
0FFF00
1FFF80
3FFFC0
3F9FE0
7E07E0
7E03E0
7C03F0
FC03F0
FC03F0
FC03F0
FC03F0
FC03F0
7C03F0
7E03E0
7E07E0
3F8FE0
3FFFC0
1FFF80
0FFF00
07FE00
006000
ENDCHAR
STARTCHAR 022E
ENCODING 558
SWIDTH 495 0
DWIDTH 22 0
BBX 20 37 1 -1
BITMAP
00F000
01F800
01F800
01F800
01F800
00F000
000000
000000
01FC00
07FF00
0FFF80
1FFF80
3FFFC0
3F0FE0
7E07E0
7E03E0
7C03E0
7C03F0
FC03F0
FC03F0
FC03F0
FC03F0
FC03F0
FC03F0
FC03F0
FC03F0
FC03F0
7C03F0
7C03E0
7E07E0
7E07E0
3F8FC0
3FFFC0
1FFF80
0FFF00
03FE00
007000
ENDCHAR
STARTCHAR 022F
ENCODING 559
SWIDTH 495 0
DWIDTH 22 0
BBX 20 31 1 -1
BITMAP
00F000
01F800
01F800
01F800
01F800
00F000
000000
000000
000000
03FC00
0FFF00
1FFF80
3FFFC0
3F9FE0
7E07E0
7E03E0
7C03F0
FC03F0
FC03F0
FC03F0
FC03F0
FC03F0
7C03F0
7E03E0
7E07E0
3F8FE0
3FFFC0
1FFF80
0FFF00
07FE00
006000
ENDCHAR
STARTCHAR 0230
ENCODING 560
SWIDTH 495 0
DWIDTH 22 0
BBX 20 38 1 -1
BITMAP
07FE00
07FE00
07FE00
000000
006000
00F000
00F800
00F800
00F000
000000
000000
03FC00
0FFF00
1FFF80
3FFFC0
3F9FC0
7E07E0
7E07E0
7C03E0
7C03F0
FC03F0
FC03F0
FC03F0
FC03F0
FC03F0
FC03F0
FC03F0
FC03F0
7C03F0
7C03E0
7E03E0
7E07E0
3F0FC0
3FFFC0
1FFF80
0FFF00
07FE00
006000
ENDCHAR
STARTCHAR 0231
ENCODING 561
SWIDTH 495 0
DWIDTH 22 0
BBX 20 34 1 -1
BITMAP
07FE00
07FE00
07FE00
07FE00
000000
00F000
00F800
00F800
00F000
006000
000000
000000
03FC00
0FFF00
1FFF80
3FFFC0
3F9FE0
7E07E0
7E03E0
7C03F0
FC03F0
FC03F0
FC03F0
FC03F0
FC03F0
7C03F0
7E03E0
7E07E0
3F8FE0
3FFFC0
1FFF80
0FFF00
07FE00
006000
ENDCHAR
STARTCHAR 0232
ENCODING 562
SWIDTH 495 0
DWIDTH 22 0
BBX 21 35 1 0
BITMAP
0FFF80
0FFF80
0FFF80
0FFF80
000000
000000
000000
F801F8
FC01F0
FC03F0
7C03F0
7E03E0
3E07E0
3F07C0
3F07C0
1F0F80
1F8F80
0F9F80
0FDF00
07DF00
07FE00
03FE00
03FC00
01F800
01F800
01F800
01F800
01F800
01F800
01F800
01F800
01F800
01F800
01F800
01F800
ENDCHAR
STARTCHAR 0233
ENCODING 563
SWIDTH 495 0
DWIDTH 22 0
BBX 20 36 1 -7
BITMAP
0FFF80
0FFF80
0FFF80
0FFF80
000000
000000
000000
000000
7C03F0
7E03F0
7E03E0
3E03E0
3E07E0
3F07C0
3F07C0
1F07C0
1F8FC0
0F8F80
0F8F80
0FCF80
07DF00
07FF00
07FF00
03FE00
03FE00
01FE00
01FC00
00FC00
00F800
01F800
01F000
47F000
7FE000
FFE000
FFC000
FF0000
ENDCHAR
STARTCHAR 0234
ENCODING 564
SWIDTH 495 0
DWIDTH 22 0
BBX 20 38 2 -7
BITMAP
FFE000
FFE000
FFE000
FFE000
FFE000
07E000
07E000
07E000
07E000
07E000
07E000
07E000
07E000
07E000
07E000
07E000
07E000
07E000
07E000
07E000
07E000
07E000
07E000
07E000
07E000
07FF80
07FFC0
07FFE0
07FFE0
07E3E0
07E1F0
0FE1F0
1FE1F0
3FE1E0
7FFFE0
7CFFE0
38FFC0
103F80
ENDCHAR
STARTCHAR 0235
ENCODING 565
SWIDTH 495 0
DWIDTH 22 0
BBX 22 28 1 -7
BITMAP
7FF000
FFF800
FFFC00
FFFE00
F87E00
F83E00
F83E00
F81E00
F81E00
F81E00
F81E00
F81E00
F81E00
F81E00
F81E00
F81E00
F81FF0
F81FF8
F81FF8
F81F3C
F83E3C
007E1C
00FE1C
01FF3C
03EF3C
03CFF8
0187F8
0083F0
ENDCHAR
STARTCHAR 0236
ENCODING 566
SWIDTH 495 0
DWIDTH 22 0
BBX 19 34 2 -7
BITMAP
01C000
0FC000
0FC000
0FC000
0FC000
0FC000
FFFFE0
FFFFE0
FFFFE0
FFFFE0
FFFFE0
0FC000
0FC000
0FC000
0FC000
0FC000
0FC000
0FC000
0FC000
0FC000
0FC000
0FFE00
0FFF80
0FFFC0
0FFFC0
0FC7C0
0FC3E0
1FC3E0
3FC3E0
7FC3C0
FFFFC0
FBFFC0
71FF80
20FE00
ENDCHAR
STARTCHAR 0237
ENCODING 567
SWIDTH 495 0
DWIDTH 22 0
BBX 16 29 2 -8
BITMAP
3FFF
3FFF
3FFF
3FFF
3FFF
003F
003F
003F
003F
003F
003F
003F
003F
003F
003F
003F
003F
003F
003F
003F
003F
003F
203F
7C7E
7FFE
7FFC
FFFC
3FF0
0100
ENDCHAR
STARTCHAR 0238
ENCODING 568
SWIDTH 495 0
DWIDTH 22 0
BBX 20 32 1 -1
BITMAP
001000
00F000
00F000
00F000
00F000
00F000
00F000
00F000
00F000
00F000
1FFF80
3FFFC0
3FFFE0
7FFFE0
78F1E0
78F1F0
F8F1F0
F8F0F0
F8F0F0
F0F0F0
F0F0F0
F0F0F0
F8F0F0
F8F0F0
F8F1F0
78F1F0
78F1E0
7FFFE0
3FFFC0
3FFFC0
1FFF80
020600
ENDCHAR
STARTCHAR 0239
ENCODING 569
SWIDTH 495 0
DWIDTH 22 0
BBX 20 28 1 -7
BITMAP
0FFF80
1FFFC0
3FFFC0
7FFFE0
7CF1E0
78F1F0
F8F1F0
F8F1F0
F8F0F0
F0F0F0
F0F0F0
F0F0F0
F0F0F0
F8F0F0
F8F1F0
F8F1F0
78F1E0
7FFFE0
3FFFE0
3FFFC0
1FFF80
00F000
00F000
00F000
00F000
00F000
00F000
00F000
ENDCHAR
STARTCHAR 023A
ENCODING 570
SWIDTH 495 0
DWIDTH 22 0
BBX 21 35 1 -4
BITMAP
000700
000700
000700
01FE00
01FE00
01FE00
03FE00
03FC00
03FE00
07DE00
07DE00
079F00
0F9F00
0FBF00
0FBF80
0F3F80
1F3F80
1F3780
1F77C0
3E77C0
3FFFC0
3FFFC0
3FFFE0
7FFFE0
7FFFE0
7CC3F0
FCC3F0
FDC1F0
FDC1F0
F981F0
F981F8
038000
038000
030000
030000
ENDCHAR
STARTCHAR 023B
ENCODING 571
SWIDTH 495 0
DWIDTH 22 0
BBX 21 35 1 -4
BITMAP
0000E0
0001E0
0001E0
007FE0
03FFF0
07FFF8
0FFFF8
1FFFF0
3F87F0
3F0780
7E0F00
7E0F00
7C0F00
FC1E00
FC1E00
FC1E00
FC3C00
FC3C00
FC3C00
FC7800
FC7800
7C7800
7CF000
7EF000
7FF000
3FE020
3FE1E0
1FFFE0
0FFFE0
07FFF0
03FFC0
079800
078000
078000
010000
ENDCHAR
STARTCHAR 023C
ENCODING 572
SWIDTH 495 0
DWIDTH 22 0
BBX 19 27 2 -4
BITMAP
000700
000700
000700
03FF80
0FFFC0
1FFFC0
3FFFC0
7FDFC0
7F1C00
FC3C00
FC3800
FC3800
F87800
F87000
F87000
F8F000
FCE000
FCE000
7FE000
7FC0C0
3FFFC0
1FFFE0
0FFFE0
03FFE0
078000
070000
070000
ENDCHAR
STARTCHAR 023D
ENCODING 573
SWIDTH 495 0
DWIDTH 22 0
BBX 19 28 1 0
BITMAP
1F8000
1F8000
1F8000
1F8000
1F8000
1F8000
1F8000
1F8000
1F8000
1F8000
1F8000
FFFE00
FFFE00
FFFE00
FFFE00
1F8000
1F8000
1F8000
1F8000
1F8000
1F8000
1F8000
1F8000
1FFFE0
1FFFE0
1FFFE0
1FFFE0
1FFFE0
ENDCHAR
STARTCHAR 023E
ENCODING 574
SWIDTH 495 0
DWIDTH 22 0
BBX 23 34 0 -3
BITMAP
000008
00001E
00001E
7FFFFC
7FFFFC
7FFFF8
7FFFF0
7FFFF0
01F1E0
01F3C0
01F7C0
01F780
01FF00
01FF00
01FE00
01FE00
01FC00
01F800
01F800
01F000
01F000
03F000
03F000
07F000
0FF000
0FF000
1FF000
1FF000
3DF000
7DF000
79F000
F00000
700000
200000
ENDCHAR
STARTCHAR 023F
ENCODING 575
SWIDTH 495 0
DWIDTH 22 0
BBX 18 28 2 -7
BITMAP
07FF00
1FFF80
3FFF00
7FFF00
7F0700
7C0000
7E0000
7F0000
7FE000
3FF800
1FFE00
07FF00
01FF80
003F80
000FC0
000FC0
701FC0
FFFF80
FFFF80
FFFE00
7FF800
3F0000
1F8000
0FE000
07FF00
03FF00
01FF00
007F00
ENDCHAR
STARTCHAR 0240
ENCODING 576
SWIDTH 495 0
DWIDTH 22 0
BBX 18 28 3 -7
BITMAP
FFFF00
FFFF00
FFFF00
FFFF00
FFFF00
00FE00
00FC00
01F800
03F000
07F000
07E000
0FC000
1F8000
1F8000
3F0000
7E0000
7E0000
FC0000
FE0000
FF8000
FFC000
1FE000
07F000
03FC40
01FFC0
00FFC0
003FC0
001FC0
ENDCHAR
STARTCHAR 0241
ENCODING 577
SWIDTH 495 0
DWIDTH 22 0
BBX 17 28 3 0
BITMAP
1FF000
FFFC00
FFFE00
FFFF00
FFFF80
601F80
000F80
000F80
000F80
001F80
001F80
007F00
00FF00
03FE00
07FC00
07F000
0FE000
0FC000
0F8000
0F8000
0F8000
0F8000
0F8000
0F8000
0F8000
0F8000
0F8000
0F8000
ENDCHAR
STARTCHAR 0242
ENCODING 578
SWIDTH 495 0
DWIDTH 22 0
BBX 17 21 3 0
BITMAP
1FF800
FFFE00
FFFF00
FFFF00
7E7F80
601F80
001F80
001F80
003F00
00FF00
01FE00
07FC00
07F000
0FE000
0FC000
0F8000
0F8000
0F8000
0F8000
0F8000
0F8000
ENDCHAR
STARTCHAR 0243
ENCODING 579
SWIDTH 495 0
DWIDTH 22 0
BBX 20 28 1 0
BITMAP
07F800
1FFE00
1FFF80
1FFFC0
1FFFC0
1F0FC0
1F07C0
1F07E0
1F07C0
1F07C0
1F0FC0
1FFF80
1FFF00
1FFF00
1FFF80
1FFFC0
1F07E0
1F03E0
FFE3F0
FFE3F0
FFE3F0
1F03F0
1F03F0
1F9FE0
1FFFE0
1FFFC0
1FFF80
1FFE00
ENDCHAR
STARTCHAR 0244
ENCODING 580
SWIDTH 495 0
DWIDTH 22 0
BBX 20 29 1 -1
BITMAP
3E07C0
3E07C0
3E07C0
3E07C0
3E07C0
3E07C0
3E07C0
3E07C0
3E07C0
3E07C0
3E07C0
FFFFF0
FFFFF0
FFFFF0
FFFFF0
3E07C0
3E07C0
3E07C0
3E07C0
3E07C0
3E07C0
3E07C0
3F0FC0
3F9FC0
1FFF80
1FFF80
0FFF00
07FE00
006000
ENDCHAR
STARTCHAR 0245
ENCODING 581
SWIDTH 495 0
DWIDTH 22 0
BBX 21 28 1 0
BITMAP
01F800
01F800
01FC00
03FC00
03FC00
03FE00
07FE00
07DE00
079F00
0F9F00
0F9F00
0F8F80
0F0F80
1F0F80
1F0F80
1F0FC0
3E07C0
3E07C0
3E07C0
3E07E0
7E07E0
7C03E0
7C03E0
FC03F0
FC03F0
FC03F0
F801F0
F801F8
ENDCHAR
STARTCHAR 0246
ENCODING 582
SWIDTH 495 0
DWIDTH 22 0
BBX 20 35 2 -4
BITMAP
000080
0000F0
0000F0
FFFFE0
FFFFE0
FFFFC0
FFFFC0
FFFFC0
FC0780
FC0780
FC0700
FC0F00
FC0F00
FC1E00
FFFF80
FFFF80
FFFF80
FFFF80
FFFF80
FC7800
FC7800
FCF000
FCF000
FCF000
FDE000
FDE000
FFFFC0
FFFFC0
FFFFC0
FFFFC0
FFFFC0
070000
0F0000
0F0000
020000
ENDCHAR
STARTCHAR 0247
ENCODING 583
SWIDTH 495 0
DWIDTH 22 0
BBX 20 27 1 -4
BITMAP
000700
000F00
000F00
03FE00
0FFF80
1FFFC0
3FFFE0
7FBFE0
7E3FE0
7C3BF0
FC79F0
FC79F0
FFFFF0
FFFFF0
FFFFF0
FCE000
FDE000
FDE000
7FC000
7FFFC0
3FFFC0
1FFFE0
0FFFE0
07FFC0
073800
070000
0F0000
ENDCHAR
STARTCHAR 0248
ENCODING 584
SWIDTH 495 0
DWIDTH 22 0
BBX 19 29 2 -1
BITMAP
3FFF00
3FFF00
3FFF00
3FFF00
3FFF00
001F00
001F00
001F00
001F00
001F00
001F00
07FFE0
07FFE0
07FFE0
07FFE0
07FFE0
001F00
001F00
001F00
001F00
001F00
003F00
203F00
78FE00
7FFE00
FFFC00
FFF800
3FF000
030000
ENDCHAR
STARTCHAR 0249
ENCODING 585
SWIDTH 495 0
DWIDTH 22 0
BBX 19 38 2 -8
BITMAP
007C00
007E00
00FE00
00FE00
00FE00
007C00
001800
000000
000000
3FFF00
3FFF00
3FFF00
3FFF00
3FFF00
003F00
003F00
003F00
3FFFE0
3FFFE0
3FFFE0
3FFFE0
003F00
003F00
003F00
003F00
003F00
003F00
003F00
003F00
003F00
003F00
203F00
7C7E00
7FFE00
7FFC00
FFFC00
3FF000
010000
ENDCHAR
STARTCHAR 024A
ENCODING 586
SWIDTH 495 0
DWIDTH 22 0
BBX 22 35 1 -7
BITMAP
03F800
0FFC00
1FFE00
1FFF00
3FFF80
3E1F80
7E0F80
7C0FC0
7C0FC0
FC07C0
FC07C0
FC07C0
FC07C0
FC07C0
FC07C0
FC07C0
FC07C0
FC07C0
FC07C0
7C07C0
7C0FC0
7E0FC0
7E0FC0
3F1FC0
3FFFC0
1FFFC0
0FFFC0
07FFC0
0047C0
0007E0
0003E0
0003FC
0003FC
0001FC
0000FC
ENDCHAR
STARTCHAR 024B
ENCODING 587
SWIDTH 495 0
DWIDTH 22 0
BBX 22 28 1 -7
BITMAP
03FF80
0FFFC0
1FFFC0
3FFFC0
3F8FC0
7E0FC0
7E0FC0
7C0FC0
FC0FC0
FC0FC0
FC0FC0
FC0FC0
FC0FC0
7C0FC0
7C0FC0
7E0FC0
7F1FC0
3FFFC0
3FFFC0
1FFFC0
0FFFC0
000FC0
000FC0
000FF8
000FF8
0007F8
0007F8
0001FC
ENDCHAR
STARTCHAR 024C
ENCODING 588
SWIDTH 495 0
DWIDTH 22 0
BBX 20 28 1 0
BITMAP
07F000
1FFE00
1FFF80
1FFF80
1FFFC0
1F0FC0
1F07E0
1F07E0
1F07E0
1F07E0
1F07E0
1F07E0
1F0FC0
FFFFC0
FFFF80
FFFF00
FFFE00
FFFE00
1F3F00
1F1F00
1F1F80
1F0F80
1F0FC0
1F07C0
1F07E0
1F03E0
1F03F0
1F03F0
ENDCHAR
STARTCHAR 024D
ENCODING 589
SWIDTH 495 0
DWIDTH 22 0
BBX 19 21 1 0
BITMAP
03FFE0
1FFFE0
1FFFE0
1FFFE0
1FFFE0
1F0000
1F0000
1F0000
1F0000
1F0000
FFFF00
FFFF00
FFFF00
1F0000
1F0000
1F0000
1F0000
1F0000
1F0000
1F0000
1F0000
ENDCHAR
STARTCHAR 024E
ENCODING 590
SWIDTH 495 0
DWIDTH 22 0
BBX 22 28 0 0
BITMAP
7E00F8
7E01F8
3E01F8
3F01F0
3F03F0
FFFFFC
FFFFFC
FFFFFC
FFFFFC
07C7C0
07CF80
07CF80
03EF80
03FF00
01FF00
01FE00
00FE00
00FC00
00FC00
00FC00
00FC00
00FC00
00FC00
00FC00
00FC00
00FC00
00FC00
00FC00
ENDCHAR
STARTCHAR 024F
ENCODING 591
SWIDTH 495 0
DWIDTH 22 0
BBX 22 28 0 -7
BITMAP
3E01F0
3F01F0
3F01F0
1F03F0
1F03E0
1F83E0
1F83E0
FFFFFC
FFFFFC
FFFFFC
07C7C0
07E7C0
03EF80
03EF80
03FF80
01FF00
01FF00
00FF00
00FE00
007E00
007C00
00FC00
00F800
23F800
3FF000
7FF000
7FE000
7F8000
ENDCHAR
STARTCHAR 0292
ENCODING 658
SWIDTH 495 0
DWIDTH 22 0
BBX 19 28 1 -7
BITMAP
7FFFC0
7FFFC0
7FFFC0
7FFFC0
7FFF80
001F80
003F00
007E00
00FC00
00F800
01F800
03F000
07FC00
07FF00
07FF80
001F80
000FC0
0007C0
0007E0
0007E0
0007E0
0007C0
000FC0
7C7FC0
7FFF80
7FFF80
FFFE00
3FF800
ENDCHAR
STARTCHAR 02BC
ENCODING 700
SWIDTH 495 0
DWIDTH 22 0
BBX 6 10 8 21
BITMAP
7C
7C
7C
7C
7C
7C
78
F8
F0
10
ENDCHAR
STARTCHAR 02C6
ENCODING 710
SWIDTH 495 0
DWIDTH 22 0
BBX 12 7 5 24
BITMAP
0700
0F80
1FC0
7FE0
FFF0
78F0
2060
ENDCHAR
STARTCHAR 02C7
ENCODING 711
SWIDTH 495 0
DWIDTH 22 0
BBX 12 7 5 24
BITMAP
70E0
F9F0
7FF0
3FE0
1F80
0F00
0600
ENDCHAR
STARTCHAR 02C9
ENCODING 713
SWIDTH 495 0
DWIDTH 22 0
BBX 13 4 5 25
BITMAP
FFF8
FFF8
FFF8
FFF8
ENDCHAR
STARTCHAR 02D8
ENCODING 728
SWIDTH 495 0
DWIDTH 22 0
BBX 13 6 5 24
BITMAP
F0F8
F0F0
FFF0
7FF0
7FE0
1F80
ENDCHAR
STARTCHAR 02D9
ENCODING 729
SWIDTH 495 0
DWIDTH 22 0
BBX 6 6 8 24
BITMAP
78
FC
FC
FC
FC
78
ENDCHAR
STARTCHAR 02DA
ENCODING 730
SWIDTH 495 0
DWIDTH 22 0
BBX 10 9 6 22
BITMAP
3F00
7F80
7BC0
E1C0
E1C0
73C0
7F80
3F00
0E00
ENDCHAR
STARTCHAR 02DB
ENCODING 731
SWIDTH 495 0
DWIDTH 22 0
BBX 8 9 7 -8
BITMAP
0F
3E
3C
78
F8
FD
FF
7F
08
ENDCHAR
STARTCHAR 02DC
ENCODING 732
SWIDTH 495 0
DWIDTH 22 0
BBX 14 6 4 24
BITMAP
0800
3F3C
7FFC
FFFC
FFF8
60E0
ENDCHAR
STARTCHAR 02DD
ENCODING 733
SWIDTH 495 0
DWIDTH 22 0
BBX 16 8 3 23
BITMAP
0404
0E0E
1F1F
3F3F
7E7E
7C7C
F0F0
6060
ENDCHAR
STARTCHAR 0311
ENCODING 785
SWIDTH 495 0
DWIDTH 22 0
BBX 13 7 5 23
BITMAP
1F80
3FE0
7FE0
FFF0
F0F0
F0F8
F078
ENDCHAR
STARTCHAR 0384
ENCODING 900
SWIDTH 495 0
DWIDTH 22 0
BBX 8 9 7 23
BITMAP
0C
1E
1F
3E
7E
7C
F8
70
20
ENDCHAR
STARTCHAR 0385
ENCODING 901
SWIDTH 495 0
DWIDTH 22 0
BBX 19 9 2 23
BITMAP
006000
007800
70F380
F8F7C0
FDE7C0
FDE7E0
F9C7C0
73C380
018000
ENDCHAR
STARTCHAR 0386
ENCODING 902
SWIDTH 495 0
DWIDTH 22 0
BBX 23 28 -1 0
BITMAP
3C7E00
3E7E00
7C7F00
7CFF00
7CFF00
78FF80
F9FF80
F9F780
F1E7C0
03E7C0
03E7C0
03E3E0
03C3E0
07C3E0
07C3E0
07C3F0
0F81F0
0FFFF0
0FFFF0
0FFFF8
1FFFF8
1FFFF8
1F00F8
3F00FC
3F00FC
3F00FC
3E007C
3E007E
ENDCHAR
STARTCHAR 0388
ENCODING 904
SWIDTH 495 0
DWIDTH 22 0
BBX 26 28 -6 0
BITMAP
3C7FFF80
3E7FFF80
3E7FFF80
7C7FFF80
7C7FFF80
787C0000
787C0000
F87C0000
F07C0000
007C0000
007C0000
007FFF00
007FFF00
007FFF00
007FFF00
007FFF00
007C0000
007C0000
007C0000
007C0000
007C0000
007C0000
007C0000
007FFFC0
007FFFC0
007FFFC0
007FFFC0
007FFFC0
ENDCHAR
STARTCHAR 0389
ENCODING 905
SWIDTH 495 0
DWIDTH 22 0
BBX 27 28 -7 0
BITMAP
3C7C03E0
3E7C03E0
3E7C03E0
3C7C03E0
7C7C03E0
7C7C03E0
787C03E0
787C03E0
F87C03E0
007C03E0
007C03E0
007FFFE0
007FFFE0
007FFFE0
007FFFE0
007FFFE0
007C03E0
007C03E0
007C03E0
007C03E0
007C03E0
007C03E0
007C03E0
007C03E0
007C03E0
007C03E0
007C03E0
007C03E0
ENDCHAR
STARTCHAR 038A
ENCODING 906
SWIDTH 495 0
DWIDTH 22 0
BBX 26 28 -6 0
BITMAP
78FFFFC0
7CFFFFC0
7CFFFFC0
7CFFFFC0
F8FFFFC0
F803F000
F003F000
F003F000
F003F000
0003F000
0003F000
0003F000
0003F000
0003F000
0003F000
0003F000
0003F000
0003F000
0003F000
0003F000
0003F000
0003F000
0003F000
00FFFFC0
00FFFFC0
00FFFFC0
00FFFFC0
00FFFFC0
ENDCHAR
STARTCHAR 038C
ENCODING 908
SWIDTH 495 0
DWIDTH 22 0
BBX 27 29 -6 -1
BITMAP
3C03F800
3E0FFE00
3E1FFF00
3C3FFF00
7C7FFF80
7C7E1FC0
78FC0FC0
78FC07C0
F8F807C0
00F807E0
01F807E0
01F807E0
01F807E0
01F807E0
01F807E0
01F807E0
01F807E0
01F807E0
01F807E0
00F807E0
00F807C0
00FC0FC0
00FC0FC0
007F1F80
007FFF80
003FFF00
001FFE00
0007FC00
0000E000
ENDCHAR
STARTCHAR 038E
ENCODING 910
SWIDTH 495 0
DWIDTH 22 0
BBX 29 28 -7 0
BITMAP
38F801F8
7CFC01F0
7CFC03F0
7C7C03F0
787E03E0
F83E07E0
F83F07C0
F03F07C0
F01F0F80
001F8F80
000F9F80
000FDF00
0007DF00
0007FE00
0003FE00
0003FC00
0001F800
0001F800
0001F800
0001F800
0001F800
0001F800
0001F800
0001F800
0001F800
0001F800
0001F800
0001F800
ENDCHAR
STARTCHAR 038F
ENCODING 911
SWIDTH 495 0
DWIDTH 22 0
BBX 28 28 -6 0
BITMAP
3C07F800
3E1FFE00
3E3FFF00
3C7FFF80
7C7FFFC0
7CFE0FC0
78FC07E0
79F807E0
F9F807E0
01F803E0
01F003F0
01F003F0
01F003F0
01F003F0
01F003F0
01F003E0
01F003E0
01F803E0
00F807E0
00F807C0
00FC07C0
007C0F80
007E1F80
03FE1FF0
03FF3FF0
03FF3FF0
03FF3FF0
03FF3FF0
ENDCHAR
STARTCHAR 0390
ENCODING 912
SWIDTH 495 0
DWIDTH 22 0
BBX 19 32 2 0
BITMAP
006000
007800
70F380
F8F7C0
FDE7C0
FDE7E0
F9C7C0
73C380
018000
000000
000000
FFE000
FFE000
FFE000
FFE000
FFE000
07E000
07E000
07E000
07E000
07E000
07E000
07E000
07E000
07E000
07E000
03F040
03FFC0
03FFC0
01FFC0
01FFE0
007FC0
ENDCHAR
STARTCHAR 0391
ENCODING 913
SWIDTH 495 0
DWIDTH 22 0
BBX 21 28 1 0
BITMAP
01F800
01F800
01FC00
03FC00
03FC00
03FE00
07FE00
07DE00
079F00
0F9F00
0F9F00
0F8F80
0F0F80
1F0F80
1F0F80
1F0FC0
3E07C0
3FFFC0
3FFFC0
3FFFE0
7FFFE0
7FFFE0
7C03E0
FC03F0
FC03F0
FC03F0
F801F0
F801F8
ENDCHAR
STARTCHAR 0392
ENCODING 914
SWIDTH 495 0
DWIDTH 22 0
BBX 19 28 2 0
BITMAP
1FE000
FFFC00
FFFF00
FFFF00
FFFF80
FC1F80
FC0F80
FC0FC0
FC0F80
FC0F80
FC1F80
FFFF00
FFFE00
FFFE00
FFFF00
FFFF80
FC0FC0
FC07C0
FC07E0
FC07E0
FC07E0
FC07E0
FC0FE0
FE3FC0
FFFFC0
FFFF80
FFFF00
FFFC00
ENDCHAR
STARTCHAR 0393
ENCODING 915
SWIDTH 495 0
DWIDTH 22 0
BBX 20 28 2 0
BITMAP
0FFFF0
0FFFF0
0FFFF0
0FFFF0
0FFFF0
0F8000
0F8000
0F8000
0F8000
0F8000
0F8000
0F8000
0F8000
0F8000
0F8000
0F8000
0F8000
0F8000
0F8000
0F8000
0F8000
0F8000
0F8000
FFFE00
FFFE00
FFFE00
FFFE00
FFFE00
ENDCHAR
STARTCHAR 0394
ENCODING 916
SWIDTH 495 0
DWIDTH 22 0
BBX 21 28 1 0
BITMAP
01F800
01F800
01FC00
03FC00
03FC00
03FE00
07FE00
07DE00
079F00
0F9F00
0F9F00
0F8F80
0F0F80
1F0F80
1F0F80
1F0FC0
3E07C0
3E07C0
3E07C0
3E07E0
7E07E0
7C03E0
7C03E0
FFFFF0
FFFFF0
FFFFF0
FFFFF0
FFFFF8
ENDCHAR
STARTCHAR 0395
ENCODING 917
SWIDTH 495 0
DWIDTH 22 0
BBX 17 28 3 0
BITMAP
FFFF00
FFFF00
FFFF00
FFFF00
FFFF00
F80000
F80000
F80000
F80000
F80000
F80000
FFFE00
FFFE00
FFFE00
FFFE00
FFFE00
F80000
F80000
F80000
F80000
F80000
F80000
F80000
FFFF80
FFFF80
FFFF80
FFFF80
FFFF80
ENDCHAR
STARTCHAR 0396
ENCODING 918
SWIDTH 495 0
DWIDTH 22 0
BBX 18 28 2 0
BITMAP
7FFFC0
7FFFC0
7FFFC0
7FFFC0
7FFFC0
001F80
003F00
003F00
007E00
007C00
00FC00
01F800
01F800
03F000
03E000
07E000
07C000
0FC000
1F8000
1F8000
3F0000
3E0000
7E0000
7FFFC0
FFFFC0
FFFFC0
FFFFC0
FFFFC0
ENDCHAR
STARTCHAR 0397
ENCODING 919
SWIDTH 495 0
DWIDTH 22 0
BBX 18 28 2 0
BITMAP
F807C0
F807C0
F807C0
F807C0
F807C0
F807C0
F807C0
F807C0
F807C0
F807C0
F807C0
FFFFC0
FFFFC0
FFFFC0
FFFFC0
FFFFC0
F807C0
F807C0
F807C0
F807C0
F807C0
F807C0
F807C0
F807C0
F807C0
F807C0
F807C0
F807C0
ENDCHAR
STARTCHAR 0398
ENCODING 920
SWIDTH 495 0
DWIDTH 22 0
BBX 20 29 1 -1
BITMAP
03FC00
07FF00
1FFF80
1FFFC0
3FFFC0
7E07E0
7E03E0
7C03F0
FC03F0
FC01F0
F801F0
F801F0
F9F9F0
F9F9F0
F9F9F0
F9F9F0
F801F0
F801F0
F801F0
FC01F0
7C03F0
7C03E0
7E07E0
3F0FE0
3FFFC0
1FFF80
0FFF00
07FE00
00E000
ENDCHAR
STARTCHAR 0399
ENCODING 921
SWIDTH 495 0
DWIDTH 22 0
BBX 18 28 2 0
BITMAP
FFFFC0
FFFFC0
FFFFC0
FFFFC0
FFFFC0
03F000
03F000
03F000
03F000
03F000
03F000
03F000
03F000
03F000
03F000
03F000
03F000
03F000
03F000
03F000
03F000
03F000
03F000
FFFFC0
FFFFC0
FFFFC0
FFFFC0
FFFFC0
ENDCHAR
STARTCHAR 039A
ENCODING 922
SWIDTH 495 0
DWIDTH 22 0
BBX 20 28 2 0
BITMAP
F807E0
F80FC0
F80FC0
F81F80
F81F80
F83F00
F87E00
F87E00
F8FC00
F9F800
F9F000
FBF000
FFE000
FFE000
FFF000
FBF800
F9F800
F9FC00
F8FE00
F87F00
F83F00
F83F80
F81F80
F80FC0
F80FC0
F807E0
F807E0
F807F0
ENDCHAR
STARTCHAR 039B
ENCODING 923
SWIDTH 495 0
DWIDTH 22 0
BBX 21 28 1 0
BITMAP
01F800
01F800
01FC00
03FC00
03FC00
03FE00
07FE00
07DE00
079F00
0F9F00
0F9F00
0F8F80
0F0F80
1F0F80
1F0F80
1F0FC0
3E07C0
3E07C0
3E07C0
3E07E0
7E07E0
7C03E0
7C03E0
FC03F0
FC03F0
FC03F0
F801F0
F801F8
ENDCHAR
STARTCHAR 039C
ENCODING 924
SWIDTH 495 0
DWIDTH 22 0
BBX 20 28 1 0
BITMAP
3C03E0
7C03E0
7E07E0
7E07E0
7E07E0
7F0FE0
7F0FE0
7F0FE0
7F9FE0
7B9FE0
7B9DE0
7BFDE0
7BFDF0
79F9F0
79F9F0
79F9F0
F8F9F0
F8F1F0
F801F0
F801F0
F801F0
F801F0
F801F0
F801F0
F801F0
F801F0
F801F0
F801F0
ENDCHAR
STARTCHAR 039D
ENCODING 925
SWIDTH 495 0
DWIDTH 22 0
BBX 18 28 2 0
BITMAP
F007C0
F807C0
FC07C0
FC07C0
FE07C0
FE07C0
FF07C0
FF07C0
FF87C0
FF87C0
FFC7C0
FBC7C0
FBE7C0
F9E7C0
F8F7C0
F8F7C0
F87FC0
F87FC0
F83FC0
F83FC0
F83FC0
F81FC0
F81FC0
F80FC0
F80FC0
F807C0
F807C0
F803C0
ENDCHAR
STARTCHAR 039E
ENCODING 926
SWIDTH 495 0
DWIDTH 22 0
BBX 20 28 1 0
BITMAP
FFFFF0
FFFFF0
FFFFF0
FFFFF0
FFFFF0
000000
000000
000000
000000
000000
000000
3FFFC0
3FFFC0
3FFFC0
3FFFC0
3FFFC0
000000
000000
000000
000000
000000
000000
000000
FFFFF0
FFFFF0
FFFFF0
FFFFF0
FFFFF0
ENDCHAR
STARTCHAR 039F
ENCODING 927
SWIDTH 495 0
DWIDTH 22 0
BBX 20 29 1 -1
BITMAP
01FC00
07FF00
0FFF80
1FFF80
3FFFC0
3F0FE0
7E07E0
7E03E0
7C03E0
7C03F0
FC03F0
FC03F0
FC03F0
FC03F0
FC03F0
FC03F0
FC03F0
FC03F0
FC03F0
7C03F0
7C03E0
7E07E0
7E07E0
3F8FC0
3FFFC0
1FFF80
0FFF00
03FE00
007000
ENDCHAR
STARTCHAR 03A0
ENCODING 928
SWIDTH 495 0
DWIDTH 22 0
BBX 18 28 2 0
BITMAP
FFFFC0
FFFFC0
FFFFC0
FFFFC0
FFFFC0
F807C0
F807C0
F807C0
F807C0
F807C0
F807C0
F807C0
F807C0
F807C0
F807C0
F807C0
F807C0
F807C0
F807C0
F807C0
F807C0
F807C0
F807C0
F807C0
F807C0
F807C0
F807C0
F807C0
ENDCHAR
STARTCHAR 03A1
ENCODING 929
SWIDTH 495 0
DWIDTH 22 0
BBX 19 28 2 0
BITMAP
1FE000
FFFE00
FFFF00
FFFF80
FFFFC0
FC1FC0
FC07E0
FC07E0
FC07E0
FC07E0
FC07E0
FC07E0
FC0FE0
FC1FC0
FFFFC0
FFFF80
FFFF00
FFFC00
FFE000
FC0000
FC0000
FC0000
FC0000
FC0000
FC0000
FC0000
FC0000
FC0000
ENDCHAR
STARTCHAR 03A3
ENCODING 931
SWIDTH 495 0
DWIDTH 22 0
BBX 20 28 1 0
BITMAP
7FFFF0
7FFFF0
7FFFF0
7FFFF0
7FFFF0
3F8000
1F8000
0FC000
07E000
03F000
03F000
01F800
00FC00
007E00
007E00
00FC00
01F800
03F000
07E000
0FC000
0FC000
1F8000
3F0000
7FFFF0
FFFFF0
FFFFF0
FFFFF0
FFFFF0
ENDCHAR
STARTCHAR 03A4
ENCODING 932
SWIDTH 495 0
DWIDTH 22 0
BBX 20 28 1 0
BITMAP
FFFFF0
FFFFF0
FFFFF0
FFFFF0
FFFFF0
01F800
01F800
01F800
01F800
01F800
01F800
01F800
01F800
01F800
01F800
01F800
01F800
01F800
01F800
01F800
01F800
01F800
01F800
01F800
01F800
01F800
01F800
01F800
ENDCHAR
STARTCHAR 03A5
ENCODING 933
SWIDTH 495 0
DWIDTH 22 0
BBX 21 28 1 0
BITMAP
F801F8
FC01F0
FC03F0
7C03F0
7E03E0
3E07E0
3F07C0
3F07C0
1F0F80
1F8F80
0F9F80
0FDF00
07DF00
07FE00
03FE00
03FC00
01F800
01F800
01F800
01F800
01F800
01F800
01F800
01F800
01F800
01F800
01F800
01F800
ENDCHAR
STARTCHAR 03A6
ENCODING 934
SWIDTH 495 0
DWIDTH 22 0
BBX 20 29 1 0
BITMAP
00F000
00F000
00F000
07FE00
0FFF80
1FFFC0
3FFFC0
7CF3E0
7CF1E0
78F1F0
F8F1F0
F8F0F0
F8F0F0
F0F0F0
F0F0F0
F0F0F0
F8F0F0
F8F1F0
F8F1F0
78F1E0
7CF3E0
3EF7E0
3FFFC0
1FFF80
0FFF00
03FC00
00F000
00F000
00F000
ENDCHAR
STARTCHAR 03A7
ENCODING 935
SWIDTH 495 0
DWIDTH 22 0
BBX 21 28 1 0
BITMAP
FC01F0
FC03F0
7E03E0
3E07E0
3F07C0
1F0FC0
1F8F80
0F9F00
0FDF00
07FE00
07FE00
03FC00
01FC00
01F800
01FC00
03FE00
07FE00
07FF00
0FDF00
0F9F80
1F8F80
1F0FC0
3F07C0
3E07E0
7E07E0
7C03F0
FC03F0
FC01F8
ENDCHAR
STARTCHAR 03A8
ENCODING 936
SWIDTH 495 0
DWIDTH 22 0
BBX 20 28 1 0
BITMAP
F000F0
F000F0
F000F0
F000F0
F000F0
F000F0
F000F0
F0F0F0
F0F0F0
F0F0F0
F0F0F0
F0F0F0
F0F0F0
F8F0F0
F8F1F0
78F1E0
7CF3E0
7FFFE0
3FFFC0
1FFF80
0FFF00
00F000
00F000
00F000
00F000
00F000
00F000
00F000
ENDCHAR
STARTCHAR 03A9
ENCODING 937
SWIDTH 495 0
DWIDTH 22 0
BBX 22 28 0 0
BITMAP
01FE00
07FF80
0FFFC0
1FFFE0
1FFFF0
3F83F0
3F01F8
7E01F8
7E01F8
7E00F8
7C00FC
7C00FC
7C00FC
7C00FC
7C00FC
7C00F8
7C00F8
7E00F8
3E01F8
3E01F0
3F01F0
1F03E0
1F87E0
FF87FC
FFCFFC
FFCFFC
FFCFFC
FFCFFC
ENDCHAR
STARTCHAR 03AA
ENCODING 938
SWIDTH 495 0
DWIDTH 22 0
BBX 18 36 2 0
BITMAP
1E0E00
3F1F00
3F1F80
3F1F80
3E1F00
1C0E00
000000
000000
FFFFC0
FFFFC0
FFFFC0
FFFFC0
FFFFC0
03F000
03F000
03F000
03F000
03F000
03F000
03F000
03F000
03F000
03F000
03F000
03F000
03F000
03F000
03F000
03F000
03F000
03F000
FFFFC0
FFFFC0
FFFFC0
FFFFC0
FFFFC0
ENDCHAR
STARTCHAR 03AB
ENCODING 939
SWIDTH 495 0
DWIDTH 22 0
BBX 21 36 1 0
BITMAP
0F0700
1F8F80
1F8FC0
1F8FC0
1F0F80
0E0700
000000
000000
F801F8
FC01F0
FC03F0
7C03F0
7E03E0
3E07E0
3F07C0
3F07C0
1F0F80
1F8F80
0F9F80
0FDF00
07DF00
07FE00
03FE00
03FC00
01F800
01F800
01F800
01F800
01F800
01F800
01F800
01F800
01F800
01F800
01F800
01F800
ENDCHAR
STARTCHAR 03AC
ENCODING 940
SWIDTH 495 0
DWIDTH 22 0
BBX 19 32 2 0
BITMAP
003000
007800
007C00
00F800
01F800
03F000
03E000
01C000
008000
000000
000000
03FF00
0FFF80
1FFF80
3FFF80
7F8F80
7E0F80
FC0F80
FC0F80
FC0F80
F80F80
F80F80
F80F80
F80F80
FC0F80
FC0F80
FC0F80
7E1FC0
7FFFE0
3FFFE0
1FFFE0
0FF1E0
ENDCHAR
STARTCHAR 03AD
ENCODING 941
SWIDTH 495 0
DWIDTH 22 0
BBX 17 33 3 -1
BITMAP
006000
007800
00FC00
01F800
01F000
03E000
07C000
038000
000000
000000
000000
0FFF00
3FFF00
7FFF00
7FFF00
7F1E00
7C0000
7C0000
7C0000
7FF800
3FF800
3FF800
7FF800
FFF800
F80000
F80000
F80000
FE0F00
FFFF00
7FFF80
3FFF80
1FFF00
00C000
ENDCHAR
STARTCHAR 03AE
ENCODING 942
SWIDTH 495 0
DWIDTH 22 0
BBX 17 39 3 -7
BITMAP
006000
00F000
00F800
01F000
03F000
07E000
07C000
038000
010000
000000
000000
7FF800
FFFC00
FFFE00
FFFF00
FCFF00
F83F00
F81F00
F81F80
F81F80
F81F80
F81F80
F81F80
F81F80
F81F80
F81F80
F81F80
F81F80
F81F80
F81F80
F81F80
F81F80
001F80
001F80
001F80
001F80
001F80
001F80
001F80
ENDCHAR
STARTCHAR 03AF
ENCODING 943
SWIDTH 495 0
DWIDTH 22 0
BBX 19 32 2 0
BITMAP
006000
00F000
01F800
01F000
03E000
07E000
07C000
038000
010000
000000
000000
FFE000
FFE000
FFE000
FFE000
FFE000
07E000
07E000
07E000
07E000
07E000
07E000
07E000
07E000
07E000
07E000
03F040
03FFC0
03FFC0
01FFC0
01FFE0
007FC0
ENDCHAR
STARTCHAR 03B0
ENCODING 944
SWIDTH 495 0
DWIDTH 22 0
BBX 19 33 2 -1
BITMAP
006000
007800
70F380
F8F7C0
FDE7C0
FDE7E0
F9C7C0
73C380
018000
000000
000000
FC0FC0
FC0FC0
FC0FC0
FC0FC0
FC0FC0
FC0FC0
FC0FC0
FC0FC0
FC0FC0
FC0FC0
FC0FC0
FC0FC0
FC0FC0
FC0FC0
FC0FC0
7E1FC0
7FFF80
7FFF80
3FFF00
1FFF00
0FFC00
00C000
ENDCHAR
STARTCHAR 03B1
ENCODING 945
SWIDTH 495 0
DWIDTH 22 0
BBX 19 21 2 0
BITMAP
03FF00
0FFF80
1FFF80
3FFF80
7F8F80
7E0F80
FC0F80
FC0F80
FC0F80
F80F80
F80F80
F80F80
F80F80
FC0F80
FC0F80
FC0F80
7E1FC0
7FFFE0
3FFFE0
1FFFE0
0FF1E0
ENDCHAR
STARTCHAR 03B2
ENCODING 946
SWIDTH 495 0
DWIDTH 22 0
BBX 19 38 2 -7
BITMAP
01E000
0FFC00
1FFE00
3FFF00
7FFF00
7E3F80
7C1F80
7C0F80
FC0F80
FC0F80
FC1F80
FC1F00
FC7F00
FCFC00
FCFE00
FCFF00
FCFF80
FC1FC0
FC0FC0
FC07E0
FC07E0
FC07E0
FC07E0
FC07E0
FC07E0
FC0FE0
FF3FC0
FFFFC0
FFFF80
FFFF00
FFFE00
FC0000
FC0000
FC0000
FC0000
FC0000
FC0000
FC0000
ENDCHAR
STARTCHAR 03B3
ENCODING 947
SWIDTH 495 0
DWIDTH 22 0
BBX 21 28 1 -7
BITMAP
F801F8
FC01F0
FC03F0
7E03F0
7E03E0
3E03E0
3F07E0
3F07C0
1F07C0
1F0FC0
1F8F80
0F9F80
0F9F00
0FFF00
07FE00
07FE00
07FC00
07FC00
03F800
03F800
03F000
03F000
01F000
01F000
01F000
01F800
01F800
01F800
ENDCHAR
STARTCHAR 03B4
ENCODING 948
SWIDTH 495 0
DWIDTH 22 0
BBX 20 32 1 -1
BITMAP
00FC00
03FF80
07FFC0
0FFFC0
0FEF80
0F8080
0F8000
0F8000
0FC000
0FE000
07F800
03FC00
07FF00
0FFF80
1FFFC0
3F1FC0
3E0FE0
7E07E0
7C03F0
7C03F0
FC03F0
FC03F0
FC03F0
7C03F0
7E03F0
7E07E0
7F8FE0
3FFFC0
1FFFC0
0FFF00
07FE00
006000
ENDCHAR
STARTCHAR 03B5
ENCODING 949
SWIDTH 495 0
DWIDTH 22 0
BBX 17 22 3 -1
BITMAP
0FFF00
3FFF00
7FFF00
7FFF00
7F1E00
7C0000
7C0000
7C0000
7FF800
3FF800
3FF800
7FF800
FFF800
F80000
F80000
F80000
FE0F00
FFFF00
7FFF80
3FFF80
1FFF00
00C000
ENDCHAR
STARTCHAR 03B6
ENCODING 950
SWIDTH 495 0
DWIDTH 22 0
BBX 19 39 2 -8
BITMAP
3FFFC0
3FFFC0
3FFFC0
3FFFC0
3FFF80
003F00
007E00
00FC00
01F800
03F000
07E000
0FC000
0F8000
1F8000
3F0000
3E0000
7E0000
7E0000
7C0000
7C0000
FC0000
FC0000
FC0000
7E0000
7E0000
7F8000
3FF000
3FFE00
0FFF80
03FFC0
00FFC0
000FE0
0007E0
0007E0
0007C0
0007C0
000FC0
000380
000080
ENDCHAR
STARTCHAR 03B7
ENCODING 951
SWIDTH 495 0
DWIDTH 22 0
BBX 17 28 3 -7
BITMAP
7FF800
FFFC00
FFFE00
FFFF00
FCFF00
F83F00
F81F00
F81F80
F81F80
F81F80
F81F80
F81F80
F81F80
F81F80
F81F80
F81F80
F81F80
F81F80
F81F80
F81F80
F81F80
001F80
001F80
001F80
001F80
001F80
001F80
001F80
ENDCHAR
STARTCHAR 03B8
ENCODING 952
SWIDTH 495 0
DWIDTH 22 0
BBX 20 32 1 -1
BITMAP
00F000
07FE00
0FFF00
1FFF80
1FFF80
3F0FC0
3E07C0
7E07E0
7C03E0
7C03E0
7C03E0
7C03F0
FC03F0
FFFFF0
FFFFF0
FFFFF0
FFFFF0
FFFFF0
FC03F0
7C03F0
7C03F0
7C03E0
7C03E0
7E03E0
7E07E0
3F07C0
3F9FC0
1FFF80
0FFF80
0FFF00
03FC00
007000
ENDCHAR
STARTCHAR 03B9
ENCODING 953
SWIDTH 495 0
DWIDTH 22 0
BBX 19 21 2 0
BITMAP
FFE000
FFE000
FFE000
FFE000
FFE000
07E000
07E000
07E000
07E000
07E000
07E000
07E000
07E000
07E000
07E000
03F040
03FFC0
03FFC0
01FFC0
01FFE0
007FC0
ENDCHAR
STARTCHAR 03BA
ENCODING 954
SWIDTH 495 0
DWIDTH 22 0
BBX 18 21 3 0
BITMAP
F81FC0
F83F80
F83F00
F87E00
F8FC00
F8F800
F9F000
FBE000
FFE000
FFC000
FFE000
FBF000
F9F800
F9FC00
F8FC00
F87E00
F83F00
F83F80
F81F80
F80FC0
F80FC0
ENDCHAR
STARTCHAR 03BB
ENCODING 955
SWIDTH 495 0
DWIDTH 22 0
BBX 20 31 1 0
BITMAP
7E0000
7F8000
7FC000
7FE000
7FE000
07F000
03F000
01F800
01F800
00F800
00FC00
00FC00
01FE00
01FE00
03FE00
03FF00
07FF00
07FF00
0FDF80
0F9F80
1F9F80
1F9FC0
1F0FC0
3F0FC0
3F0FC0
3E07E0
7E07E0
7E07E0
7E07F0
FC03F0
FC03F0
ENDCHAR
STARTCHAR 03BC
ENCODING 956
SWIDTH 495 0
DWIDTH 22 0
BBX 16 28 3 -7
BITMAP
F81F
F81F
F81F
F81F
F81F
F81F
F81F
F81F
F81F
F81F
F81F
F81F
F81F
F81F
F81F
FC1F
FE1F
FFFF
FFFF
FFFF
FFFF
F800
F800
F800
F800
F800
F800
F800
ENDCHAR
STARTCHAR 03BD
ENCODING 957
SWIDTH 495 0
DWIDTH 22 0
BBX 20 21 1 0
BITMAP
F801F0
FC01F0
FC03F0
7C03F0
7E03E0
7E07E0
3E07E0
3E07C0
3F0FC0
1F0F80
1F0F80
1F9F80
0F9F00
0FFF00
07FE00
07FE00
07FC00
03FC00
03F800
01F800
01F000
ENDCHAR
STARTCHAR 03BE
ENCODING 958
SWIDTH 495 0
DWIDTH 22 0
BBX 19 39 2 -8
BITMAP
00FE00
07FFC0
0FFFC0
1FFFC0
1FFF80
3F8000
3F0000
3E0000
3E0000
3E0000
3F0000
1F8000
1FFF80
0FFF80
07FF80
0FFF80
1FFF80
3F8000
7E0000
7C0000
FC0000
FC0000
FC0000
FC0000
7E0000
7F8000
3FF000
3FFE00
1FFF80
07FFC0
00FFC0
001FE0
0007E0
0007E0
0007C0
0007C0
000FC0
000380
000080
ENDCHAR
STARTCHAR 03BF
ENCODING 959
SWIDTH 495 0
DWIDTH 22 0
BBX 20 22 1 -1
BITMAP
03FC00
0FFF00
1FFF80
3FFFC0
3F9FE0
7E07E0
7E03E0
7C03F0
FC03F0
FC03F0
FC03F0
FC03F0
FC03F0
7C03F0
7E03E0
7E07E0
3F8FE0
3FFFC0
1FFF80
0FFF00
07FE00
006000
ENDCHAR
STARTCHAR 03C0
ENCODING 960
SWIDTH 495 0
DWIDTH 22 0
BBX 16 21 3 0
BITMAP
FFFF
FFFF
FFFF
FFFF
FFFF
F81F
F81F
F81F
F81F
F81F
F81F
F81F
F81F
F81F
F81F
F81F
F81F
F81F
F81F
F81F
F81F
ENDCHAR
STARTCHAR 03C1
ENCODING 961
SWIDTH 495 0
DWIDTH 22 0
BBX 18 28 3 -7
BITMAP
0FF800
1FFE00
3FFF00
7FFF00
7F3F80
FC1F80
FC0F80
F80FC0
F80FC0
F80FC0
F80FC0
F80FC0
F80FC0
F80FC0
F81F80
F81F80
FC7F80
FFFF00
FFFF00
FFFE00
FFF800
F80000
F80000
F80000
F80000
F80000
F80000
F80000
ENDCHAR
STARTCHAR 03C2
ENCODING 962
SWIDTH 495 0
DWIDTH 22 0
BBX 19 29 2 -8
BITMAP
01FFC0
07FFC0
1FFFC0
3FFFC0
3FE180
7F0000
7E0000
FC0000
FC0000
FC0000
FC0000
FC0000
FC0000
FC0000
7E0000
7F8000
3FF000
3FFE00
0FFF80
07FFC0
007FC0
000FE0
0007E0
0007E0
0007C0
0007C0
000FC0
000380
000080
ENDCHAR
STARTCHAR 03C3
ENCODING 963
SWIDTH 495 0
DWIDTH 22 0
BBX 21 22 1 -1
BITMAP
01FFF8
07FFF8
1FFFF8
1FFFF8
3FFFF8
7F0F80
7E07C0
7E07C0
FC07E0
FC07E0
FC07E0
FC07E0
FC07E0
FC07E0
7C07E0
7E0FC0
7F1FC0
3FFF80
1FFF80
0FFF00
07FC00
004000
ENDCHAR
STARTCHAR 03C4
ENCODING 964
SWIDTH 495 0
DWIDTH 22 0
BBX 19 21 2 0
BITMAP
FFFFC0
FFFFC0
FFFFC0
FFFFC0
FFFFC0
0FC000
0FC000
0FC000
0FC000
0FC000
0FC000
0FC000
0FC000
0FC000
0FC000
0FC000
07F0E0
07FFE0
03FFE0
03FFE0
00FFE0
ENDCHAR
STARTCHAR 03C5
ENCODING 965
SWIDTH 495 0
DWIDTH 22 0
BBX 18 22 2 -1
BITMAP
FC0FC0
FC0FC0
FC0FC0
FC0FC0
FC0FC0
FC0FC0
FC0FC0
FC0FC0
FC0FC0
FC0FC0
FC0FC0
FC0FC0
FC0FC0
FC0FC0
FC0FC0
7E1FC0
7FFF80
7FFF80
3FFF00
1FFF00
0FFC00
00C000
ENDCHAR
STARTCHAR 03C6
ENCODING 966
SWIDTH 495 0
DWIDTH 22 0
BBX 20 28 1 -7
BITMAP
01F800
0FFF00
1FFF80
3FFFC0
7EF7E0
7CF3E0
78F1F0
F8F1F0
F8F0F0
F0F0F0
F0F0F0
F0F0F0
F0F0F0
F8F1F0
F8F1F0
78F1E0
7CF3E0
3FFFC0
3FFFC0
0FFF80
07FE00
00F000
00F000
00F000
00F000
00F000
00F000
00F000
ENDCHAR
STARTCHAR 03C7
ENCODING 967
SWIDTH 495 0
DWIDTH 22 0
BBX 20 21 1 0
BITMAP
FC03F0
7E03E0
3E07E0
3F0FC0
1F8F80
0F9F80
07FF00
07FE00
03FC00
01FC00
01FC00
03FC00
03FE00
07FF00
0F9F80
1F9F80
1F0FC0
3E07C0
7E07E0
7C03F0
FC03F0
ENDCHAR
STARTCHAR 03C8
ENCODING 968
SWIDTH 495 0
DWIDTH 22 0
BBX 20 28 1 -7
BITMAP
F000F0
F000F0
F000F0
F000F0
F000F0
F0F0F0
F0F0F0
F0F0F0
F0F0F0
F0F0F0
F0F0F0
F0F0F0
F0F0F0
F8F0F0
F8F1F0
78F1E0
7CF3E0
7FFFE0
3FFFC0
1FFF80
0FFF00
00F000
00F000
00F000
00F000
00F000
00F000
00F000
ENDCHAR
STARTCHAR 03C9
ENCODING 969
SWIDTH 495 0
DWIDTH 22 0
BBX 20 21 1 0
BITMAP
1C0380
1F0780
3E07C0
3E03C0
7C03E0
7C03E0
7C01E0
7801F0
F801F0
F8F1F0
F8F1F0
F8F1F0
F8F1F0
F8F1F0
F8F1F0
F8F9F0
7DF9F0
7FFFE0
7FFFE0
3F9FC0
1F0F80
ENDCHAR
STARTCHAR 03CA
ENCODING 970
SWIDTH 495 0
DWIDTH 22 0
BBX 19 30 2 0
BITMAP
1C0E00
3E1F00
3F1F80
3F1F80
3F1F00
1E0E00
000000
000000
000000
FFE000
FFE000
FFE000
FFE000
FFE000
07E000
07E000
07E000
07E000
07E000
07E000
07E000
07E000
07E000
07E000
03F040
03FFC0
03FFC0
01FFC0
01FFE0
007FC0
ENDCHAR
STARTCHAR 03CB
ENCODING 971
SWIDTH 495 0
DWIDTH 22 0
BBX 18 31 2 -1
BITMAP
1C0E00
3E1F00
3F1F80
3F1F80
3F1F00
1E0E00
000000
000000
000000
FC0FC0
FC0FC0
FC0FC0
FC0FC0
FC0FC0
FC0FC0
FC0FC0
FC0FC0
FC0FC0
FC0FC0
FC0FC0
FC0FC0
FC0FC0
FC0FC0
FC0FC0
7E1FC0
7FFF80
7FFF80
3FFF00
1FFF00
0FFC00
00C000
ENDCHAR
STARTCHAR 03CC
ENCODING 972
SWIDTH 495 0
DWIDTH 22 0
BBX 20 33 1 -1
BITMAP
001800
003C00
003E00
007C00
00FC00
01F800
01F000
00E000
004000
000000
000000
03FC00
0FFF00
1FFF80
3FFFC0
3F9FE0
7E07E0
7E03E0
7C03F0
FC03F0
FC03F0
FC03F0
FC03F0
FC03F0
7C03F0
7E03E0
7E07E0
3F8FE0
3FFFC0
1FFF80
0FFF00
07FE00
006000
ENDCHAR
STARTCHAR 03CD
ENCODING 973
SWIDTH 495 0
DWIDTH 22 0
BBX 18 33 2 -1
BITMAP
003000
007800
00FC00
01F800
01F000
03E000
07C000
03C000
008000
000000
000000
FC0FC0
FC0FC0
FC0FC0
FC0FC0
FC0FC0
FC0FC0
FC0FC0
FC0FC0
FC0FC0
FC0FC0
FC0FC0
FC0FC0
FC0FC0
FC0FC0
FC0FC0
7E1FC0
7FFF80
7FFF80
3FFF00
1FFF00
0FFC00
00C000
ENDCHAR
STARTCHAR 03CE
ENCODING 974
SWIDTH 495 0
DWIDTH 22 0
BBX 20 32 1 0
BITMAP
001800
003C00
007E00
00FC00
00F800
01F000
03E000
01E000
004000
000000
000000
1C0380
1F0780
3E07C0
3E03C0
7C03E0
7C03E0
7C01E0
7801F0
F801F0
F8F1F0
F8F1F0
F8F1F0
F8F1F0
F8F1F0
F8F1F0
F8F9F0
7DF9F0
7FFFE0
7FFFE0
3F9FC0
1F0F80
ENDCHAR
STARTCHAR 0400
ENCODING 1024
SWIDTH 495 0
DWIDTH 22 0
BBX 17 37 3 0
BITMAP
020000
030000
07C000
0FE000
0FF800
03F800
00F800
003000
000000
FFFF00
FFFF00
FFFF00
FFFF00
FFFF00
F80000
F80000
F80000
F80000
F80000
F80000
FFFE00
FFFE00
FFFE00
FFFE00
FFFE00
F80000
F80000
F80000
F80000
F80000
F80000
F80000
FFFF80
FFFF80
FFFF80
FFFF80
FFFF80
ENDCHAR
STARTCHAR 0401
ENCODING 1025
SWIDTH 495 0
DWIDTH 22 0
BBX 17 36 3 0
BITMAP
3C1C00
7E3E00
7E3F00
7E3F00
7C3E00
381C00
000000
000000
FFFF00
FFFF00
FFFF00
FFFF00
FFFF00
F80000
F80000
F80000
F80000
F80000
F80000
FFFE00
FFFE00
FFFE00
FFFE00
FFFE00
F80000
F80000
F80000
F80000
F80000
F80000
F80000
FFFF80
FFFF80
FFFF80
FFFF80
FFFF80
ENDCHAR
STARTCHAR 0402
ENCODING 1026
SWIDTH 495 0
DWIDTH 22 0
BBX 21 28 1 0
BITMAP
FFFF00
FFFF00
FFFF00
FFFF00
FFFF00
1F8000
1F8000
1F8000
1F8000
1F8000
1F8000
1FFF00
1FFFC0
1FFFE0
1FFFE0
1FFFF0
1F83F0
1F81F0
1F81F8
1F80F8
1F81F8
1F81F8
1F81F0
1F83F0
1F9FF0
1F9FE0
1F9FC0
1F9F80
ENDCHAR
STARTCHAR 0403
ENCODING 1027
SWIDTH 495 0
DWIDTH 22 0
BBX 20 37 2 0
BITMAP
000200
000E00
001F00
003F80
00FF80
00FE00
00F800
004000
000000
0FFFF0
0FFFF0
0FFFF0
0FFFF0
0FFFF0
0F8000
0F8000
0F8000
0F8000
0F8000
0F8000
0F8000
0F8000
0F8000
0F8000
0F8000
0F8000
0F8000
0F8000
0F8000
0F8000
0F8000
0F8000
FFFE00
FFFE00
FFFE00
FFFE00
FFFE00
ENDCHAR
STARTCHAR 0404
ENCODING 1028
SWIDTH 495 0
DWIDTH 22 0
BBX 20 29 1 -1
BITMAP
007F80
03FFE0
07FFF0
0FFFE0
1FFFE0
3F8060
3F0000
7E0000
7E0000
7C0000
FC0000
FC0000
FFFE00
FFFE00
FFFE00
FFFE00
FC0000
FC0000
7C0000
7C0000
7E0000
7E0000
3F0020
3FE1E0
1FFFE0
0FFFE0
07FFF0
01FFC0
001800
ENDCHAR
STARTCHAR 0405
ENCODING 1029
SWIDTH 495 0
DWIDTH 22 0
BBX 18 29 2 -1
BITMAP
07FC00
1FFF80
3FFF80
7FFF80
7FFF00
FC0100
FC0000
FC0000
FC0000
FE0000
7F0000
7FC000
3FF800
1FFE00
0FFF00
03FF80
007FC0
001FC0
000FC0
0007C0
0007C0
0007C0
400FC0
781FC0
FFFFC0
FFFF80
FFFF00
3FFC00
01C000
ENDCHAR
STARTCHAR 0406
ENCODING 1030
SWIDTH 495 0
DWIDTH 22 0
BBX 18 28 2 0
BITMAP
FFFFC0
FFFFC0
FFFFC0
FFFFC0
FFFFC0
03F000
03F000
03F000
03F000
03F000
03F000
03F000
03F000
03F000
03F000
03F000
03F000
03F000
03F000
03F000
03F000
03F000
03F000
FFFFC0
FFFFC0
FFFFC0
FFFFC0
FFFFC0
ENDCHAR
STARTCHAR 0407
ENCODING 1031
SWIDTH 495 0
DWIDTH 22 0
BBX 18 36 2 0
BITMAP
1E0E00
3F1F00
3F1F80
3F1F80
3E1F00
1C0E00
000000
000000
FFFFC0
FFFFC0
FFFFC0
FFFFC0
FFFFC0
03F000
03F000
03F000
03F000
03F000
03F000
03F000
03F000
03F000
03F000
03F000
03F000
03F000
03F000
03F000
03F000
03F000
03F000
FFFFC0
FFFFC0
FFFFC0
FFFFC0
FFFFC0
ENDCHAR
STARTCHAR 0408
ENCODING 1032
SWIDTH 495 0
DWIDTH 22 0
BBX 17 29 2 -1
BITMAP
1FFF80
1FFF80
1FFF80
1FFF80
1FFF80
000F80
000F80
000F80
000F80
000F80
000F80
000F80
000F80
000F80
000F80
000F80
000F80
000F80
000F80
000F80
000F80
001F80
201F80
787F80
7FFF00
FFFE00
FFFC00
3FF800
018000
ENDCHAR
STARTCHAR 0409
ENCODING 1033
SWIDTH 495 0
DWIDTH 22 0
BBX 21 28 0 0
BITMAP
1FF800
1FF800
1FF800
1FF800
1E3800
1E3800
1E3800
1E3800
1E3800
1E3800
1E3F00
1E3FE0
1E3FF0
1E3FF0
1E38F8
1E38F8
1E3878
1E3878
1E3878
1E3878
1E3878
1E3878
3E3878
3C38F8
FC39F0
F83FF0
F83FE0
603FC0
ENDCHAR
STARTCHAR 040A
ENCODING 1034
SWIDTH 495 0
DWIDTH 22 0
BBX 19 28 2 0
BITMAP
F0E000
F0E000
F0E000
F0E000
F0E000
F0E000
F0E000
F0E000
F0E000
F0E000
F0FC00
FFFF80
FFFFC0
FFFFC0
F0E3E0
F0E3E0
F0E1E0
F0E1E0
F0E1E0
F0E1E0
F0E1E0
F0E1E0
F0E1E0
F0E3E0
F0E7C0
F0FFC0
F0FF80
F0FF00
ENDCHAR
STARTCHAR 040B
ENCODING 1035
SWIDTH 495 0
DWIDTH 22 0
BBX 19 28 1 0
BITMAP
FFFF00
FFFF00
FFFF00
FFFF00
FFFF00
1F8000
1F8000
1F8000
1F8000
1F8000
1F8000
1FFF00
1FFF80
1FFFC0
1FFFC0
1FFFE0
1F87E0
1F87E0
1F83E0
1F83E0
1F83E0
1F83E0
1F83E0
1F83E0
1F83E0
1F83E0
1F83E0
1F83E0
ENDCHAR
STARTCHAR 040C
ENCODING 1036
SWIDTH 495 0
DWIDTH 22 0
BBX 20 37 2 0
BITMAP
001000
003800
00F800
01FC00
03FC00
07F000
03C000
030000
000000
F807E0
F80FC0
F80FC0
F81F80
F81F80
F83F00
F87E00
F87E00
F8FC00
F9F800
F9F000
FBF000
FFE000
FFE000
FFF000
FBF800
F9F800
F9FC00
F8FE00
F87F00
F83F00
F83F80
F81F80
F80FC0
F80FC0
F807E0
F807E0
F807F0
ENDCHAR
STARTCHAR 040D
ENCODING 1037
SWIDTH 495 0
DWIDTH 22 0
BBX 18 37 2 0
BITMAP
010000
018000
03E000
07F000
07FC00
01FC00
007C00
001800
000000
F803C0
F807C0
F807C0
F80FC0
F81FC0
F81FC0
F83FC0
F83FC0
F87FC0
F87FC0
F8FFC0
F8F7C0
F9F7C0
F9E7C0
FBE7C0
FBC7C0
FFC7C0
FF87C0
FF87C0
FF07C0
FF07C0
FE07C0
FE07C0
FC07C0
FC07C0
FC07C0
F807C0
F807C0
ENDCHAR
STARTCHAR 040E
ENCODING 1038
SWIDTH 495 0
DWIDTH 22 0
BBX 22 37 0 0
BITMAP
0F83C0
0F87C0
07FF80
07FF80
03FF00
00FC00
000000
000000
FC00FC
7E01FC
7E01F8
7F01F8
3F01F8
3F03F0
1F83F0
1F83F0
0FC7E0
0FC7E0
07E7E0
07EFC0
03FFC0
01FFC0
01FF80
00FF80
00FF00
007F00
007F00
003E00
007E00
007C00
00FC00
33FC00
3FF800
3FF000
7FE000
7FC000
060000
ENDCHAR
STARTCHAR 040F
ENCODING 1039
SWIDTH 495 0
DWIDTH 22 0
BBX 18 35 2 -7
BITMAP
F807C0
F807C0
F807C0
F807C0
F807C0
F807C0
F807C0
F807C0
F807C0
F807C0
F807C0
F807C0
F807C0
F807C0
F807C0
F807C0
F807C0
F807C0
F807C0
F807C0
F807C0
F807C0
F807C0
FFFFC0
FFFFC0
FFFFC0
FFFFC0
FFFFC0
01F000
01F000
01F000
01F000
01F000
01F000
01F000
ENDCHAR
STARTCHAR 0410
ENCODING 1040
SWIDTH 495 0
DWIDTH 22 0
BBX 21 28 1 0
BITMAP
01F800
01F800
01FC00
03FC00
03FC00
03FE00
07FE00
07DE00
079F00
0F9F00
0F9F00
0F8F80
0F0F80
1F0F80
1F0F80
1F0FC0
3E07C0
3FFFC0
3FFFC0
3FFFE0
7FFFE0
7FFFE0
7C03E0
FC03F0
FC03F0
FC03F0
F801F0
F801F8
ENDCHAR
STARTCHAR 0411
ENCODING 1041
SWIDTH 495 0
DWIDTH 22 0
BBX 19 28 2 0
BITMAP
FFFF00
FFFF00
FFFF00
FFFF00
FFFF00
FC0000
FC0000
FC0000
FC0000
FC0000
FFC000
FFFE00
FFFF00
FFFF80
FFFFC0
FC1FC0
FC07E0
FC07E0
FC07E0
FC07E0
FC07E0
FC07E0
FC0FC0
FE7FC0
FFFF80
FFFF80
FFFE00
FFF800
ENDCHAR
STARTCHAR 0412
ENCODING 1042
SWIDTH 495 0
DWIDTH 22 0
BBX 19 28 2 0
BITMAP
1FE000
FFFC00
FFFF00
FFFF00
FFFF80
FC1F80
FC0F80
FC0FC0
FC0F80
FC0F80
FC1F80
FFFF00
FFFE00
FFFE00
FFFF00
FFFF80
FC0FC0
FC07C0
FC07E0
FC07E0
FC07E0
FC07E0
FC0FE0
FE3FC0
FFFFC0
FFFF80
FFFF00
FFFC00
ENDCHAR
STARTCHAR 0413
ENCODING 1043
SWIDTH 495 0
DWIDTH 22 0
BBX 20 28 2 0
BITMAP
0FFFF0
0FFFF0
0FFFF0
0FFFF0
0FFFF0
0F8000
0F8000
0F8000
0F8000
0F8000
0F8000
0F8000
0F8000
0F8000
0F8000
0F8000
0F8000
0F8000
0F8000
0F8000
0F8000
0F8000
0F8000
FFFE00
FFFE00
FFFE00
FFFE00
FFFE00
ENDCHAR
STARTCHAR 0414
ENCODING 1044
SWIDTH 495 0
DWIDTH 22 0
BBX 20 35 1 -7
BITMAP
0FFFE0
0FFFE0
0FFFE0
0FFFE0
0FFFE0
0F87E0
0F87E0
0F87E0
0F87E0
0F87E0
0F87E0
0F87E0
0F87E0
0F87E0
0F87E0
0F87E0
0F07E0
1F07E0
1F07E0
1F07E0
1E07E0
3E07E0
3E07E0
FFFFF0
FFFFF0
FFFFF0
FFFFF0
FFFFF0
F801F0
F801F0
F801F0
F801F0
F801F0
F801F0
F801F0
ENDCHAR
STARTCHAR 0415
ENCODING 1045
SWIDTH 495 0
DWIDTH 22 0
BBX 17 28 3 0
BITMAP
FFFF00
FFFF00
FFFF00
FFFF00
FFFF00
F80000
F80000
F80000
F80000
F80000
F80000
FFFE00
FFFE00
FFFE00
FFFE00
FFFE00
F80000
F80000
F80000
F80000
F80000
F80000
F80000
FFFF80
FFFF80
FFFF80
FFFF80
FFFF80
ENDCHAR
STARTCHAR 0416
ENCODING 1046
SWIDTH 495 0
DWIDTH 22 0
BBX 22 28 0 0
BITMAP
F8787C
787878
7C7878
3C78F8
3C78F0
3C78F0
1E79E0
1E79E0
0F79E0
0F7BC0
07FBC0
07FF80
03FF00
03FF00
03FF80
07FB80
0F7BC0
0F7BC0
1E79E0
1E79E0
3E79F0
3C78F0
3C78F0
7C78F8
7C7878
787878
78787C
F8787C
ENDCHAR
STARTCHAR 0417
ENCODING 1047
SWIDTH 495 0
DWIDTH 22 0
BBX 20 29 1 -1
BITMAP
07FC00
3FFF00
7FFF80
3FFFC0
3FFFC0
380FE0
0007E0
0007E0
0007E0
0007E0
000FC0
00FFC0
07FF80
07FF00
07FFC0
07FFE0
000FE0
0003F0
0003F0
0001F0
0001F0
0003F0
2003F0
7C0FF0
7FFFE0
FFFFC0
FFFF80
1FFE00
00C000
ENDCHAR
STARTCHAR 0418
ENCODING 1048
SWIDTH 495 0
DWIDTH 22 0
BBX 18 28 2 0
BITMAP
F803C0
F807C0
F807C0
F80FC0
F81FC0
F81FC0
F83FC0
F83FC0
F87FC0
F87FC0
F8FFC0
F8F7C0
F9F7C0
F9E7C0
FBE7C0
FBC7C0
FFC7C0
FF87C0
FF87C0
FF07C0
FF07C0
FE07C0
FE07C0
FC07C0
FC07C0
FC07C0
F807C0
F807C0
ENDCHAR
STARTCHAR 0419
ENCODING 1049
SWIDTH 495 0
DWIDTH 22 0
BBX 18 36 2 1
BITMAP
3E0F00
3E1F00
1FFE00
1FFE00
0FFC00
03F000
000000
000000
F803C0
F807C0
F807C0
F80FC0
F81FC0
F81FC0
F83FC0
F83FC0
F87FC0
F87FC0
F8FFC0
F8F7C0
F9F7C0
F9E7C0
FBE7C0
FBC7C0
FFC7C0
FF87C0
FF87C0
FF07C0
FF07C0
FE07C0
FE07C0
FC07C0
FC07C0
FC07C0
F807C0
F807C0
ENDCHAR
STARTCHAR 041A
ENCODING 1050
SWIDTH 495 0
DWIDTH 22 0
BBX 20 28 2 0
BITMAP
F807E0
F80FC0
F80FC0
F81F80
F81F80
F83F00
F87E00
F87E00
F8FC00
F9F800
F9F000
FBF000
FFE000
FFE000
FFF000
FBF800
F9F800
F9FC00
F8FE00
F87F00
F83F00
F83F80
F81F80
F80FC0
F80FC0
F807E0
F807E0
F807F0
ENDCHAR
STARTCHAR 041B
ENCODING 1051
SWIDTH 495 0
DWIDTH 22 0
BBX 21 28 0 -1
BITMAP
03FFF8
03FFF8
03FFF8
03FFF8
03FFF8
03E1F8
03E1F8
03E1F8
03E1F8
03E1F8
03E1F8
03E1F8
03E1F8
03E1F8
03E1F8
07C1F8
07C1F8
07C1F8
07C1F8
07C1F8
0F81F8
0F81F8
1F81F8
7F01F8
FF01F8
7E01F8
7C01F8
7801F8
ENDCHAR
STARTCHAR 041C
ENCODING 1052
SWIDTH 495 0
DWIDTH 22 0
BBX 20 28 1 0
BITMAP
3C03E0
7C03E0
7E07E0
7E07E0
7E07E0
7F0FE0
7F0FE0
7F0FE0
7F9FE0
7B9FE0
7B9DE0
7BFDE0
7BFDF0
79F9F0
79F9F0
79F9F0
F8F9F0
F8F1F0
F801F0
F801F0
F801F0
F801F0
F801F0
F801F0
F801F0
F801F0
F801F0
F801F0
ENDCHAR
STARTCHAR 041D
ENCODING 1053
SWIDTH 495 0
DWIDTH 22 0
BBX 18 28 2 0
BITMAP
F807C0
F807C0
F807C0
F807C0
F807C0
F807C0
F807C0
F807C0
F807C0
F807C0
F807C0
FFFFC0
FFFFC0
FFFFC0
FFFFC0
FFFFC0
F807C0
F807C0
F807C0
F807C0
F807C0
F807C0
F807C0
F807C0
F807C0
F807C0
F807C0
F807C0
ENDCHAR
STARTCHAR 041E
ENCODING 1054
SWIDTH 495 0
DWIDTH 22 0
BBX 20 29 1 -1
BITMAP
01FC00
07FF00
0FFF80
1FFF80
3FFFC0
3F0FE0
7E07E0
7E03E0
7C03E0
7C03F0
FC03F0
FC03F0
FC03F0
FC03F0
FC03F0
FC03F0
FC03F0
FC03F0
FC03F0
7C03F0
7C03E0
7E07E0
7E07E0
3F8FC0
3FFFC0
1FFF80
0FFF00
03FE00
007000
ENDCHAR
STARTCHAR 041F
ENCODING 1055
SWIDTH 495 0
DWIDTH 22 0
BBX 18 28 2 0
BITMAP
FFFFC0
FFFFC0
FFFFC0
FFFFC0
FFFFC0
F807C0
F807C0
F807C0
F807C0
F807C0
F807C0
F807C0
F807C0
F807C0
F807C0
F807C0
F807C0
F807C0
F807C0
F807C0
F807C0
F807C0
F807C0
F807C0
F807C0
F807C0
F807C0
F807C0
ENDCHAR
STARTCHAR 0420
ENCODING 1056
SWIDTH 495 0
DWIDTH 22 0
BBX 19 28 2 0
BITMAP
1FE000
FFFE00
FFFF00
FFFF80
FFFFC0
FC1FC0
FC07E0
FC07E0
FC07E0
FC07E0
FC07E0
FC07E0
FC0FE0
FC1FC0
FFFFC0
FFFF80
FFFF00
FFFC00
FFE000
FC0000
FC0000
FC0000
FC0000
FC0000
FC0000
FC0000
FC0000
FC0000
ENDCHAR
STARTCHAR 0421
ENCODING 1057
SWIDTH 495 0
DWIDTH 22 0
BBX 20 29 1 -1
BITMAP
007F80
03FFE0
07FFF0
0FFFE0
1FFFE0
3F8060
3F0000
7E0000
7E0000
7C0000
FC0000
FC0000
FC0000
FC0000
FC0000
FC0000
FC0000
FC0000
7C0000
7E0000
7E0000
7F0000
3F0020
3FC1E0
1FFFE0
0FFFE0
07FFF0
01FFC0
001800
ENDCHAR
STARTCHAR 0422
ENCODING 1058
SWIDTH 495 0
DWIDTH 22 0
BBX 20 28 1 0
BITMAP
FFFFF0
FFFFF0
FFFFF0
FFFFF0
FFFFF0
01F800
01F800
01F800
01F800
01F800
01F800
01F800
01F800
01F800
01F800
01F800
01F800
01F800
01F800
01F800
01F800
01F800
01F800
01F800
01F800
01F800
01F800
01F800
ENDCHAR
STARTCHAR 0423
ENCODING 1059
SWIDTH 495 0
DWIDTH 22 0
BBX 22 29 0 -1
BITMAP
FC00FC
7E01FC
7E01F8
7F01F8
3F01F8
3F03F0
1F83F0
1F83F0
0FC7E0
0FC7E0
07E7E0
07EFC0
03FFC0
01FFC0
01FF80
00FF80
00FF00
007F00
007F00
003E00
007E00
007C00
00FC00
33FC00
3FF800
3FF000
7FE000
7FC000
060000
ENDCHAR
STARTCHAR 0424
ENCODING 1060
SWIDTH 495 0
DWIDTH 22 0
BBX 20 29 1 0
BITMAP
00F000
00F000
00F000
07FE00
0FFF80
1FFFC0
3FFFC0
7CF3E0
7CF1E0
78F1F0
F8F1F0
F8F0F0
F8F0F0
F0F0F0
F0F0F0
F0F0F0
F8F0F0
F8F1F0
F8F1F0
78F1E0
7CF3E0
3EF7E0
3FFFC0
1FFF80
0FFF00
03FC00
00F000
00F000
00F000
ENDCHAR
STARTCHAR 0425
ENCODING 1061
SWIDTH 495 0
DWIDTH 22 0
BBX 21 28 1 0
BITMAP
FC01F0
FC03F0
7E03E0
3E07E0
3F07C0
1F0FC0
1F8F80
0F9F00
0FDF00
07FE00
07FE00
03FC00
01FC00
01F800
01FC00
03FE00
07FE00
07FF00
0FDF00
0F9F80
1F8F80
1F0FC0
3F07C0
3E07E0
7E07E0
7C03F0
FC03F0
FC01F8
ENDCHAR
STARTCHAR 0426
ENCODING 1062
SWIDTH 495 0
DWIDTH 22 0
BBX 19 35 2 -7
BITMAP
F80F80
F80F80
F80F80
F80F80
F80F80
F80F80
F80F80
F80F80
F80F80
F80F80
F80F80
F80F80
F80F80
F80F80
F80F80
F80F80
F80F80
F80F80
F80F80
F80F80
F80F80
F80F80
F80F80
FFFFE0
FFFFE0
FFFFE0
FFFFE0
FFFFE0
0003E0
0003E0
0003E0
0003E0
0003E0
0003E0
0003E0
ENDCHAR
STARTCHAR 0427
ENCODING 1063
SWIDTH 495 0
DWIDTH 22 0
BBX 18 28 2 0
BITMAP
F807C0
F807C0
F807C0
F807C0
F807C0
F807C0
F807C0
F807C0
F807C0
F807C0
FC07C0
FC07C0
FC07C0
7E07C0
7FFFC0
7FFFC0
3FFFC0
1FFFC0
07FFC0
0007C0
0007C0
0007C0
0007C0
0007C0
0007C0
0007C0
0007C0
0007C0
ENDCHAR
STARTCHAR 0428
ENCODING 1064
SWIDTH 495 0
DWIDTH 22 0
BBX 20 28 1 0
BITMAP
F000F0
F000F0
F000F0
F000F0
F000F0
F000F0
F000F0
F000F0
F000F0
F000F0
F000F0
F0F0F0
F0F0F0
F0F0F0
F0F0F0
F0F0F0
F0F0F0
F0F0F0
F0F0F0
F0F0F0
F0F0F0
F0F0F0
F0F0F0
FFFFF0
FFFFF0
FFFFF0
FFFFF0
FFFFF0
ENDCHAR
STARTCHAR 0429
ENCODING 1065
SWIDTH 495 0
DWIDTH 22 0
BBX 21 35 1 -7
BITMAP
F001E0
F001E0
F001E0
F001E0
F001E0
F001E0
F001E0
F001E0
F001E0
F001E0
F001E0
F1F1E0
F1F1E0
F1F1E0
F1F1E0
F1F1E0
F1F1E0
F1F1E0
F1F1E0
F1F1E0
F1F1E0
F1F1E0
F1F1E0
FFFFF8
FFFFF8
FFFFF8
FFFFF8
FFFFF8
000078
000078
000078
000078
000078
000078
000078
ENDCHAR
STARTCHAR 042A
ENCODING 1066
SWIDTH 495 0
DWIDTH 22 0
BBX 20 28 1 0
BITMAP
FF8000
FF8000
FF8000
FF8000
FF8000
1F8000
1F8000
1F8000
1F8000
1F8000
1FFC00
1FFF00
1FFFC0
1FFFC0
1FFFE0
1F87E0
1F83F0
1F83F0
1F83F0
1F83F0
1F83F0
1F83F0
1F87E0
1FFFE0
1FFFC0
1FFFC0
1FFF00
1FFE00
ENDCHAR
STARTCHAR 042B
ENCODING 1067
SWIDTH 495 0
DWIDTH 22 0
BBX 19 28 2 0
BITMAP
F003E0
F003E0
F003E0
F003E0
F003E0
F003E0
F003E0
F003E0
F003E0
F003E0
FF83E0
FFC3E0
FFE3E0
FFF3E0
F3F3E0
F0F3E0
F0FBE0
F0FBE0
F0FBE0
F0FBE0
F0FBE0
F0FBE0
F0F3E0
F1F3E0
FFF3E0
FFE3E0
FFC3E0
FF83E0
ENDCHAR
STARTCHAR 042C
ENCODING 1068
SWIDTH 495 0
DWIDTH 22 0
BBX 19 28 2 0
BITMAP
FC0000
FC0000
FC0000
FC0000
FC0000
FC0000
FC0000
FC0000
FC0000
FC0000
FFF800
FFFE00
FFFF00
FFFF80
FFFFC0
FC1FC0
FC0FE0
FC07E0
FC07E0
FC07E0
FC07E0
FC07E0
FC0FC0
FFFFC0
FFFF80
FFFF00
FFFE00
FFF800
ENDCHAR
STARTCHAR 042D
ENCODING 1069
SWIDTH 495 0
DWIDTH 22 0
BBX 20 29 2 -1
BITMAP
1FF000
7FFC00
FFFE00
7FFF00
7FFF80
601FC0
000FC0
0007C0
0007E0
0003E0
0003E0
0003E0
07FFE0
07FFE0
07FFF0
07FFE0
0003E0
0003E0
0003E0
0007E0
0007E0
000FC0
401FC0
787F80
7FFF00
FFFE00
FFFC00
7FF800
030000
ENDCHAR
STARTCHAR 042E
ENCODING 1070
SWIDTH 495 0
DWIDTH 22 0
BBX 20 29 1 -1
BITMAP
F81F80
F83FC0
F87FC0
F87FE0
F8FFE0
F8F1E0
F8F1F0
F8F0F0
F8F0F0
F8F0F0
F9F0F0
FFF0F0
FFF0F0
FFF0F0
FFF0F0
FFF0F0
F9F0F0
F9F0F0
F9F0F0
F8F0F0
F8F0F0
F8F1F0
F8F1F0
F8F9E0
F8FFE0
F87FE0
F87FC0
F83F80
000C00
ENDCHAR
STARTCHAR 042F
ENCODING 1071
SWIDTH 495 0
DWIDTH 22 0
BBX 19 28 1 0
BITMAP
007F80
03FFE0
0FFFE0
1FFFE0
1FFFE0
3F83E0
3F03E0
3F03E0
3E03E0
3E03E0
3E03E0
3F03E0
3F83E0
1FFFE0
1FFFE0
0FFFE0
03FFE0
07FFE0
07E3E0
0FC3E0
1F83E0
1F83E0
3F03E0
3F03E0
7E03E0
7E03E0
FC03E0
FC03E0
ENDCHAR
STARTCHAR 0430
ENCODING 1072
SWIDTH 495 0
DWIDTH 22 0
BBX 18 21 2 0
BITMAP
3FFC00
3FFE00
3FFF00
3FFF80
103F80
000F80
000FC0
000FC0
07FFC0
1FFFC0
7FFFC0
7FFFC0
FE0FC0
FC0FC0
F80FC0
FC0FC0
FC0FC0
FFFFC0
7FFFC0
3FFFC0
1FFFC0
ENDCHAR
STARTCHAR 0431
ENCODING 1073
SWIDTH 495 0
DWIDTH 22 0
BBX 18 32 2 -1
BITMAP
0000C0
001FC0
00FFC0
03FFC0
0FFFC0
1FFF00
1FC000
3F0000
7E0000
7E0000
7C0000
FDFC00
FFFE00
FFFF00
FFFF80
FFFF80
FE1FC0
FC0FC0
FC0FC0
FC0FC0
FC07C0
FC07C0
FC0FC0
FC0FC0
FC0FC0
7E1FC0
7FBF80
3FFF80
3FFF00
1FFE00
0FFC00
00C000
ENDCHAR
STARTCHAR 0432
ENCODING 1074
SWIDTH 495 0
DWIDTH 22 0
BBX 17 21 3 0
BITMAP
FFF800
FFFE00
FFFF00
FFFF00
F83F80
F81F80
F81F80
F81F00
FFFF00
FFFE00
FFFF00
FFFF80
F81F80
F80F80
F80F80
F80F80
F81F80
FFFF80
FFFF00
FFFE00
FFF800
ENDCHAR
STARTCHAR 0433
ENCODING 1075
SWIDTH 495 0
DWIDTH 22 0
BBX 16 21 4 0
BITMAP
FFFF
FFFF
FFFF
FFFF
FFFF
F800
F800
F800
F800
F800
F800
F800
F800
F800
F800
F800
F800
F800
F800
F800
F800
ENDCHAR
STARTCHAR 0434
ENCODING 1076
SWIDTH 495 0
DWIDTH 22 0
BBX 20 27 1 -6
BITMAP
07FFC0
07FFC0
07FFC0
07FFC0
07FFC0
0787C0
0787C0
0F87C0
0F87C0
0F87C0
0F87C0
0F07C0
1F07C0
1F07C0
1F07C0
3E07C0
FFFFF0
FFFFF0
FFFFF0
FFFFF0
FFFFF0
F801F0
F801F0
F801F0
F801F0
F801F0
F801F0
ENDCHAR
STARTCHAR 0435
ENCODING 1077
SWIDTH 495 0
DWIDTH 22 0
BBX 20 21 1 0
BITMAP
03FE00
0FFF00
1FFF80
1FFFC0
3F8FE0
7E07E0
7E03E0
7C03E0
FC03F0
FFFFF0
FFFFF0
FFFFF0
FC0000
7C0000
7E0000
7F0000
3FC3C0
3FFFC0
1FFFC0
0FFFC0
03FFC0
ENDCHAR
STARTCHAR 0436
ENCODING 1078
SWIDTH 495 0
DWIDTH 22 0
BBX 20 21 1 0
BITMAP
F0F0F0
F8F1F0
78F1E0
7CF1E0
3CF3C0
3CF3C0
1EF780
0EF780
0FFF00
07FF00
07FF00
0FFF00
1EF780
1EF780
3EF3C0
3CF3C0
7CF3E0
78F1E0
78F1F0
F8F0F0
F8F0F0
ENDCHAR
STARTCHAR 0437
ENCODING 1079
SWIDTH 495 0
DWIDTH 22 0
BBX 17 22 2 -1
BITMAP
3FF800
7FFE00
7FFF00
7FFF00
3E7F80
001F80
000F80
001F00
0FFF00
0FFE00
0FFE00
0FFF00
0FFF80
000F80
000F80
000F80
783F80
7FFF80
7FFF00
FFFF00
7FFC00
018000
ENDCHAR
STARTCHAR 0438
ENCODING 1080
SWIDTH 495 0
DWIDTH 22 0
BBX 16 21 3 0
BITMAP
F80F
F81F
F83F
F83F
F87F
F8FF
F8FF
F9FF
F9EF
FBEF
FFCF
FF8F
FF8F
FF0F
FF0F
FE0F
FE0F
FC0F
F80F
F80F
F00F
ENDCHAR
STARTCHAR 0439
ENCODING 1081
SWIDTH 495 0
DWIDTH 22 0
BBX 16 30 3 0
BITMAP
3C1E
7C3E
3FFE
3FFC
1FF8
07E0
0000
0000
0000
F80F
F81F
F83F
F83F
F87F
F8FF
F8FF
F9FF
F9EF
FBEF
FFCF
FF8F
FF8F
FF0F
FF0F
FE0F
FE0F
FC0F
F80F
F80F
F00F
ENDCHAR
STARTCHAR 043A
ENCODING 1082
SWIDTH 495 0
DWIDTH 22 0
BBX 18 21 3 0
BITMAP
F81FC0
F83F80
F83F00
F87E00
F8FC00
F9FC00
F9F800
FBF000
FFE000
FFC000
FFE000
FBF000
F9F800
F9FC00
F8FC00
F87E00
F83F00
F83F80
F81F80
F80FC0
F80FC0
ENDCHAR
STARTCHAR 043B
ENCODING 1083
SWIDTH 495 0
DWIDTH 22 0
BBX 18 21 1 0
BITMAP
07FFC0
07FFC0
07FFC0
07FFC0
07FFC0
07C7C0
07C7C0
07C7C0
0787C0
0F87C0
0F87C0
0F87C0
0F87C0
0F87C0
1F87C0
3F07C0
7F07C0
FE07C0
FE07C0
FC07C0
F007C0
ENDCHAR
STARTCHAR 043C
ENCODING 1084
SWIDTH 495 0
DWIDTH 22 0
BBX 20 21 1 0
BITMAP
3C03E0
7E03E0
7E07E0
7E07E0
7F0FE0
7F0FE0
7F0FE0
7F9FE0
7B9FE0
7B9DF0
7BFDF0
79FDF0
79FDF0
F9F9F0
F9F9F0
F8F9F0
F8F1F0
F801F0
F801F0
F801F0
F801F0
ENDCHAR
STARTCHAR 043D
ENCODING 1085
SWIDTH 495 0
DWIDTH 22 0
BBX 17 21 3 0
BITMAP
F81F80
F81F80
F81F80
F81F80
F81F80
F81F80
F81F80
F81F80
FFFF80
FFFF80
FFFF80
FFFF80
FFFF80
F81F80
F81F80
F81F80
F81F80
F81F80
F81F80
F81F80
F81F80
ENDCHAR
STARTCHAR 043E
ENCODING 1086
SWIDTH 495 0
DWIDTH 22 0
BBX 20 22 1 -1
BITMAP
03FC00
0FFF00
1FFF80
3FFFC0
3F9FE0
7E07E0
7E03E0
7C03F0
FC03F0
FC03F0
FC03F0
FC03F0
FC03F0
7C03F0
7E03E0
7E07E0
3F8FE0
3FFFC0
1FFF80
0FFF00
07FE00
006000
ENDCHAR
STARTCHAR 043F
ENCODING 1087
SWIDTH 495 0
DWIDTH 22 0
BBX 16 21 3 0
BITMAP
FFFF
FFFF
FFFF
FFFF
FFFF
F81F
F81F
F81F
F81F
F81F
F81F
F81F
F81F
F81F
F81F
F81F
F81F
F81F
F81F
F81F
F81F
ENDCHAR
STARTCHAR 0440
ENCODING 1088
SWIDTH 495 0
DWIDTH 22 0
BBX 18 28 3 -7
BITMAP
7FF000
FFFC00
FFFE00
FFFF00
FCFF80
F81F80
F81F80
F80FC0
F80FC0
F80FC0
F80FC0
F80FC0
F80FC0
F80FC0
F80F80
F81F80
FC3F80
FFFF00
FFFF00
FFFE00
FFF800
F80000
F80000
F80000
F80000
F80000
F80000
F80000
ENDCHAR
STARTCHAR 0441
ENCODING 1089
SWIDTH 495 0
DWIDTH 22 0
BBX 19 21 2 0
BITMAP
03FFC0
0FFFC0
1FFFC0
3FFFC0
3FE380
7F0000
7E0000
FC0000
FC0000
FC0000
FC0000
FC0000
FC0000
FC0000
7E0000
7F0000
7FE0C0
3FFFC0
1FFFC0
0FFFE0
03FFE0
ENDCHAR
STARTCHAR 0442
ENCODING 1090
SWIDTH 495 0
DWIDTH 22 0
BBX 19 21 2 0
BITMAP
FFFFE0
FFFFE0
FFFFE0
FFFFE0
FFFFE0
03F000
03F000
03F000
03F000
03F000
03F000
03F000
03F000
03F000
03F000
03F000
03F000
03F000
03F000
03F000
03F000
ENDCHAR
STARTCHAR 0443
ENCODING 1091
SWIDTH 495 0
DWIDTH 22 0
BBX 20 28 1 -7
BITMAP
7C03F0
7E03F0
7E03E0
3E03E0
3E07E0
3F07C0
3F07C0
1F07C0
1F8FC0
0F8F80
0F8F80
0FCF80
07DF00
07FF00
07FF00
03FE00
03FE00
01FE00
01FC00
00FC00
00F800
01F800
01F000
47F000
7FE000
FFE000
FFC000
FF0000
ENDCHAR
STARTCHAR 0444
ENCODING 1092
SWIDTH 495 0
DWIDTH 22 0
BBX 20 38 1 -7
BITMAP
001000
00F000
00F000
00F000
00F000
00F000
00F000
00F000
00F000
00F000
01F800
0FFF00
1FFF80
3FFFC0
7EF7E0
7CF3E0
78F1F0
F8F1F0
F8F0F0
F0F0F0
F0F0F0
F0F0F0
F8F0F0
F8F1F0
F8F1F0
78F1E0
7CF3E0
3FFFC0
3FFFC0
1FFF80
07FE00
00F000
00F000
00F000
00F000
00F000
00F000
00F000
ENDCHAR
STARTCHAR 0445
ENCODING 1093
SWIDTH 495 0
DWIDTH 22 0
BBX 20 21 1 0
BITMAP
FC03F0
7E03E0
3E07E0
3F0FC0
1F8F80
0F9F80
07FF00
07FE00
03FC00
01FC00
01FC00
03FC00
03FE00
07FF00
0F9F80
1F9F80
1F0FC0
3E07C0
7E07E0
7C03F0
FC03F0
ENDCHAR
STARTCHAR 0446
ENCODING 1094
SWIDTH 495 0
DWIDTH 22 0
BBX 17 27 3 -6
BITMAP
F83F00
F83F00
F83F00
F83F00
F83F00
F83F00
F83F00
F83F00
F83F00
F83F00
F83F00
F83F00
F83F00
F83F00
F83F00
F83F00
FFFF80
FFFF80
FFFF80
FFFF80
FFFF80
000F80
000F80
000F80
000F80
000F80
000F80
ENDCHAR
STARTCHAR 0447
ENCODING 1095
SWIDTH 495 0
DWIDTH 22 0
BBX 17 21 2 0
BITMAP
F80F80
F80F80
F80F80
F80F80
F80F80
F80F80
F80F80
F80F80
FC0F80
FFFF80
7FFF80
7FFF80
3FFF80
1FFF80
000F80
000F80
000F80
000F80
000F80
000F80
000F80
ENDCHAR
STARTCHAR 0448
ENCODING 1096
SWIDTH 495 0
DWIDTH 22 0
BBX 20 21 1 0
BITMAP
F801F0
F801F0
F801F0
F801F0
F801F0
F8F1F0
F8F1F0
F8F1F0
F8F1F0
F8F1F0
F8F1F0
F8F1F0
F8F1F0
F8F1F0
F8F1F0
F8F1F0
FFFFF0
FFFFF0
FFFFF0
FFFFF0
FFFFF0
ENDCHAR
STARTCHAR 0449
ENCODING 1097
SWIDTH 495 0
DWIDTH 22 0
BBX 20 27 1 -6
BITMAP
F801E0
F801E0
F801E0
F801E0
F801E0
F9F1E0
F9F1E0
F9F1E0
F9F1E0
F9F1E0
F9F1E0
F9F1E0
F9F1E0
F9F1E0
F9F1E0
F9F1E0
FFFFF0
FFFFF0
FFFFF0
FFFFF0
FFFFF0
0000F0
0000F0
0000F0
0000F0
0000F0
0000F0
ENDCHAR
STARTCHAR 044A
ENCODING 1098
SWIDTH 495 0
DWIDTH 22 0
BBX 20 21 1 0
BITMAP
FF8000
FF8000
FF8000
FF8000
FF8000
1F8000
1F8000
1FFC00
1FFF80
1FFFC0
1FFFE0
1FFFE0
1F83F0
1F83F0
1F83F0
1F83F0
1F87F0
1FFFE0
1FFFE0
1FFFC0
0FFF00
ENDCHAR
STARTCHAR 044B
ENCODING 1099
SWIDTH 495 0
DWIDTH 22 0
BBX 19 21 2 0
BITMAP
F003E0
F003E0
F003E0
F003E0
F003E0
F003E0
F003E0
FF03E0
FFC3E0
FFE3E0
FFF3E0
F1F3E0
F0F3E0
F0FBE0
F0FBE0
F0F3E0
F0F3E0
FFF3E0
FFF3E0
FFE3E0
FFC3E0
ENDCHAR
STARTCHAR 044C
ENCODING 1100
SWIDTH 495 0
DWIDTH 22 0
BBX 19 21 2 0
BITMAP
FC0000
FC0000
FC0000
FC0000
FC0000
FC0000
FC0000
FFF800
FFFF00
FFFF80
FFFFC0
FFFFC0
FC0FE0
FC07E0
FC07E0
FC07E0
FC0FE0
FFFFC0
FFFFC0
FFFF80
7FFE00
ENDCHAR
STARTCHAR 044D
ENCODING 1101
SWIDTH 495 0
DWIDTH 22 0
BBX 19 21 1 0
BITMAP
3FF800
7FFE00
7FFF00
7FFF80
387FC0
000FC0
0007E0
0007E0
07FFE0
07FFE0
07FFE0
07FFE0
07FFE0
0007E0
0007E0
000FC0
787FC0
7FFF80
FFFF00
FFFE00
7FF800
ENDCHAR
STARTCHAR 044E
ENCODING 1102
SWIDTH 495 0
DWIDTH 22 0
BBX 20 21 1 0
BITMAP
F03F80
F07FC0
F0FFE0
F0FFE0
F0F9F0
F1F1F0
F1F0F0
F1E0F0
FFE0F0
FFE0F0
FFE0F0
FFE0F0
FFE0F0
F1E0F0
F1F0F0
F1F1F0
F0F1F0
F0FFE0
F0FFE0
F07FC0
F03F80
ENDCHAR
STARTCHAR 044F
ENCODING 1103
SWIDTH 495 0
DWIDTH 22 0
BBX 19 21 1 0
BITMAP
03FFC0
0FFFE0
1FFFE0
3FFFE0
3F83E0
7E03E0
7E03E0
7E03E0
7E03E0
3FFFE0
3FFFE0
1FFFE0
07FFE0
0FFFE0
1F83E0
1F03E0
3F03E0
3E03E0
7E03E0
7C03E0
FC03E0
ENDCHAR
STARTCHAR 0450
ENCODING 1104
SWIDTH 495 0
DWIDTH 22 0
BBX 20 30 1 1
BITMAP
018000
03E000
03F000
07FC00
01FE00
007C00
001800
000000
000000
03FE00
0FFF00
1FFF80
1FFFC0
3F8FE0
7E07E0
7E03E0
7C03E0
FC03F0
FFFFF0
FFFFF0
FFFFF0
FC0000
7C0000
7E0000
7F0000
3FC3C0
3FFFC0
1FFFC0
0FFFC0
03FFC0
ENDCHAR
STARTCHAR 0451
ENCODING 1105
SWIDTH 495 0
DWIDTH 22 0
BBX 20 30 1 0
BITMAP
0E0700
1F0F80
1F8FC0
1F8FC0
1F8F80
0F0700
000000
000000
000000
03FE00
0FFF00
1FFF80
1FFFC0
3F8FE0
7E07E0
7E03E0
7C03E0
FC03F0
FFFFF0
FFFFF0
FFFFF0
FC0000
7C0000
7E0000
7F0000
3FC3C0
3FFFC0
1FFFC0
0FFFC0
03FFC0
ENDCHAR
STARTCHAR 0452
ENCODING 1106
SWIDTH 495 0
DWIDTH 22 0
BBX 19 38 1 -7
BITMAP
030000
1F0000
1F0000
1F0000
FFFC00
FFFC00
FFFC00
1F0000
1F0000
1F0000
1FFE00
1FFF00
1FFF80
1FFFC0
1FDFC0
1F0FC0
1F07C0
1F07E0
1F07E0
1F07E0
1F07E0
1F07E0
1F07E0
1F07E0
1F07E0
1F07E0
1F07E0
1F07E0
1F07E0
1F07E0
1F07E0
0007E0
0007C0
009FC0
00FFC0
01FF80
01FF00
01FE00
ENDCHAR
STARTCHAR 0453
ENCODING 1107
SWIDTH 495 0
DWIDTH 22 0
BBX 16 30 4 1
BITMAP
0070
00F8
03F8
07FC
0FF0
07C0
0300
0000
0000
FFFF
FFFF
FFFF
FFFF
FFFF
F800
F800
F800
F800
F800
F800
F800
F800
F800
F800
F800
F800
F800
F800
F800
F800
ENDCHAR
STARTCHAR 0454
ENCODING 1108
SWIDTH 495 0
DWIDTH 22 0
BBX 19 21 2 0
BITMAP
03FFC0
0FFFC0
1FFFC0
3FFFC0
7FE3C0
7E0000
FC0000
FC0000
FFFC00
FFFC00
FFFC00
FFFC00
FFFC00
FC0000
FC0000
7E0000
7FC0C0
3FFFC0
1FFFE0
0FFFE0
03FFE0
ENDCHAR
STARTCHAR 0455
ENCODING 1109
SWIDTH 495 0
DWIDTH 22 0
BBX 18 21 2 0
BITMAP
07FF00
1FFF80
3FFF00
7FFF00
7F0700
7C0000
7E0000
7F0000
7FE000
3FF800
1FFE00
07FF00
01FF80
003F80
000FC0
400FC0
781FC0
7FFF80
7FFF80
FFFF00
3FFC00
ENDCHAR
STARTCHAR 0456
ENCODING 1110
SWIDTH 495 0
DWIDTH 22 0
BBX 19 30 2 0
BITMAP
07C000
0FC000
0FE000
0FE000
0FC000
07C000
010000
000000
000000
FFE000
FFE000
FFE000
FFE000
FFE000
07E000
07E000
07E000
07E000
07E000
07E000
07E000
07E000
07E000
07E000
03E000
03F0C0
03FFC0
01FFC0
01FFE0
007FC0
ENDCHAR
STARTCHAR 0457
ENCODING 1111
SWIDTH 495 0
DWIDTH 22 0
BBX 19 30 2 0
BITMAP
3C1C00
7E3F00
7E3F00
7E3F00
7E3F00
3C1E00
000000
000000
000000
FFE000
FFE000
FFE000
FFE000
FFE000
07E000
07E000
07E000
07E000
07E000
07E000
07E000
07E000
07E000
07E000
03E000
03F0C0
03FFC0
01FFC0
01FFE0
007FC0
ENDCHAR
STARTCHAR 0458
ENCODING 1112
SWIDTH 495 0
DWIDTH 22 0
BBX 16 38 2 -8
BITMAP
007C
007E
00FE
00FE
00FE
007C
0018
0000
0000
3FFF
3FFF
3FFF
3FFF
3FFF
003F
003F
003F
003F
003F
003F
003F
003F
003F
003F
003F
003F
003F
003F
003F
003F
003F
203F
7C7E
7FFE
7FFC
FFFC
3FF0
0100
ENDCHAR
STARTCHAR 0459
ENCODING 1113
SWIDTH 495 0
DWIDTH 22 0
BBX 21 21 0 0
BITMAP
1FF800
1FF800
1FF800
1FF800
1E3800
1E3800
1E3800
1E3800
1E3FE0
1E3FF0
1E3FF8
1E38F8
1E3878
1E3878
1E3878
1E3878
3E3878
FC38F8
FC3FF8
783FF0
703FE0
ENDCHAR
STARTCHAR 045A
ENCODING 1114
SWIDTH 495 0
DWIDTH 22 0
BBX 19 21 2 0
BITMAP
F0E000
F0E000
F0E000
F0E000
F0E000
F0E000
F0E000
F0E000
FFFF80
FFFFC0
FFFFE0
FFE3E0
F0E1E0
F0E1E0
F0E1E0
F0E1E0
F0E1E0
F0E3E0
F0FFE0
F0FFC0
F0FF80
ENDCHAR
ENDFONT
